<?xml version="1.0" standalone="no"?><svg xmlns:xlink="http://www.w3.org/1999/xlink" xmlns="http://www.w3.org/2000/svg" viewBox="0 0 1000 562.5025964853974" preserveAspectRatio="xMaxYMax slice"><g transform="scale(0.8308753271571601)"><rect x="0" y="0" width="1203.5555555555557" height="677" fill="#fffafa"/><rect x="225.66666666666669" y="0" width="75.22222222222223" height="75.22222222222223" fill="#fffafa"/><rect x="263.28" y="0" width="37.61" height="37.61" fill="#fcdfd9"/><g transform="translate(225.67,37.61) scale(1.8805) rotate(0)"><rect width="20" height="2" fill="#beccd7"/><rect y="4" width="20" height="2" fill="#beccd7"/><rect y="8" width="20" height="2" fill="#beccd7"/><rect y="12" width="20" height="2" fill="#beccd7"/><rect y="16" width="20" height="2" fill="#beccd7"/></g><rect x="376.11111111111114" y="0" width="75.22222222222223" height="75.22222222222223" fill="#fffafa"/><g transform="translate(413.72,0) scale(1.8805) rotate(0)"><path d="M10 0H20L0 20V10L10 0Z" fill="#9cb4c5"/><path d="M20 10V20H10L20 10Z" fill="#9cb4c5"/></g><rect x="451.33333333333337" y="0" width="75.22222222222223" height="75.22222222222223" fill="#fffafa"/><g transform="translate(451.33,0) scale(1.8805) rotate(0)"><path d="M5 0H10L5 5L0 10V5L5 0Z" fill="#ced7e0"/><path d="M20 15V20H15L20 15Z" fill="#ced7e0"/><path d="M20 5V10L15 15L10 20H5L20 5Z" fill="#ced7e0"/><path d="M15 0H20L5 15.0002L0 20.0002V15.0002L15 0Z" fill="#ced7e0"/></g><g transform="translate(451.33,37.61) scale(1.8805) rotate(0)"><path d="M5 0H10L5 5L0 10V5L5 0Z" fill="#b5c6d3"/><path d="M20 15V20H15L20 15Z" fill="#b5c6d3"/><path d="M20 5V10L15 15L10 20H5L20 5Z" fill="#b5c6d3"/><path d="M15 0H20L5 15.0002L0 20.0002V15.0002L15 0Z" fill="#b5c6d3"/></g><g transform="translate(488.94,37.61) scale(1.8805) rotate(0)"><path d="M10 0H20L0 20V10L10 0Z" fill="#f49c87"/><path d="M20 10V20H10L20 10Z" fill="#f49c87"/></g><rect x="526.5555555555557" y="0" width="75.22222222222223" height="75.22222222222223" fill="#fffafa"/><g transform="translate(564.17,0) scale(1.8805) rotate(0)"><rect width="20" height="2" fill="#b8c8d4"/><rect y="4" width="20" height="2" fill="#b8c8d4"/><rect y="8" width="20" height="2" fill="#b8c8d4"/><rect y="12" width="20" height="2" fill="#b8c8d4"/><rect y="16" width="20" height="2" fill="#b8c8d4"/></g><g transform="translate(526.56,37.61) scale(1.8805) rotate(0)"><path d="M5 0H10L5 5L0 10V5L5 0Z" fill="#fdf9f9"/><path d="M20 15V20H15L20 15Z" fill="#fdf9f9"/><path d="M20 5V10L15 15L10 20H5L20 5Z" fill="#fdf9f9"/><path d="M15 0H20L5 15.0002L0 20.0002V15.0002L15 0Z" fill="#fdf9f9"/></g><g transform="translate(564.17,37.61) scale(1.8805) rotate(0)"><rect width="2" height="20" fill="#e3e6eb"/><rect x="4" width="2" height="20" fill="#e3e6eb"/><rect x="8" width="2" height="20" fill="#e3e6eb"/><rect x="12" width="2" height="20" fill="#e3e6eb"/><rect x="16" width="2" height="20" fill="#e3e6eb"/></g><rect x="601.7777777777778" y="0" width="75.22222222222223" height="75.22222222222223" fill="#fffafa"/><g transform="translate(639.39,0) scale(1.8805) rotate(0)"><path d="M5 0H10L5 5L0 10V5L5 0Z" fill="#95afc1"/><path d="M20 15V20H15L20 15Z" fill="#95afc1"/><path d="M20 5V10L15 15L10 20H5L20 5Z" fill="#95afc1"/><path d="M15 0H20L5 15.0002L0 20.0002V15.0002L15 0Z" fill="#95afc1"/></g><g transform="translate(639.39,37.61) scale(1.8805) rotate(0)"><rect width="2" height="20" fill="#94afc1"/><rect x="4" width="2" height="20" fill="#94afc1"/><rect x="8" width="2" height="20" fill="#94afc1"/><rect x="12" width="2" height="20" fill="#94afc1"/><rect x="16" width="2" height="20" fill="#94afc1"/></g><rect x="752.2222222222223" y="0" width="75.22222222222223" height="75.22222222222223" fill="#fffafa"/><rect x="752.22" y="0" width="37.61" height="37.61" fill="#f6ac9b"/><g transform="translate(789.83,0) scale(1.8805) rotate(0)"><rect width="2" height="20" fill="#fcded8"/><rect x="4" width="2" height="20" fill="#fcded8"/><rect x="8" width="2" height="20" fill="#fcded8"/><rect x="12" width="2" height="20" fill="#fcded8"/><rect x="16" width="2" height="20" fill="#fcded8"/></g><g transform="translate(789.83,37.61) scale(1.8805) rotate(0)"><rect width="20" height="2" fill="#ee6d4e"/><rect y="4" width="20" height="2" fill="#ee6d4e"/><rect y="8" width="20" height="2" fill="#ee6d4e"/><rect y="12" width="20" height="2" fill="#ee6d4e"/><rect y="16" width="20" height="2" fill="#ee6d4e"/></g><rect x="827.4444444444446" y="0" width="75.22222222222223" height="75.22222222222223" fill="#fffafa"/><rect x="827.44" y="37.61" width="37.61" height="37.61" fill="#e0e4ea"/><g transform="translate(865.06,37.61) scale(1.8805) rotate(0)"><path d="M10 0H20L0 20V10L10 0Z" fill="#d7dee5"/><path d="M20 10V20H10L20 10Z" fill="#d7dee5"/></g><rect x="902.6666666666667" y="0" width="75.22222222222223" height="75.22222222222223" fill="#fffafa"/><rect x="75.22222222222223" y="75.22222222222223" width="75.22222222222223" height="75.22222222222223" fill="#fffafa"/><g transform="translate(75.22,75.22) scale(1.8805) rotate(0)"><rect width="20" height="2" fill="#dde2e8"/><rect y="4" width="20" height="2" fill="#dde2e8"/><rect y="8" width="20" height="2" fill="#dde2e8"/><rect y="12" width="20" height="2" fill="#dde2e8"/><rect y="16" width="20" height="2" fill="#dde2e8"/></g><g transform="translate(112.83,75.22) scale(1.8805) rotate(0)"><path d="M5 0H10L5 5L0 10V5L5 0Z" fill="#c9d4dd"/><path d="M20 15V20H15L20 15Z" fill="#c9d4dd"/><path d="M20 5V10L15 15L10 20H5L20 5Z" fill="#c9d4dd"/><path d="M15 0H20L5 15.0002L0 20.0002V15.0002L15 0Z" fill="#c9d4dd"/></g><g transform="translate(75.22,112.83) scale(1.8805) rotate(0)"><rect width="2" height="20" fill="#fdebe8"/><rect x="4" width="2" height="20" fill="#fdebe8"/><rect x="8" width="2" height="20" fill="#fdebe8"/><rect x="12" width="2" height="20" fill="#fdebe8"/><rect x="16" width="2" height="20" fill="#fdebe8"/></g><g transform="translate(112.83,112.83) scale(1.8805) rotate(0)"><path d="M10 0H20L0 20V10L10 0Z" fill="#bccbd6"/><path d="M20 10V20H10L20 10Z" fill="#bccbd6"/></g><rect x="150.44444444444446" y="75.22222222222223" width="75.22222222222223" height="75.22222222222223" fill="#fffafa"/><g transform="translate(150.44,75.22) scale(1.8805) rotate(0)"><rect width="2" height="20" fill="#92adc0"/><rect x="4" width="2" height="20" fill="#92adc0"/><rect x="8" width="2" height="20" fill="#92adc0"/><rect x="12" width="2" height="20" fill="#92adc0"/><rect x="16" width="2" height="20" fill="#92adc0"/></g><g transform="translate(188.06,75.22) scale(1.8805) rotate(0)"><rect width="2" height="20" fill="#f8bdb0"/><rect x="4" width="2" height="20" fill="#f8bdb0"/><rect x="8" width="2" height="20" fill="#f8bdb0"/><rect x="12" width="2" height="20" fill="#f8bdb0"/><rect x="16" width="2" height="20" fill="#f8bdb0"/></g><g transform="translate(150.44,112.83) scale(1.8805) rotate(0)"><path d="M5 0H10L5 5L0 10V5L5 0Z" fill="#f9f6f7"/><path d="M20 15V20H15L20 15Z" fill="#f9f6f7"/><path d="M20 5V10L15 15L10 20H5L20 5Z" fill="#f9f6f7"/><path d="M15 0H20L5 15.0002L0 20.0002V15.0002L15 0Z" fill="#f9f6f7"/></g><rect x="376.11111111111114" y="75.22222222222223" width="75.22222222222223" height="75.22222222222223" fill="#fffafa"/><g transform="translate(376.11,112.83) scale(1.8805) rotate(0)"><rect width="2" height="20" fill="#9eb5c6"/><rect x="4" width="2" height="20" fill="#9eb5c6"/><rect x="8" width="2" height="20" fill="#9eb5c6"/><rect x="12" width="2" height="20" fill="#9eb5c6"/><rect x="16" width="2" height="20" fill="#9eb5c6"/></g><rect x="451.33333333333337" y="75.22222222222223" width="75.22222222222223" height="75.22222222222223" fill="#fffafa"/><rect x="451.33" y="75.22" width="37.61" height="37.61" fill="#b1c3d0"/><g transform="translate(488.94,75.22) scale(1.8805) rotate(0)"><rect width="2" height="20" fill="#f8c2b5"/><rect x="4" width="2" height="20" fill="#f8c2b5"/><rect x="8" width="2" height="20" fill="#f8c2b5"/><rect x="12" width="2" height="20" fill="#f8c2b5"/><rect x="16" width="2" height="20" fill="#f8c2b5"/></g><rect x="488.94" y="112.83" width="37.61" height="37.61" fill="#f6f4f5"/><rect x="526.5555555555557" y="75.22222222222223" width="75.22222222222223" height="75.22222222222223" fill="#fffafa"/><rect x="564.17" y="75.22" width="37.61" height="37.61" fill="#a1b8c8"/><g transform="translate(564.17,112.83) scale(1.8805) rotate(0)"><rect width="20" height="2" fill="#f3f1f3"/><rect y="4" width="20" height="2" fill="#f3f1f3"/><rect y="8" width="20" height="2" fill="#f3f1f3"/><rect y="12" width="20" height="2" fill="#f3f1f3"/><rect y="16" width="20" height="2" fill="#f3f1f3"/></g><rect x="601.7777777777778" y="75.22222222222223" width="75.22222222222223" height="75.22222222222223" fill="#fffafa"/><rect x="601.78" y="75.22" width="37.61" height="37.61" fill="#fcf8f8"/><g transform="translate(639.39,75.22) scale(1.8805) rotate(0)"><rect width="2" height="20" fill="#f6b2a2"/><rect x="4" width="2" height="20" fill="#f6b2a2"/><rect x="8" width="2" height="20" fill="#f6b2a2"/><rect x="12" width="2" height="20" fill="#f6b2a2"/><rect x="16" width="2" height="20" fill="#f6b2a2"/></g><g transform="translate(639.39,112.83) scale(1.8805) rotate(0)"><rect width="20" height="2" fill="#fbd6ce"/><rect y="4" width="20" height="2" fill="#fbd6ce"/><rect y="8" width="20" height="2" fill="#fbd6ce"/><rect y="12" width="20" height="2" fill="#fbd6ce"/><rect y="16" width="20" height="2" fill="#fbd6ce"/></g><rect x="902.6666666666667" y="75.22222222222223" width="75.22222222222223" height="75.22222222222223" fill="#fffafa"/><g transform="translate(940.28,75.22) scale(1.8805) rotate(0)"><path d="M10 0H20L0 20V10L10 0Z" fill="#9cb4c5"/><path d="M20 10V20H10L20 10Z" fill="#9cb4c5"/></g><g transform="translate(902.67,112.83) scale(1.8805) rotate(0)"><rect width="2" height="20" fill="#8fabbe"/><rect x="4" width="2" height="20" fill="#8fabbe"/><rect x="8" width="2" height="20" fill="#8fabbe"/><rect x="12" width="2" height="20" fill="#8fabbe"/><rect x="16" width="2" height="20" fill="#8fabbe"/></g><rect x="940.28" y="112.83" width="37.61" height="37.61" fill="#f7baac"/><rect x="1128.3333333333335" y="75.22222222222223" width="75.22222222222223" height="75.22222222222223" fill="#fffafa"/><g transform="translate(1128.33,75.22) scale(1.8805) rotate(0)"><rect width="2" height="20" fill="#f5a592"/><rect x="4" width="2" height="20" fill="#f5a592"/><rect x="8" width="2" height="20" fill="#f5a592"/><rect x="12" width="2" height="20" fill="#f5a592"/><rect x="16" width="2" height="20" fill="#f5a592"/></g><rect x="1165.94" y="75.22" width="37.61" height="37.61" fill="#f49a85"/><g transform="translate(1165.94,112.83) scale(1.8805) rotate(0)"><path d="M5 0H10L5 5L0 10V5L5 0Z" fill="#f3927b"/><path d="M20 15V20H15L20 15Z" fill="#f3927b"/><path d="M20 5V10L15 15L10 20H5L20 5Z" fill="#f3927b"/><path d="M15 0H20L5 15.0002L0 20.0002V15.0002L15 0Z" fill="#f3927b"/></g><rect x="0" y="150.44444444444446" width="75.22222222222223" height="75.22222222222223" fill="#fffafa"/><g transform="translate(37.61,150.44) scale(1.8805) rotate(0)"><rect width="20" height="2" fill="#9eb5c6"/><rect y="4" width="20" height="2" fill="#9eb5c6"/><rect y="8" width="20" height="2" fill="#9eb5c6"/><rect y="12" width="20" height="2" fill="#9eb5c6"/><rect y="16" width="20" height="2" fill="#9eb5c6"/></g><g transform="translate(0,188.06) scale(1.8805) rotate(0)"><rect width="20" height="2" fill="#f28c74"/><rect y="4" width="20" height="2" fill="#f28c74"/><rect y="8" width="20" height="2" fill="#f28c74"/><rect y="12" width="20" height="2" fill="#f28c74"/><rect y="16" width="20" height="2" fill="#f28c74"/></g><rect x="150.44444444444446" y="150.44444444444446" width="75.22222222222223" height="75.22222222222223" fill="#fffafa"/><g transform="translate(150.44,150.44) scale(1.8805) rotate(0)"><path d="M10 0H20L0 20V10L10 0Z" fill="#f7b4a5"/><path d="M20 10V20H10L20 10Z" fill="#f7b4a5"/></g><g transform="translate(188.06,150.44) scale(1.8805) rotate(0)"><rect width="20" height="2" fill="#ee6c4d"/><rect y="4" width="20" height="2" fill="#ee6c4d"/><rect y="8" width="20" height="2" fill="#ee6c4d"/><rect y="12" width="20" height="2" fill="#ee6c4d"/><rect y="16" width="20" height="2" fill="#ee6c4d"/></g><g transform="translate(150.44,188.06) scale(1.8805) rotate(0)"><rect width="2" height="20" fill="#cdd7df"/><rect x="4" width="2" height="20" fill="#cdd7df"/><rect x="8" width="2" height="20" fill="#cdd7df"/><rect x="12" width="2" height="20" fill="#cdd7df"/><rect x="16" width="2" height="20" fill="#cdd7df"/></g><g transform="translate(188.06,188.06) scale(1.8805) rotate(0)"><path d="M5 0H10L5 5L0 10V5L5 0Z" fill="#e3e7eb"/><path d="M20 15V20H15L20 15Z" fill="#e3e7eb"/><path d="M20 5V10L15 15L10 20H5L20 5Z" fill="#e3e7eb"/><path d="M15 0H20L5 15.0002L0 20.0002V15.0002L15 0Z" fill="#e3e7eb"/></g><rect x="300.8888888888889" y="150.44444444444446" width="75.22222222222223" height="75.22222222222223" fill="#fffafa"/><rect x="338.5" y="150.44" width="37.61" height="37.61" fill="#fbd6ce"/><g transform="translate(300.89,188.06) scale(1.8805) rotate(0)"><path d="M5 0H10L5 5L0 10V5L5 0Z" fill="#fdeae6"/><path d="M20 15V20H15L20 15Z" fill="#fdeae6"/><path d="M20 5V10L15 15L10 20H5L20 5Z" fill="#fdeae6"/><path d="M15 0H20L5 15.0002L0 20.0002V15.0002L15 0Z" fill="#fdeae6"/></g><g transform="translate(338.5,188.06) scale(1.8805) rotate(0)"><path d="M10 0H20L0 20V10L10 0Z" fill="#f49c88"/><path d="M20 10V20H10L20 10Z" fill="#f49c88"/></g><rect x="451.33333333333337" y="150.44444444444446" width="75.22222222222223" height="75.22222222222223" fill="#fffafa"/><g transform="translate(488.94,150.44) scale(1.8805) rotate(0)"><rect width="20" height="2" fill="#f7bbad"/><rect y="4" width="20" height="2" fill="#f7bbad"/><rect y="8" width="20" height="2" fill="#f7bbad"/><rect y="12" width="20" height="2" fill="#f7bbad"/><rect y="16" width="20" height="2" fill="#f7bbad"/></g><rect x="451.33" y="188.06" width="37.61" height="37.61" fill="#facdc4"/><g transform="translate(488.94,188.06) scale(1.8805) rotate(0)"><path d="M10 0H20L0 20V10L10 0Z" fill="#cfd8e0"/><path d="M20 10V20H10L20 10Z" fill="#cfd8e0"/></g><rect x="526.5555555555557" y="150.44444444444446" width="75.22222222222223" height="75.22222222222223" fill="#fffafa"/><rect x="526.56" y="150.44" width="37.61" height="37.61" fill="#9bb3c4"/><g transform="translate(564.17,150.44) scale(1.8805) rotate(0)"><path d="M10 0H20L0 20V10L10 0Z" fill="#fdedea"/><path d="M20 10V20H10L20 10Z" fill="#fdedea"/></g><rect x="564.17" y="188.06" width="37.61" height="37.61" fill="#b8c8d4"/><rect x="601.7777777777778" y="150.44444444444446" width="75.22222222222223" height="75.22222222222223" fill="#fffafa"/><g transform="translate(601.78,150.44) scale(1.8805) rotate(0)"><rect width="2" height="20" fill="#90acbe"/><rect x="4" width="2" height="20" fill="#90acbe"/><rect x="8" width="2" height="20" fill="#90acbe"/><rect x="12" width="2" height="20" fill="#90acbe"/><rect x="16" width="2" height="20" fill="#90acbe"/></g><rect x="677" y="150.44444444444446" width="75.22222222222223" height="75.22222222222223" fill="#fffafa"/><g transform="translate(677,150.44) scale(1.8805) rotate(0)"><path d="M5 0H10L5 5L0 10V5L5 0Z" fill="#fff9f9"/><path d="M20 15V20H15L20 15Z" fill="#fff9f9"/><path d="M20 5V10L15 15L10 20H5L20 5Z" fill="#fff9f9"/><path d="M15 0H20L5 15.0002L0 20.0002V15.0002L15 0Z" fill="#fff9f9"/></g><g transform="translate(677,188.06) scale(1.8805) rotate(0)"><rect width="20" height="2" fill="#9db5c6"/><rect y="4" width="20" height="2" fill="#9db5c6"/><rect y="8" width="20" height="2" fill="#9db5c6"/><rect y="12" width="20" height="2" fill="#9db5c6"/><rect y="16" width="20" height="2" fill="#9db5c6"/></g><g transform="translate(714.61,188.06) scale(1.8805) rotate(0)"><path d="M10 0H20L0 20V10L10 0Z" fill="#f08065"/><path d="M20 10V20H10L20 10Z" fill="#f08065"/></g><rect x="752.2222222222223" y="150.44444444444446" width="75.22222222222223" height="75.22222222222223" fill="#fffafa"/><g transform="translate(752.22,150.44) scale(1.8805) rotate(0)"><rect width="20" height="2" fill="#d7dee4"/><rect y="4" width="20" height="2" fill="#d7dee4"/><rect y="8" width="20" height="2" fill="#d7dee4"/><rect y="12" width="20" height="2" fill="#d7dee4"/><rect y="16" width="20" height="2" fill="#d7dee4"/></g><g transform="translate(789.83,150.44) scale(1.8805) rotate(0)"><rect width="20" height="2" fill="#b4c5d2"/><rect y="4" width="20" height="2" fill="#b4c5d2"/><rect y="8" width="20" height="2" fill="#b4c5d2"/><rect y="12" width="20" height="2" fill="#b4c5d2"/><rect y="16" width="20" height="2" fill="#b4c5d2"/></g><g transform="translate(752.22,188.06) scale(1.8805) rotate(0)"><path d="M10 0H20L0 20V10L10 0Z" fill="#f6ae9e"/><path d="M20 10V20H10L20 10Z" fill="#f6ae9e"/></g><g transform="translate(789.83,188.06) scale(1.8805) rotate(0)"><path d="M10 0H20L0 20V10L10 0Z" fill="#91acbf"/><path d="M20 10V20H10L20 10Z" fill="#91acbf"/></g><rect x="827.4444444444446" y="150.44444444444446" width="75.22222222222223" height="75.22222222222223" fill="#fffafa"/><rect x="827.44" y="150.44" width="37.61" height="37.61" fill="#fef2f1"/><rect x="1053.1111111111113" y="150.44444444444446" width="75.22222222222223" height="75.22222222222223" fill="#fffafa"/><rect x="1053.11" y="150.44" width="37.61" height="37.61" fill="#c9d4dd"/><g transform="translate(1090.72,150.44) scale(1.8805) rotate(0)"><path d="M5 0H10L5 5L0 10V5L5 0Z" fill="#ccd6de"/><path d="M20 15V20H15L20 15Z" fill="#ccd6de"/><path d="M20 5V10L15 15L10 20H5L20 5Z" fill="#ccd6de"/><path d="M15 0H20L5 15.0002L0 20.0002V15.0002L15 0Z" fill="#ccd6de"/></g><g transform="translate(1090.72,188.06) scale(1.8805) rotate(0)"><rect width="20" height="2" fill="#e4e7eb"/><rect y="4" width="20" height="2" fill="#e4e7eb"/><rect y="8" width="20" height="2" fill="#e4e7eb"/><rect y="12" width="20" height="2" fill="#e4e7eb"/><rect y="16" width="20" height="2" fill="#e4e7eb"/></g><rect x="0" y="225.66666666666669" width="75.22222222222223" height="75.22222222222223" fill="#fffafa"/><rect x="37.61" y="225.67" width="37.61" height="37.61" fill="#c2cfd9"/><g transform="translate(0,263.28) scale(1.8805) rotate(0)"><path d="M5 0H10L5 5L0 10V5L5 0Z" fill="#fff8f8"/><path d="M20 15V20H15L20 15Z" fill="#fff8f8"/><path d="M20 5V10L15 15L10 20H5L20 5Z" fill="#fff8f8"/><path d="M15 0H20L5 15.0002L0 20.0002V15.0002L15 0Z" fill="#fff8f8"/></g><g transform="translate(37.61,263.28) scale(1.8805) rotate(0)"><path d="M5 0H10L5 5L0 10V5L5 0Z" fill="#f28971"/><path d="M20 15V20H15L20 15Z" fill="#f28971"/><path d="M20 5V10L15 15L10 20H5L20 5Z" fill="#f28971"/><path d="M15 0H20L5 15.0002L0 20.0002V15.0002L15 0Z" fill="#f28971"/></g><rect x="75.22222222222223" y="225.66666666666669" width="75.22222222222223" height="75.22222222222223" fill="#fffafa"/><g transform="translate(75.22,225.67) scale(1.8805) rotate(0)"><path d="M10 0H20L0 20V10L10 0Z" fill="#9bb3c4"/><path d="M20 10V20H10L20 10Z" fill="#9bb3c4"/></g><rect x="112.83" y="263.28" width="37.61" height="37.61" fill="#fad2ca"/><rect x="150.44444444444446" y="225.66666666666669" width="75.22222222222223" height="75.22222222222223" fill="#fffafa"/><g transform="translate(150.44,225.67) scale(1.8805) rotate(0)"><path d="M10 0H20L0 20V10L10 0Z" fill="#f5a997"/><path d="M20 10V20H10L20 10Z" fill="#f5a997"/></g><rect x="188.06" y="263.28" width="37.61" height="37.61" fill="#d7dee5"/><rect x="225.66666666666669" y="225.66666666666669" width="75.22222222222223" height="75.22222222222223" fill="#fffafa"/><g transform="translate(225.67,225.67) scale(1.8805) rotate(0)"><path d="M10 0H20L0 20V10L10 0Z" fill="#b7c7d3"/><path d="M20 10V20H10L20 10Z" fill="#b7c7d3"/></g><g transform="translate(263.28,263.28) scale(1.8805) rotate(0)"><path d="M10 0H20L0 20V10L10 0Z" fill="#c2cfd9"/><path d="M20 10V20H10L20 10Z" fill="#c2cfd9"/></g><rect x="300.8888888888889" y="225.66666666666669" width="75.22222222222223" height="75.22222222222223" fill="#fffafa"/><g transform="translate(300.89,225.67) scale(1.8805) rotate(0)"><rect width="2" height="20" fill="#98b1c3"/><rect x="4" width="2" height="20" fill="#98b1c3"/><rect x="8" width="2" height="20" fill="#98b1c3"/><rect x="12" width="2" height="20" fill="#98b1c3"/><rect x="16" width="2" height="20" fill="#98b1c3"/></g><g transform="translate(300.89,263.28) scale(1.8805) rotate(0)"><rect width="20" height="2" fill="#ef7052"/><rect y="4" width="20" height="2" fill="#ef7052"/><rect y="8" width="20" height="2" fill="#ef7052"/><rect y="12" width="20" height="2" fill="#ef7052"/><rect y="16" width="20" height="2" fill="#ef7052"/></g><rect x="338.5" y="263.28" width="37.61" height="37.61" fill="#f6ae9e"/><rect x="451.33333333333337" y="225.66666666666669" width="75.22222222222223" height="75.22222222222223" fill="#fffafa"/><g transform="translate(451.33,225.67) scale(1.8805) rotate(0)"><path d="M5 0H10L5 5L0 10V5L5 0Z" fill="#f5a693"/><path d="M20 15V20H15L20 15Z" fill="#f5a693"/><path d="M20 5V10L15 15L10 20H5L20 5Z" fill="#f5a693"/><path d="M15 0H20L5 15.0002L0 20.0002V15.0002L15 0Z" fill="#f5a693"/></g><g transform="translate(488.94,225.67) scale(1.8805) rotate(0)"><rect width="2" height="20" fill="#f8bdb0"/><rect x="4" width="2" height="20" fill="#f8bdb0"/><rect x="8" width="2" height="20" fill="#f8bdb0"/><rect x="12" width="2" height="20" fill="#f8bdb0"/><rect x="16" width="2" height="20" fill="#f8bdb0"/></g><rect x="451.33" y="263.28" width="37.61" height="37.61" fill="#f5a592"/><g transform="translate(488.94,263.28) scale(1.8805) rotate(0)"><rect width="2" height="20" fill="#dbe0e7"/><rect x="4" width="2" height="20" fill="#dbe0e7"/><rect x="8" width="2" height="20" fill="#dbe0e7"/><rect x="12" width="2" height="20" fill="#dbe0e7"/><rect x="16" width="2" height="20" fill="#dbe0e7"/></g><rect x="526.5555555555557" y="225.66666666666669" width="75.22222222222223" height="75.22222222222223" fill="#fffafa"/><g transform="translate(526.56,225.67) scale(1.8805) rotate(0)"><path d="M10 0H20L0 20V10L10 0Z" fill="#fff9f9"/><path d="M20 10V20H10L20 10Z" fill="#fff9f9"/></g><g transform="translate(564.17,225.67) scale(1.8805) rotate(0)"><path d="M5 0H10L5 5L0 10V5L5 0Z" fill="#fad0c7"/><path d="M20 15V20H15L20 15Z" fill="#fad0c7"/><path d="M20 5V10L15 15L10 20H5L20 5Z" fill="#fad0c7"/><path d="M15 0H20L5 15.0002L0 20.0002V15.0002L15 0Z" fill="#fad0c7"/></g><rect x="564.17" y="263.28" width="37.61" height="37.61" fill="#d8dfe5"/><rect x="601.7777777777778" y="225.66666666666669" width="75.22222222222223" height="75.22222222222223" fill="#fffafa"/><g transform="translate(601.78,225.67) scale(1.8805) rotate(0)"><rect width="20" height="2" fill="#f08166"/><rect y="4" width="20" height="2" fill="#f08166"/><rect y="8" width="20" height="2" fill="#f08166"/><rect y="12" width="20" height="2" fill="#f08166"/><rect y="16" width="20" height="2" fill="#f08166"/></g><g transform="translate(639.39,263.28) scale(1.8805) rotate(0)"><rect width="20" height="2" fill="#edeef1"/><rect y="4" width="20" height="2" fill="#edeef1"/><rect y="8" width="20" height="2" fill="#edeef1"/><rect y="12" width="20" height="2" fill="#edeef1"/><rect y="16" width="20" height="2" fill="#edeef1"/></g><rect x="677" y="225.66666666666669" width="75.22222222222223" height="75.22222222222223" fill="#fffafa"/><rect x="677" y="225.67" width="37.61" height="37.61" fill="#e8eaee"/><g transform="translate(714.61,225.67) scale(1.8805) rotate(0)"><path d="M5 0H10L5 5L0 10V5L5 0Z" fill="#a1b7c7"/><path d="M20 15V20H15L20 15Z" fill="#a1b7c7"/><path d="M20 5V10L15 15L10 20H5L20 5Z" fill="#a1b7c7"/><path d="M15 0H20L5 15.0002L0 20.0002V15.0002L15 0Z" fill="#a1b7c7"/></g><rect x="677" y="263.28" width="37.61" height="37.61" fill="#dce1e7"/><g transform="translate(714.61,263.28) scale(1.8805) rotate(0)"><path d="M5 0H10L5 5L0 10V5L5 0Z" fill="#fff9f9"/><path d="M20 15V20H15L20 15Z" fill="#fff9f9"/><path d="M20 5V10L15 15L10 20H5L20 5Z" fill="#fff9f9"/><path d="M15 0H20L5 15.0002L0 20.0002V15.0002L15 0Z" fill="#fff9f9"/></g><rect x="752.2222222222223" y="225.66666666666669" width="75.22222222222223" height="75.22222222222223" fill="#fffafa"/><g transform="translate(752.22,225.67) scale(1.8805) rotate(0)"><rect width="2" height="20" fill="#f39781"/><rect x="4" width="2" height="20" fill="#f39781"/><rect x="8" width="2" height="20" fill="#f39781"/><rect x="12" width="2" height="20" fill="#f39781"/><rect x="16" width="2" height="20" fill="#f39781"/></g><g transform="translate(752.22,263.28) scale(1.8805) rotate(0)"><path d="M5 0H10L5 5L0 10V5L5 0Z" fill="#f8beb1"/><path d="M20 15V20H15L20 15Z" fill="#f8beb1"/><path d="M20 5V10L15 15L10 20H5L20 5Z" fill="#f8beb1"/><path d="M15 0H20L5 15.0002L0 20.0002V15.0002L15 0Z" fill="#f8beb1"/></g><g transform="translate(789.83,263.28) scale(1.8805) rotate(0)"><path d="M5 0H10L5 5L0 10V5L5 0Z" fill="#9ab3c4"/><path d="M20 15V20H15L20 15Z" fill="#9ab3c4"/><path d="M20 5V10L15 15L10 20H5L20 5Z" fill="#9ab3c4"/><path d="M15 0H20L5 15.0002L0 20.0002V15.0002L15 0Z" fill="#9ab3c4"/></g><rect x="827.4444444444446" y="225.66666666666669" width="75.22222222222223" height="75.22222222222223" fill="#fffafa"/><rect x="827.44" y="225.67" width="37.61" height="37.61" fill="#f1866c"/><g transform="translate(865.06,225.67) scale(1.8805) rotate(0)"><path d="M10 0H20L0 20V10L10 0Z" fill="#fce4df"/><path d="M20 10V20H10L20 10Z" fill="#fce4df"/></g><rect x="865.06" y="263.28" width="37.61" height="37.61" fill="#d1d9e1"/><rect x="977.8888888888889" y="225.66666666666669" width="75.22222222222223" height="75.22222222222223" fill="#fffafa"/><g transform="translate(977.89,225.67) scale(1.8805) rotate(0)"><rect width="20" height="2" fill="#99b2c4"/><rect y="4" width="20" height="2" fill="#99b2c4"/><rect y="8" width="20" height="2" fill="#99b2c4"/><rect y="12" width="20" height="2" fill="#99b2c4"/><rect y="16" width="20" height="2" fill="#99b2c4"/></g><rect x="1015.5" y="225.67" width="37.61" height="37.61" fill="#f6b2a2"/><rect x="1128.3333333333335" y="225.66666666666669" width="75.22222222222223" height="75.22222222222223" fill="#fffafa"/><g transform="translate(1128.33,225.67) scale(1.8805) rotate(0)"><rect width="20" height="2" fill="#e8eaee"/><rect y="4" width="20" height="2" fill="#e8eaee"/><rect y="8" width="20" height="2" fill="#e8eaee"/><rect y="12" width="20" height="2" fill="#e8eaee"/><rect y="16" width="20" height="2" fill="#e8eaee"/></g><g transform="translate(1165.94,225.67) scale(1.8805) rotate(0)"><path d="M5 0H10L5 5L0 10V5L5 0Z" fill="#d9dfe5"/><path d="M20 15V20H15L20 15Z" fill="#d9dfe5"/><path d="M20 5V10L15 15L10 20H5L20 5Z" fill="#d9dfe5"/><path d="M15 0H20L5 15.0002L0 20.0002V15.0002L15 0Z" fill="#d9dfe5"/></g><g transform="translate(1128.33,263.28) scale(1.8805) rotate(0)"><path d="M5 0H10L5 5L0 10V5L5 0Z" fill="#e0e4e9"/><path d="M20 15V20H15L20 15Z" fill="#e0e4e9"/><path d="M20 5V10L15 15L10 20H5L20 5Z" fill="#e0e4e9"/><path d="M15 0H20L5 15.0002L0 20.0002V15.0002L15 0Z" fill="#e0e4e9"/></g><g transform="translate(1165.94,263.28) scale(1.8805) rotate(0)"><rect width="20" height="2" fill="#ecedf0"/><rect y="4" width="20" height="2" fill="#ecedf0"/><rect y="8" width="20" height="2" fill="#ecedf0"/><rect y="12" width="20" height="2" fill="#ecedf0"/><rect y="16" width="20" height="2" fill="#ecedf0"/></g><rect x="75.22222222222223" y="300.8888888888889" width="75.22222222222223" height="75.22222222222223" fill="#fffafa"/><rect x="75.22" y="300.89" width="37.61" height="37.61" fill="#fbd6ce"/><rect x="112.83" y="300.89" width="37.61" height="37.61" fill="#e6e8ec"/><rect x="75.22" y="338.5" width="37.61" height="37.61" fill="#c5d1db"/><g transform="translate(112.83,338.5) scale(1.8805) rotate(0)"><path d="M10 0H20L0 20V10L10 0Z" fill="#fef4f3"/><path d="M20 10V20H10L20 10Z" fill="#fef4f3"/></g><rect x="225.66666666666669" y="300.8888888888889" width="75.22222222222223" height="75.22222222222223" fill="#fffafa"/><g transform="translate(263.28,300.89) scale(1.8805) rotate(0)"><rect width="20" height="2" fill="#fce2dc"/><rect y="4" width="20" height="2" fill="#fce2dc"/><rect y="8" width="20" height="2" fill="#fce2dc"/><rect y="12" width="20" height="2" fill="#fce2dc"/><rect y="16" width="20" height="2" fill="#fce2dc"/></g><g transform="translate(263.28,338.5) scale(1.8805) rotate(0)"><path d="M5 0H10L5 5L0 10V5L5 0Z" fill="#ef7558"/><path d="M20 15V20H15L20 15Z" fill="#ef7558"/><path d="M20 5V10L15 15L10 20H5L20 5Z" fill="#ef7558"/><path d="M15 0H20L5 15.0002L0 20.0002V15.0002L15 0Z" fill="#ef7558"/></g><rect x="300.8888888888889" y="300.8888888888889" width="75.22222222222223" height="75.22222222222223" fill="#fffafa"/><g transform="translate(338.5,300.89) scale(1.8805) rotate(0)"><path d="M10 0H20L0 20V10L10 0Z" fill="#f07b60"/><path d="M20 10V20H10L20 10Z" fill="#f07b60"/></g><rect x="338.5" y="338.5" width="37.61" height="37.61" fill="#cbd5de"/><rect x="376.11111111111114" y="300.8888888888889" width="75.22222222222223" height="75.22222222222223" fill="#fffafa"/><g transform="translate(376.11,338.5) scale(1.8805) rotate(0)"><path d="M5 0H10L5 5L0 10V5L5 0Z" fill="#d8dfe5"/><path d="M20 15V20H15L20 15Z" fill="#d8dfe5"/><path d="M20 5V10L15 15L10 20H5L20 5Z" fill="#d8dfe5"/><path d="M15 0H20L5 15.0002L0 20.0002V15.0002L15 0Z" fill="#d8dfe5"/></g><g transform="translate(413.72,338.5) scale(1.8805) rotate(0)"><path d="M10 0H20L0 20V10L10 0Z" fill="#feeeec"/><path d="M20 10V20H10L20 10Z" fill="#feeeec"/></g><rect x="526.5555555555557" y="300.8888888888889" width="75.22222222222223" height="75.22222222222223" fill="#fffafa"/><g transform="translate(526.56,300.89) scale(1.8805) rotate(0)"><path d="M5 0H10L5 5L0 10V5L5 0Z" fill="#e9eaee"/><path d="M20 15V20H15L20 15Z" fill="#e9eaee"/><path d="M20 5V10L15 15L10 20H5L20 5Z" fill="#e9eaee"/><path d="M15 0H20L5 15.0002L0 20.0002V15.0002L15 0Z" fill="#e9eaee"/></g><g transform="translate(564.17,300.89) scale(1.8805) rotate(0)"><rect width="20" height="2" fill="#90acbf"/><rect y="4" width="20" height="2" fill="#90acbf"/><rect y="8" width="20" height="2" fill="#90acbf"/><rect y="12" width="20" height="2" fill="#90acbf"/><rect y="16" width="20" height="2" fill="#90acbf"/></g><g transform="translate(526.56,338.5) scale(1.8805) rotate(0)"><rect width="2" height="20" fill="#90acbe"/><rect x="4" width="2" height="20" fill="#90acbe"/><rect x="8" width="2" height="20" fill="#90acbe"/><rect x="12" width="2" height="20" fill="#90acbe"/><rect x="16" width="2" height="20" fill="#90acbe"/></g><g transform="translate(564.17,338.5) scale(1.8805) rotate(0)"><path d="M10 0H20L0 20V10L10 0Z" fill="#f4a08c"/><path d="M20 10V20H10L20 10Z" fill="#f4a08c"/></g><rect x="601.7777777777778" y="300.8888888888889" width="75.22222222222223" height="75.22222222222223" fill="#fffafa"/><rect x="677" y="300.8888888888889" width="75.22222222222223" height="75.22222222222223" fill="#fffafa"/><g transform="translate(677,300.89) scale(1.8805) rotate(0)"><path d="M10 0H20L0 20V10L10 0Z" fill="#fde9e5"/><path d="M20 10V20H10L20 10Z" fill="#fde9e5"/></g><rect x="714.61" y="300.89" width="37.61" height="37.61" fill="#fbd6ce"/><g transform="translate(677,338.5) scale(1.8805) rotate(0)"><path d="M10 0H20L0 20V10L10 0Z" fill="#e1e5ea"/><path d="M20 10V20H10L20 10Z" fill="#e1e5ea"/></g><rect x="827.4444444444446" y="300.8888888888889" width="75.22222222222223" height="75.22222222222223" fill="#fffafa"/><rect x="827.44" y="300.89" width="37.61" height="37.61" fill="#d8dee5"/><rect x="865.06" y="338.5" width="37.61" height="37.61" fill="#c6d2dc"/><rect x="902.6666666666667" y="300.8888888888889" width="75.22222222222223" height="75.22222222222223" fill="#fffafa"/><g transform="translate(902.67,300.89) scale(1.8805) rotate(0)"><path d="M5 0H10L5 5L0 10V5L5 0Z" fill="#f07c61"/><path d="M20 15V20H15L20 15Z" fill="#f07c61"/><path d="M20 5V10L15 15L10 20H5L20 5Z" fill="#f07c61"/><path d="M15 0H20L5 15.0002L0 20.0002V15.0002L15 0Z" fill="#f07c61"/></g><g transform="translate(940.28,300.89) scale(1.8805) rotate(0)"><path d="M10 0H20L0 20V10L10 0Z" fill="#b1c3d0"/><path d="M20 10V20H10L20 10Z" fill="#b1c3d0"/></g><g transform="translate(902.67,338.5) scale(1.8805) rotate(0)"><rect width="2" height="20" fill="#a1b8c8"/><rect x="4" width="2" height="20" fill="#a1b8c8"/><rect x="8" width="2" height="20" fill="#a1b8c8"/><rect x="12" width="2" height="20" fill="#a1b8c8"/><rect x="16" width="2" height="20" fill="#a1b8c8"/></g><rect x="977.8888888888889" y="300.8888888888889" width="75.22222222222223" height="75.22222222222223" fill="#fffafa"/><g transform="translate(977.89,300.89) scale(1.8805) rotate(0)"><path d="M10 0H20L0 20V10L10 0Z" fill="#ededf0"/><path d="M20 10V20H10L20 10Z" fill="#ededf0"/></g><g transform="translate(1015.5,300.89) scale(1.8805) rotate(0)"><path d="M10 0H20L0 20V10L10 0Z" fill="#f18268"/><path d="M20 10V20H10L20 10Z" fill="#f18268"/></g><g transform="translate(977.89,338.5) scale(1.8805) rotate(0)"><path d="M5 0H10L5 5L0 10V5L5 0Z" fill="#9ab3c4"/><path d="M20 15V20H15L20 15Z" fill="#9ab3c4"/><path d="M20 5V10L15 15L10 20H5L20 5Z" fill="#9ab3c4"/><path d="M15 0H20L5 15.0002L0 20.0002V15.0002L15 0Z" fill="#9ab3c4"/></g><g transform="translate(1015.5,338.5) scale(1.8805) rotate(0)"><rect width="2" height="20" fill="#dae0e6"/><rect x="4" width="2" height="20" fill="#dae0e6"/><rect x="8" width="2" height="20" fill="#dae0e6"/><rect x="12" width="2" height="20" fill="#dae0e6"/><rect x="16" width="2" height="20" fill="#dae0e6"/></g><rect x="1053.1111111111113" y="300.8888888888889" width="75.22222222222223" height="75.22222222222223" fill="#fffafa"/><g transform="translate(1090.72,300.89) scale(1.8805) rotate(0)"><rect width="20" height="2" fill="#fce2dd"/><rect y="4" width="20" height="2" fill="#fce2dd"/><rect y="8" width="20" height="2" fill="#fce2dd"/><rect y="12" width="20" height="2" fill="#fce2dd"/><rect y="16" width="20" height="2" fill="#fce2dd"/></g><rect x="1053.11" y="338.5" width="37.61" height="37.61" fill="#f8bfb3"/><g transform="translate(1090.72,338.5) scale(1.8805) rotate(0)"><rect width="20" height="2" fill="#fff9f9"/><rect y="4" width="20" height="2" fill="#fff9f9"/><rect y="8" width="20" height="2" fill="#fff9f9"/><rect y="12" width="20" height="2" fill="#fff9f9"/><rect y="16" width="20" height="2" fill="#fff9f9"/></g><rect x="1128.3333333333335" y="300.8888888888889" width="75.22222222222223" height="75.22222222222223" fill="#fffafa"/><g transform="translate(1165.94,300.89) scale(1.8805) rotate(0)"><rect width="2" height="20" fill="#f8bdb0"/><rect x="4" width="2" height="20" fill="#f8bdb0"/><rect x="8" width="2" height="20" fill="#f8bdb0"/><rect x="12" width="2" height="20" fill="#f8bdb0"/><rect x="16" width="2" height="20" fill="#f8bdb0"/></g><g transform="translate(1128.33,338.5) scale(1.8805) rotate(0)"><path d="M5 0H10L5 5L0 10V5L5 0Z" fill="#cdd7df"/><path d="M20 15V20H15L20 15Z" fill="#cdd7df"/><path d="M20 5V10L15 15L10 20H5L20 5Z" fill="#cdd7df"/><path d="M15 0H20L5 15.0002L0 20.0002V15.0002L15 0Z" fill="#cdd7df"/></g><g transform="translate(1165.94,338.5) scale(1.8805) rotate(0)"><rect width="2" height="20" fill="#fef5f3"/><rect x="4" width="2" height="20" fill="#fef5f3"/><rect x="8" width="2" height="20" fill="#fef5f3"/><rect x="12" width="2" height="20" fill="#fef5f3"/><rect x="16" width="2" height="20" fill="#fef5f3"/></g><rect x="0" y="376.11111111111114" width="75.22222222222223" height="75.22222222222223" fill="#fffafa"/><g transform="translate(0,376.11) scale(1.8805) rotate(0)"><rect width="2" height="20" fill="#ef7659"/><rect x="4" width="2" height="20" fill="#ef7659"/><rect x="8" width="2" height="20" fill="#ef7659"/><rect x="12" width="2" height="20" fill="#ef7659"/><rect x="16" width="2" height="20" fill="#ef7659"/></g><g transform="translate(37.61,376.11) scale(1.8805) rotate(0)"><rect width="2" height="20" fill="#fce0db"/><rect x="4" width="2" height="20" fill="#fce0db"/><rect x="8" width="2" height="20" fill="#fce0db"/><rect x="12" width="2" height="20" fill="#fce0db"/><rect x="16" width="2" height="20" fill="#fce0db"/></g><rect x="75.22222222222223" y="376.11111111111114" width="75.22222222222223" height="75.22222222222223" fill="#fffafa"/><g transform="translate(75.22,376.11) scale(1.8805) rotate(0)"><path d="M10 0H20L0 20V10L10 0Z" fill="#f0f0f2"/><path d="M20 10V20H10L20 10Z" fill="#f0f0f2"/></g><g transform="translate(112.83,376.11) scale(1.8805) rotate(0)"><path d="M10 0H20L0 20V10L10 0Z" fill="#c1ced9"/><path d="M20 10V20H10L20 10Z" fill="#c1ced9"/></g><g transform="translate(75.22,413.72) scale(1.8805) rotate(0)"><path d="M10 0H20L0 20V10L10 0Z" fill="#fbdbd4"/><path d="M20 10V20H10L20 10Z" fill="#fbdbd4"/></g><g transform="translate(112.83,413.72) scale(1.8805) rotate(0)"><rect width="2" height="20" fill="#f5a896"/><rect x="4" width="2" height="20" fill="#f5a896"/><rect x="8" width="2" height="20" fill="#f5a896"/><rect x="12" width="2" height="20" fill="#f5a896"/><rect x="16" width="2" height="20" fill="#f5a896"/></g><rect x="300.8888888888889" y="376.11111111111114" width="75.22222222222223" height="75.22222222222223" fill="#fffafa"/><g transform="translate(300.89,413.72) scale(1.8805) rotate(0)"><path d="M5 0H10L5 5L0 10V5L5 0Z" fill="#a8bdcc"/><path d="M20 15V20H15L20 15Z" fill="#a8bdcc"/><path d="M20 5V10L15 15L10 20H5L20 5Z" fill="#a8bdcc"/><path d="M15 0H20L5 15.0002L0 20.0002V15.0002L15 0Z" fill="#a8bdcc"/></g><g transform="translate(338.5,413.72) scale(1.8805) rotate(0)"><path d="M10 0H20L0 20V10L10 0Z" fill="#fce4e0"/><path d="M20 10V20H10L20 10Z" fill="#fce4e0"/></g><rect x="526.5555555555557" y="376.11111111111114" width="75.22222222222223" height="75.22222222222223" fill="#fffafa"/><g transform="translate(526.56,376.11) scale(1.8805) rotate(0)"><rect width="2" height="20" fill="#f4a28e"/><rect x="4" width="2" height="20" fill="#f4a28e"/><rect x="8" width="2" height="20" fill="#f4a28e"/><rect x="12" width="2" height="20" fill="#f4a28e"/><rect x="16" width="2" height="20" fill="#f4a28e"/></g><g transform="translate(564.17,376.11) scale(1.8805) rotate(0)"><path d="M5 0H10L5 5L0 10V5L5 0Z" fill="#abbfcd"/><path d="M20 15V20H15L20 15Z" fill="#abbfcd"/><path d="M20 5V10L15 15L10 20H5L20 5Z" fill="#abbfcd"/><path d="M15 0H20L5 15.0002L0 20.0002V15.0002L15 0Z" fill="#abbfcd"/></g><g transform="translate(526.56,413.72) scale(1.8805) rotate(0)"><rect width="2" height="20" fill="#f07a5e"/><rect x="4" width="2" height="20" fill="#f07a5e"/><rect x="8" width="2" height="20" fill="#f07a5e"/><rect x="12" width="2" height="20" fill="#f07a5e"/><rect x="16" width="2" height="20" fill="#f07a5e"/></g><rect x="564.17" y="413.72" width="37.61" height="37.61" fill="#f1f0f3"/><rect x="601.7777777777778" y="376.11111111111114" width="75.22222222222223" height="75.22222222222223" fill="#fffafa"/><g transform="translate(601.78,376.11) scale(1.8805) rotate(0)"><path d="M5 0H10L5 5L0 10V5L5 0Z" fill="#f7b8aa"/><path d="M20 15V20H15L20 15Z" fill="#f7b8aa"/><path d="M20 5V10L15 15L10 20H5L20 5Z" fill="#f7b8aa"/><path d="M15 0H20L5 15.0002L0 20.0002V15.0002L15 0Z" fill="#f7b8aa"/></g><g transform="translate(639.39,376.11) scale(1.8805) rotate(0)"><rect width="2" height="20" fill="#c7d3dc"/><rect x="4" width="2" height="20" fill="#c7d3dc"/><rect x="8" width="2" height="20" fill="#c7d3dc"/><rect x="12" width="2" height="20" fill="#c7d3dc"/><rect x="16" width="2" height="20" fill="#c7d3dc"/></g><g transform="translate(601.78,413.72) scale(1.8805) rotate(0)"><rect width="20" height="2" fill="#f07f65"/><rect y="4" width="20" height="2" fill="#f07f65"/><rect y="8" width="20" height="2" fill="#f07f65"/><rect y="12" width="20" height="2" fill="#f07f65"/><rect y="16" width="20" height="2" fill="#f07f65"/></g><g transform="translate(639.39,413.72) scale(1.8805) rotate(0)"><rect width="20" height="2" fill="#f6f4f5"/><rect y="4" width="20" height="2" fill="#f6f4f5"/><rect y="8" width="20" height="2" fill="#f6f4f5"/><rect y="12" width="20" height="2" fill="#f6f4f5"/><rect y="16" width="20" height="2" fill="#f6f4f5"/></g><rect x="752.2222222222223" y="376.11111111111114" width="75.22222222222223" height="75.22222222222223" fill="#fffafa"/><g transform="translate(752.22,376.11) scale(1.8805) rotate(0)"><rect width="20" height="2" fill="#91acbf"/><rect y="4" width="20" height="2" fill="#91acbf"/><rect y="8" width="20" height="2" fill="#91acbf"/><rect y="12" width="20" height="2" fill="#91acbf"/><rect y="16" width="20" height="2" fill="#91acbf"/></g><rect x="902.6666666666667" y="376.11111111111114" width="75.22222222222223" height="75.22222222222223" fill="#fffafa"/><g transform="translate(902.67,376.11) scale(1.8805) rotate(0)"><rect width="20" height="2" fill="#d3dbe2"/><rect y="4" width="20" height="2" fill="#d3dbe2"/><rect y="8" width="20" height="2" fill="#d3dbe2"/><rect y="12" width="20" height="2" fill="#d3dbe2"/><rect y="16" width="20" height="2" fill="#d3dbe2"/></g><g transform="translate(940.28,376.11) scale(1.8805) rotate(0)"><path d="M10 0H20L0 20V10L10 0Z" fill="#a1b7c7"/><path d="M20 10V20H10L20 10Z" fill="#a1b7c7"/></g><g transform="translate(940.28,413.72) scale(1.8805) rotate(0)"><path d="M5 0H10L5 5L0 10V5L5 0Z" fill="#f9c8be"/><path d="M20 15V20H15L20 15Z" fill="#f9c8be"/><path d="M20 5V10L15 15L10 20H5L20 5Z" fill="#f9c8be"/><path d="M15 0H20L5 15.0002L0 20.0002V15.0002L15 0Z" fill="#f9c8be"/></g><rect x="977.8888888888889" y="376.11111111111114" width="75.22222222222223" height="75.22222222222223" fill="#fffafa"/><rect x="977.89" y="376.11" width="37.61" height="37.61" fill="#ced8e0"/><g transform="translate(1015.5,376.11) scale(1.8805) rotate(0)"><path d="M5 0H10L5 5L0 10V5L5 0Z" fill="#efeff2"/><path d="M20 15V20H15L20 15Z" fill="#efeff2"/><path d="M20 5V10L15 15L10 20H5L20 5Z" fill="#efeff2"/><path d="M15 0H20L5 15.0002L0 20.0002V15.0002L15 0Z" fill="#efeff2"/></g><g transform="translate(1015.5,413.72) scale(1.8805) rotate(0)"><rect width="2" height="20" fill="#97b0c2"/><rect x="4" width="2" height="20" fill="#97b0c2"/><rect x="8" width="2" height="20" fill="#97b0c2"/><rect x="12" width="2" height="20" fill="#97b0c2"/><rect x="16" width="2" height="20" fill="#97b0c2"/></g><rect x="1053.1111111111113" y="376.11111111111114" width="75.22222222222223" height="75.22222222222223" fill="#fffafa"/><g transform="translate(1053.11,376.11) scale(1.8805) rotate(0)"><rect width="2" height="20" fill="#a6bbca"/><rect x="4" width="2" height="20" fill="#a6bbca"/><rect x="8" width="2" height="20" fill="#a6bbca"/><rect x="12" width="2" height="20" fill="#a6bbca"/><rect x="16" width="2" height="20" fill="#a6bbca"/></g><g transform="translate(1053.11,413.72) scale(1.8805) rotate(0)"><path d="M5 0H10L5 5L0 10V5L5 0Z" fill="#fdeae7"/><path d="M20 15V20H15L20 15Z" fill="#fdeae7"/><path d="M20 5V10L15 15L10 20H5L20 5Z" fill="#fdeae7"/><path d="M15 0H20L5 15.0002L0 20.0002V15.0002L15 0Z" fill="#fdeae7"/></g><rect x="1128.3333333333335" y="376.11111111111114" width="75.22222222222223" height="75.22222222222223" fill="#fffafa"/><rect x="1165.94" y="376.11" width="37.61" height="37.61" fill="#f7b4a5"/><g transform="translate(1128.33,413.72) scale(1.8805) rotate(0)"><rect width="2" height="20" fill="#c8d3dd"/><rect x="4" width="2" height="20" fill="#c8d3dd"/><rect x="8" width="2" height="20" fill="#c8d3dd"/><rect x="12" width="2" height="20" fill="#c8d3dd"/><rect x="16" width="2" height="20" fill="#c8d3dd"/></g><g transform="translate(1165.94,413.72) scale(1.8805) rotate(0)"><path d="M5 0H10L5 5L0 10V5L5 0Z" fill="#f28f78"/><path d="M20 15V20H15L20 15Z" fill="#f28f78"/><path d="M20 5V10L15 15L10 20H5L20 5Z" fill="#f28f78"/><path d="M15 0H20L5 15.0002L0 20.0002V15.0002L15 0Z" fill="#f28f78"/></g><rect x="0" y="451.33333333333337" width="75.22222222222223" height="75.22222222222223" fill="#fffafa"/><rect x="37.61" y="451.33" width="37.61" height="37.61" fill="#f7b4a5"/><rect x="0" y="488.94" width="37.61" height="37.61" fill="#f8bdaf"/><rect x="225.66666666666669" y="451.33333333333337" width="75.22222222222223" height="75.22222222222223" fill="#fffafa"/><g transform="translate(225.67,451.33) scale(1.8805) rotate(0)"><rect width="20" height="2" fill="#b9c8d4"/><rect y="4" width="20" height="2" fill="#b9c8d4"/><rect y="8" width="20" height="2" fill="#b9c8d4"/><rect y="12" width="20" height="2" fill="#b9c8d4"/><rect y="16" width="20" height="2" fill="#b9c8d4"/></g><rect x="263.28" y="451.33" width="37.61" height="37.61" fill="#ef7659"/><rect x="225.67" y="488.94" width="37.61" height="37.61" fill="#f7f4f6"/><g transform="translate(263.28,488.94) scale(1.8805) rotate(0)"><rect width="2" height="20" fill="#facdc3"/><rect x="4" width="2" height="20" fill="#facdc3"/><rect x="8" width="2" height="20" fill="#facdc3"/><rect x="12" width="2" height="20" fill="#facdc3"/><rect x="16" width="2" height="20" fill="#facdc3"/></g><rect x="300.8888888888889" y="451.33333333333337" width="75.22222222222223" height="75.22222222222223" fill="#fffafa"/><g transform="translate(338.5,488.94) scale(1.8805) rotate(0)"><rect width="20" height="2" fill="#dfe3e9"/><rect y="4" width="20" height="2" fill="#dfe3e9"/><rect y="8" width="20" height="2" fill="#dfe3e9"/><rect y="12" width="20" height="2" fill="#dfe3e9"/><rect y="16" width="20" height="2" fill="#dfe3e9"/></g><rect x="376.11111111111114" y="451.33333333333337" width="75.22222222222223" height="75.22222222222223" fill="#fffafa"/><g transform="translate(376.11,451.33) scale(1.8805) rotate(0)"><path d="M10 0H20L0 20V10L10 0Z" fill="#9db5c5"/><path d="M20 10V20H10L20 10Z" fill="#9db5c5"/></g><g transform="translate(413.72,451.33) scale(1.8805) rotate(0)"><path d="M5 0H10L5 5L0 10V5L5 0Z" fill="#fce3de"/><path d="M20 15V20H15L20 15Z" fill="#fce3de"/><path d="M20 5V10L15 15L10 20H5L20 5Z" fill="#fce3de"/><path d="M15 0H20L5 15.0002L0 20.0002V15.0002L15 0Z" fill="#fce3de"/></g><g transform="translate(376.11,488.94) scale(1.8805) rotate(0)"><path d="M5 0H10L5 5L0 10V5L5 0Z" fill="#f28f78"/><path d="M20 15V20H15L20 15Z" fill="#f28f78"/><path d="M20 5V10L15 15L10 20H5L20 5Z" fill="#f28f78"/><path d="M15 0H20L5 15.0002L0 20.0002V15.0002L15 0Z" fill="#f28f78"/></g><g transform="translate(413.72,488.94) scale(1.8805) rotate(0)"><rect width="20" height="2" fill="#c4d0da"/><rect y="4" width="20" height="2" fill="#c4d0da"/><rect y="8" width="20" height="2" fill="#c4d0da"/><rect y="12" width="20" height="2" fill="#c4d0da"/><rect y="16" width="20" height="2" fill="#c4d0da"/></g><rect x="451.33333333333337" y="451.33333333333337" width="75.22222222222223" height="75.22222222222223" fill="#fffafa"/><g transform="translate(488.94,451.33) scale(1.8805) rotate(0)"><rect width="20" height="2" fill="#f9cac0"/><rect y="4" width="20" height="2" fill="#f9cac0"/><rect y="8" width="20" height="2" fill="#f9cac0"/><rect y="12" width="20" height="2" fill="#f9cac0"/><rect y="16" width="20" height="2" fill="#f9cac0"/></g><g transform="translate(451.33,488.94) scale(1.8805) rotate(0)"><rect width="20" height="2" fill="#f07a5e"/><rect y="4" width="20" height="2" fill="#f07a5e"/><rect y="8" width="20" height="2" fill="#f07a5e"/><rect y="12" width="20" height="2" fill="#f07a5e"/><rect y="16" width="20" height="2" fill="#f07a5e"/></g><rect x="488.94" y="488.94" width="37.61" height="37.61" fill="#facec4"/><rect x="526.5555555555557" y="451.33333333333337" width="75.22222222222223" height="75.22222222222223" fill="#fffafa"/><g transform="translate(526.56,488.94) scale(1.8805) rotate(0)"><path d="M10 0H20L0 20V10L10 0Z" fill="#d2dae2"/><path d="M20 10V20H10L20 10Z" fill="#d2dae2"/></g><rect x="677" y="451.33333333333337" width="75.22222222222223" height="75.22222222222223" fill="#fffafa"/><g transform="translate(677,488.94) scale(1.8805) rotate(0)"><rect width="2" height="20" fill="#f3937c"/><rect x="4" width="2" height="20" fill="#f3937c"/><rect x="8" width="2" height="20" fill="#f3937c"/><rect x="12" width="2" height="20" fill="#f3937c"/><rect x="16" width="2" height="20" fill="#f3937c"/></g><rect x="752.2222222222223" y="451.33333333333337" width="75.22222222222223" height="75.22222222222223" fill="#fffafa"/><g transform="translate(752.22,451.33) scale(1.8805) rotate(0)"><rect width="2" height="20" fill="#f2f1f3"/><rect x="4" width="2" height="20" fill="#f2f1f3"/><rect x="8" width="2" height="20" fill="#f2f1f3"/><rect x="12" width="2" height="20" fill="#f2f1f3"/><rect x="16" width="2" height="20" fill="#f2f1f3"/></g><g transform="translate(789.83,488.94) scale(1.8805) rotate(0)"><path d="M10 0H20L0 20V10L10 0Z" fill="#f6f4f5"/><path d="M20 10V20H10L20 10Z" fill="#f6f4f5"/></g><rect x="827.4444444444446" y="451.33333333333337" width="75.22222222222223" height="75.22222222222223" fill="#fffafa"/><rect x="865.06" y="451.33" width="37.61" height="37.61" fill="#f6af9f"/><rect x="865.06" y="488.94" width="37.61" height="37.61" fill="#efeff2"/><rect x="977.8888888888889" y="451.33333333333337" width="75.22222222222223" height="75.22222222222223" fill="#fffafa"/><g transform="translate(977.89,451.33) scale(1.8805) rotate(0)"><path d="M5 0H10L5 5L0 10V5L5 0Z" fill="#fde8e4"/><path d="M20 15V20H15L20 15Z" fill="#fde8e4"/><path d="M20 5V10L15 15L10 20H5L20 5Z" fill="#fde8e4"/><path d="M15 0H20L5 15.0002L0 20.0002V15.0002L15 0Z" fill="#fde8e4"/></g><g transform="translate(1015.5,451.33) scale(1.8805) rotate(0)"><rect width="20" height="2" fill="#fff6f5"/><rect y="4" width="20" height="2" fill="#fff6f5"/><rect y="8" width="20" height="2" fill="#fff6f5"/><rect y="12" width="20" height="2" fill="#fff6f5"/><rect y="16" width="20" height="2" fill="#fff6f5"/></g><rect x="977.89" y="488.94" width="37.61" height="37.61" fill="#d6dde4"/><rect x="1053.1111111111113" y="451.33333333333337" width="75.22222222222223" height="75.22222222222223" fill="#fffafa"/><g transform="translate(1090.72,488.94) scale(1.8805) rotate(0)"><path d="M5 0H10L5 5L0 10V5L5 0Z" fill="#fdeae7"/><path d="M20 15V20H15L20 15Z" fill="#fdeae7"/><path d="M20 5V10L15 15L10 20H5L20 5Z" fill="#fdeae7"/><path d="M15 0H20L5 15.0002L0 20.0002V15.0002L15 0Z" fill="#fdeae7"/></g><rect x="1128.3333333333335" y="451.33333333333337" width="75.22222222222223" height="75.22222222222223" fill="#fffafa"/><g transform="translate(1165.94,451.33) scale(1.8805) rotate(0)"><path d="M5 0H10L5 5L0 10V5L5 0Z" fill="#f9c6ba"/><path d="M20 15V20H15L20 15Z" fill="#f9c6ba"/><path d="M20 5V10L15 15L10 20H5L20 5Z" fill="#f9c6ba"/><path d="M15 0H20L5 15.0002L0 20.0002V15.0002L15 0Z" fill="#f9c6ba"/></g><rect x="0" y="526.5555555555557" width="75.22222222222223" height="75.22222222222223" fill="#fffafa"/><g transform="translate(0,526.56) scale(1.8805) rotate(0)"><path d="M5 0H10L5 5L0 10V5L5 0Z" fill="#a8bccb"/><path d="M20 15V20H15L20 15Z" fill="#a8bccb"/><path d="M20 5V10L15 15L10 20H5L20 5Z" fill="#a8bccb"/><path d="M15 0H20L5 15.0002L0 20.0002V15.0002L15 0Z" fill="#a8bccb"/></g><g transform="translate(37.61,526.56) scale(1.8805) rotate(0)"><rect width="20" height="2" fill="#ee6e4f"/><rect y="4" width="20" height="2" fill="#ee6e4f"/><rect y="8" width="20" height="2" fill="#ee6e4f"/><rect y="12" width="20" height="2" fill="#ee6e4f"/><rect y="16" width="20" height="2" fill="#ee6e4f"/></g><g transform="translate(0,564.17) scale(1.8805) rotate(0)"><path d="M5 0H10L5 5L0 10V5L5 0Z" fill="#97b0c2"/><path d="M20 15V20H15L20 15Z" fill="#97b0c2"/><path d="M20 5V10L15 15L10 20H5L20 5Z" fill="#97b0c2"/><path d="M15 0H20L5 15.0002L0 20.0002V15.0002L15 0Z" fill="#97b0c2"/></g><rect x="150.44444444444446" y="526.5555555555557" width="75.22222222222223" height="75.22222222222223" fill="#fffafa"/><g transform="translate(150.44,526.56) scale(1.8805) rotate(0)"><path d="M10 0H20L0 20V10L10 0Z" fill="#fbdbd5"/><path d="M20 10V20H10L20 10Z" fill="#fbdbd5"/></g><g transform="translate(188.06,526.56) scale(1.8805) rotate(0)"><rect width="20" height="2" fill="#fbd5cd"/><rect y="4" width="20" height="2" fill="#fbd5cd"/><rect y="8" width="20" height="2" fill="#fbd5cd"/><rect y="12" width="20" height="2" fill="#fbd5cd"/><rect y="16" width="20" height="2" fill="#fbd5cd"/></g><rect x="188.06" y="564.17" width="37.61" height="37.61" fill="#fce1dc"/><rect x="300.8888888888889" y="526.5555555555557" width="75.22222222222223" height="75.22222222222223" fill="#fffafa"/><rect x="338.5" y="526.56" width="37.61" height="37.61" fill="#f6ac9b"/><g transform="translate(338.5,564.17) scale(1.8805) rotate(0)"><rect width="2" height="20" fill="#faf6f7"/><rect x="4" width="2" height="20" fill="#faf6f7"/><rect x="8" width="2" height="20" fill="#faf6f7"/><rect x="12" width="2" height="20" fill="#faf6f7"/><rect x="16" width="2" height="20" fill="#faf6f7"/></g><rect x="526.5555555555557" y="526.5555555555557" width="75.22222222222223" height="75.22222222222223" fill="#fffafa"/><g transform="translate(526.56,526.56) scale(1.8805) rotate(0)"><path d="M5 0H10L5 5L0 10V5L5 0Z" fill="#fcded8"/><path d="M20 15V20H15L20 15Z" fill="#fcded8"/><path d="M20 5V10L15 15L10 20H5L20 5Z" fill="#fcded8"/><path d="M15 0H20L5 15.0002L0 20.0002V15.0002L15 0Z" fill="#fcded8"/></g><g transform="translate(564.17,526.56) scale(1.8805) rotate(0)"><rect width="20" height="2" fill="#d5dde4"/><rect y="4" width="20" height="2" fill="#d5dde4"/><rect y="8" width="20" height="2" fill="#d5dde4"/><rect y="12" width="20" height="2" fill="#d5dde4"/><rect y="16" width="20" height="2" fill="#d5dde4"/></g><rect x="677" y="526.5555555555557" width="75.22222222222223" height="75.22222222222223" fill="#fffafa"/><g transform="translate(677,526.56) scale(1.8805) rotate(0)"><rect width="2" height="20" fill="#f2f1f3"/><rect x="4" width="2" height="20" fill="#f2f1f3"/><rect x="8" width="2" height="20" fill="#f2f1f3"/><rect x="12" width="2" height="20" fill="#f2f1f3"/><rect x="16" width="2" height="20" fill="#f2f1f3"/></g><rect x="714.61" y="526.56" width="37.61" height="37.61" fill="#f8beb0"/><g transform="translate(714.61,564.17) scale(1.8805) rotate(0)"><path d="M10 0H20L0 20V10L10 0Z" fill="#eaebef"/><path d="M20 10V20H10L20 10Z" fill="#eaebef"/></g><rect x="752.2222222222223" y="526.5555555555557" width="75.22222222222223" height="75.22222222222223" fill="#fffafa"/><rect x="752.22" y="526.56" width="37.61" height="37.61" fill="#f7b8aa"/><rect x="752.22" y="564.17" width="37.61" height="37.61" fill="#fce1dc"/><rect x="827.4444444444446" y="526.5555555555557" width="75.22222222222223" height="75.22222222222223" fill="#fffafa"/><g transform="translate(827.44,526.56) scale(1.8805) rotate(0)"><rect width="2" height="20" fill="#c4d0da"/><rect x="4" width="2" height="20" fill="#c4d0da"/><rect x="8" width="2" height="20" fill="#c4d0da"/><rect x="12" width="2" height="20" fill="#c4d0da"/><rect x="16" width="2" height="20" fill="#c4d0da"/></g><g transform="translate(865.06,526.56) scale(1.8805) rotate(0)"><path d="M5 0H10L5 5L0 10V5L5 0Z" fill="#ef7457"/><path d="M20 15V20H15L20 15Z" fill="#ef7457"/><path d="M20 5V10L15 15L10 20H5L20 5Z" fill="#ef7457"/><path d="M15 0H20L5 15.0002L0 20.0002V15.0002L15 0Z" fill="#ef7457"/></g><rect x="827.44" y="564.17" width="37.61" height="37.61" fill="#cdd7df"/><rect x="902.6666666666667" y="526.5555555555557" width="75.22222222222223" height="75.22222222222223" fill="#fffafa"/><rect x="902.67" y="526.56" width="37.61" height="37.61" fill="#f6ad9c"/><g transform="translate(940.28,526.56) scale(1.8805) rotate(0)"><path d="M10 0H20L0 20V10L10 0Z" fill="#ecedf0"/><path d="M20 10V20H10L20 10Z" fill="#ecedf0"/></g><g transform="translate(902.67,564.17) scale(1.8805) rotate(0)"><path d="M10 0H20L0 20V10L10 0Z" fill="#f07a5f"/><path d="M20 10V20H10L20 10Z" fill="#f07a5f"/></g><g transform="translate(940.28,564.17) scale(1.8805) rotate(0)"><path d="M5 0H10L5 5L0 10V5L5 0Z" fill="#a6bccb"/><path d="M20 15V20H15L20 15Z" fill="#a6bccb"/><path d="M20 5V10L15 15L10 20H5L20 5Z" fill="#a6bccb"/><path d="M15 0H20L5 15.0002L0 20.0002V15.0002L15 0Z" fill="#a6bccb"/></g><rect x="1053.1111111111113" y="526.5555555555557" width="75.22222222222223" height="75.22222222222223" fill="#fffafa"/><rect x="1053.11" y="526.56" width="37.61" height="37.61" fill="#cfd8e0"/><g transform="translate(1090.72,526.56) scale(1.8805) rotate(0)"><path d="M10 0H20L0 20V10L10 0Z" fill="#f2917a"/><path d="M20 10V20H10L20 10Z" fill="#f2917a"/></g><g transform="translate(1053.11,564.17) scale(1.8805) rotate(0)"><rect width="2" height="20" fill="#ef7153"/><rect x="4" width="2" height="20" fill="#ef7153"/><rect x="8" width="2" height="20" fill="#ef7153"/><rect x="12" width="2" height="20" fill="#ef7153"/><rect x="16" width="2" height="20" fill="#ef7153"/></g><rect x="0" y="601.7777777777778" width="75.22222222222223" height="75.22222222222223" fill="#fffafa"/><g transform="translate(0,601.78) scale(1.8805) rotate(0)"><rect width="2" height="20" fill="#fcdfd9"/><rect x="4" width="2" height="20" fill="#fcdfd9"/><rect x="8" width="2" height="20" fill="#fcdfd9"/><rect x="12" width="2" height="20" fill="#fcdfd9"/><rect x="16" width="2" height="20" fill="#fcdfd9"/></g><g transform="translate(37.61,601.78) scale(1.8805) rotate(0)"><rect width="20" height="2" fill="#f5a694"/><rect y="4" width="20" height="2" fill="#f5a694"/><rect y="8" width="20" height="2" fill="#f5a694"/><rect y="12" width="20" height="2" fill="#f5a694"/><rect y="16" width="20" height="2" fill="#f5a694"/></g><rect x="0" y="639.39" width="37.61" height="37.61" fill="#e4e7ec"/><g transform="translate(37.61,639.39) scale(1.8805) rotate(0)"><path d="M5 0H10L5 5L0 10V5L5 0Z" fill="#f5aa98"/><path d="M20 15V20H15L20 15Z" fill="#f5aa98"/><path d="M20 5V10L15 15L10 20H5L20 5Z" fill="#f5aa98"/><path d="M15 0H20L5 15.0002L0 20.0002V15.0002L15 0Z" fill="#f5aa98"/></g><rect x="75.22222222222223" y="601.7777777777778" width="75.22222222222223" height="75.22222222222223" fill="#fffafa"/><g transform="translate(75.22,601.78) scale(1.8805) rotate(0)"><path d="M10 0H20L0 20V10L10 0Z" fill="#f2f1f3"/><path d="M20 10V20H10L20 10Z" fill="#f2f1f3"/></g><g transform="translate(112.83,601.78) scale(1.8805) rotate(0)"><rect width="2" height="20" fill="#a7bccb"/><rect x="4" width="2" height="20" fill="#a7bccb"/><rect x="8" width="2" height="20" fill="#a7bccb"/><rect x="12" width="2" height="20" fill="#a7bccb"/><rect x="16" width="2" height="20" fill="#a7bccb"/></g><rect x="75.22" y="639.39" width="37.61" height="37.61" fill="#f6af9e"/><g transform="translate(112.83,639.39) scale(1.8805) rotate(0)"><rect width="2" height="20" fill="#fbddd6"/><rect x="4" width="2" height="20" fill="#fbddd6"/><rect x="8" width="2" height="20" fill="#fbddd6"/><rect x="12" width="2" height="20" fill="#fbddd6"/><rect x="16" width="2" height="20" fill="#fbddd6"/></g><rect x="150.44444444444446" y="601.7777777777778" width="75.22222222222223" height="75.22222222222223" fill="#fffafa"/><g transform="translate(188.06,601.78) scale(1.8805) rotate(0)"><rect width="20" height="2" fill="#dde2e8"/><rect y="4" width="20" height="2" fill="#dde2e8"/><rect y="8" width="20" height="2" fill="#dde2e8"/><rect y="12" width="20" height="2" fill="#dde2e8"/><rect y="16" width="20" height="2" fill="#dde2e8"/></g><g transform="translate(150.44,639.39) scale(1.8805) rotate(0)"><path d="M5 0H10L5 5L0 10V5L5 0Z" fill="#f1846b"/><path d="M20 15V20H15L20 15Z" fill="#f1846b"/><path d="M20 5V10L15 15L10 20H5L20 5Z" fill="#f1846b"/><path d="M15 0H20L5 15.0002L0 20.0002V15.0002L15 0Z" fill="#f1846b"/></g><rect x="225.66666666666669" y="601.7777777777778" width="75.22222222222223" height="75.22222222222223" fill="#fffafa"/><g transform="translate(225.67,639.39) scale(1.8805) rotate(0)"><path d="M5 0H10L5 5L0 10V5L5 0Z" fill="#f4f2f4"/><path d="M20 15V20H15L20 15Z" fill="#f4f2f4"/><path d="M20 5V10L15 15L10 20H5L20 5Z" fill="#f4f2f4"/><path d="M15 0H20L5 15.0002L0 20.0002V15.0002L15 0Z" fill="#f4f2f4"/></g><rect x="263.28" y="639.39" width="37.61" height="37.61" fill="#fde5e1"/><rect x="300.8888888888889" y="601.7777777777778" width="75.22222222222223" height="75.22222222222223" fill="#fffafa"/><g transform="translate(338.5,601.78) scale(1.8805) rotate(0)"><rect width="20" height="2" fill="#f08065"/><rect y="4" width="20" height="2" fill="#f08065"/><rect y="8" width="20" height="2" fill="#f08065"/><rect y="12" width="20" height="2" fill="#f08065"/><rect y="16" width="20" height="2" fill="#f08065"/></g><g transform="translate(338.5,639.39) scale(1.8805) rotate(0)"><rect width="2" height="20" fill="#beccd7"/><rect x="4" width="2" height="20" fill="#beccd7"/><rect x="8" width="2" height="20" fill="#beccd7"/><rect x="12" width="2" height="20" fill="#beccd7"/><rect x="16" width="2" height="20" fill="#beccd7"/></g><rect x="376.11111111111114" y="601.7777777777778" width="75.22222222222223" height="75.22222222222223" fill="#fffafa"/><rect x="376.11" y="601.78" width="37.61" height="37.61" fill="#f3f2f4"/><rect x="376.11" y="639.39" width="37.61" height="37.61" fill="#d4dce3"/><rect x="451.33333333333337" y="601.7777777777778" width="75.22222222222223" height="75.22222222222223" fill="#fffafa"/><g transform="translate(451.33,601.78) scale(1.8805) rotate(0)"><rect width="20" height="2" fill="#c0cdd8"/><rect y="4" width="20" height="2" fill="#c0cdd8"/><rect y="8" width="20" height="2" fill="#c0cdd8"/><rect y="12" width="20" height="2" fill="#c0cdd8"/><rect y="16" width="20" height="2" fill="#c0cdd8"/></g><g transform="translate(451.33,639.39) scale(1.8805) rotate(0)"><rect width="20" height="2" fill="#f5aa98"/><rect y="4" width="20" height="2" fill="#f5aa98"/><rect y="8" width="20" height="2" fill="#f5aa98"/><rect y="12" width="20" height="2" fill="#f5aa98"/><rect y="16" width="20" height="2" fill="#f5aa98"/></g><rect x="526.5555555555557" y="601.7777777777778" width="75.22222222222223" height="75.22222222222223" fill="#fffafa"/><g transform="translate(564.17,639.39) scale(1.8805) rotate(0)"><path d="M5 0H10L5 5L0 10V5L5 0Z" fill="#f5f3f4"/><path d="M20 15V20H15L20 15Z" fill="#f5f3f4"/><path d="M20 5V10L15 15L10 20H5L20 5Z" fill="#f5f3f4"/><path d="M15 0H20L5 15.0002L0 20.0002V15.0002L15 0Z" fill="#f5f3f4"/></g><rect x="601.7777777777778" y="601.7777777777778" width="75.22222222222223" height="75.22222222222223" fill="#fffafa"/><g transform="translate(601.78,601.78) scale(1.8805) rotate(0)"><rect width="20" height="2" fill="#f7bbad"/><rect y="4" width="20" height="2" fill="#f7bbad"/><rect y="8" width="20" height="2" fill="#f7bbad"/><rect y="12" width="20" height="2" fill="#f7bbad"/><rect y="16" width="20" height="2" fill="#f7bbad"/></g><g transform="translate(639.39,601.78) scale(1.8805) rotate(0)"><path d="M10 0H20L0 20V10L10 0Z" fill="#c7d2dc"/><path d="M20 10V20H10L20 10Z" fill="#c7d2dc"/></g><g transform="translate(601.78,639.39) scale(1.8805) rotate(0)"><path d="M5 0H10L5 5L0 10V5L5 0Z" fill="#bac9d5"/><path d="M20 15V20H15L20 15Z" fill="#bac9d5"/><path d="M20 5V10L15 15L10 20H5L20 5Z" fill="#bac9d5"/><path d="M15 0H20L5 15.0002L0 20.0002V15.0002L15 0Z" fill="#bac9d5"/></g><g transform="translate(639.39,639.39) scale(1.8805) rotate(0)"><path d="M5 0H10L5 5L0 10V5L5 0Z" fill="#e6e9ed"/><path d="M20 15V20H15L20 15Z" fill="#e6e9ed"/><path d="M20 5V10L15 15L10 20H5L20 5Z" fill="#e6e9ed"/><path d="M15 0H20L5 15.0002L0 20.0002V15.0002L15 0Z" fill="#e6e9ed"/></g><rect x="752.2222222222223" y="601.7777777777778" width="75.22222222222223" height="75.22222222222223" fill="#fffafa"/><g transform="translate(752.22,601.78) scale(1.8805) rotate(0)"><rect width="20" height="2" fill="#d4dce3"/><rect y="4" width="20" height="2" fill="#d4dce3"/><rect y="8" width="20" height="2" fill="#d4dce3"/><rect y="12" width="20" height="2" fill="#d4dce3"/><rect y="16" width="20" height="2" fill="#d4dce3"/></g><g transform="translate(789.83,601.78) scale(1.8805) rotate(0)"><rect width="2" height="20" fill="#ececf0"/><rect x="4" width="2" height="20" fill="#ececf0"/><rect x="8" width="2" height="20" fill="#ececf0"/><rect x="12" width="2" height="20" fill="#ececf0"/><rect x="16" width="2" height="20" fill="#ececf0"/></g><g transform="translate(752.22,639.39) scale(1.8805) rotate(0)"><path d="M5 0H10L5 5L0 10V5L5 0Z" fill="#a4bac9"/><path d="M20 15V20H15L20 15Z" fill="#a4bac9"/><path d="M20 5V10L15 15L10 20H5L20 5Z" fill="#a4bac9"/><path d="M15 0H20L5 15.0002L0 20.0002V15.0002L15 0Z" fill="#a4bac9"/></g><g transform="translate(789.83,639.39) scale(1.8805) rotate(0)"><path d="M10 0H20L0 20V10L10 0Z" fill="#f18970"/><path d="M20 10V20H10L20 10Z" fill="#f18970"/></g><rect x="902.6666666666667" y="601.7777777777778" width="75.22222222222223" height="75.22222222222223" fill="#fffafa"/><g transform="translate(902.67,601.78) scale(1.8805) rotate(0)"><path d="M5 0H10L5 5L0 10V5L5 0Z" fill="#a7bccb"/><path d="M20 15V20H15L20 15Z" fill="#a7bccb"/><path d="M20 5V10L15 15L10 20H5L20 5Z" fill="#a7bccb"/><path d="M15 0H20L5 15.0002L0 20.0002V15.0002L15 0Z" fill="#a7bccb"/></g></g></svg>