<?xml version="1.0" standalone="no"?><svg xmlns:xlink="http://www.w3.org/1999/xlink" xmlns="http://www.w3.org/2000/svg" viewBox="0 0 1000 562.5025964853974" preserveAspectRatio="xMaxYMax slice"><g transform="scale(0.8308753271571601)"><rect x="0" y="0" width="1203.5555555555557" height="677" fill="#fffafa"/><rect x="1053.1111111111113" y="75.22222222222223" width="75.22222222222223" height="75.22222222222223" fill="#fffafa"/><rect x="75.22222222222223" y="150.44444444444446" width="75.22222222222223" height="75.22222222222223" fill="#fffafa"/><rect x="225.66666666666669" y="150.44444444444446" width="75.22222222222223" height="75.22222222222223" fill="#fffafa"/><rect x="526.5555555555557" y="150.44444444444446" width="75.22222222222223" height="75.22222222222223" fill="#fffafa"/><rect x="526.56" y="150.44" width="37.61" height="37.61" fill="#e4e7ec"/><rect x="564.17" y="150.44" width="37.61" height="37.61" fill="#96b0c2"/><rect x="564.17" y="188.06" width="37.61" height="37.61" fill="#96b0c2"/><rect x="977.8888888888889" y="150.44444444444446" width="75.22222222222223" height="75.22222222222223" fill="#fffafa"/><rect x="150.44444444444446" y="225.66666666666669" width="75.22222222222223" height="75.22222222222223" fill="#fffafa"/><rect x="150.44" y="225.67" width="37.61" height="37.61" fill="#f8bdaf"/><rect x="188.06" y="225.67" width="37.61" height="37.61" fill="#eaebef"/><rect x="150.44" y="263.28" width="37.61" height="37.61" fill="#d2dae2"/><rect x="601.7777777777778" y="225.66666666666669" width="75.22222222222223" height="75.22222222222223" fill="#fffafa"/><rect x="601.78" y="225.67" width="37.61" height="37.61" fill="#90acbe"/><rect x="639.39" y="225.67" width="37.61" height="37.61" fill="#f4f2f4"/><rect x="827.4444444444446" y="225.66666666666669" width="75.22222222222223" height="75.22222222222223" fill="#fffafa"/><rect x="827.44" y="225.67" width="37.61" height="37.61" fill="#edeef1"/><rect x="827.44" y="263.28" width="37.61" height="37.61" fill="#fdeae6"/><rect x="865.06" y="263.28" width="37.61" height="37.61" fill="#f07a5e"/><rect x="902.6666666666667" y="225.66666666666669" width="75.22222222222223" height="75.22222222222223" fill="#fffafa"/><rect x="902.67" y="263.28" width="37.61" height="37.61" fill="#f1846b"/><rect x="940.28" y="263.28" width="37.61" height="37.61" fill="#f7f4f6"/><rect x="977.8888888888889" y="225.66666666666669" width="75.22222222222223" height="75.22222222222223" fill="#fffafa"/><rect x="1015.5" y="263.28" width="37.61" height="37.61" fill="#dce1e7"/><rect x="75.22222222222223" y="300.8888888888889" width="75.22222222222223" height="75.22222222222223" fill="#fffafa"/><rect x="75.22" y="300.89" width="37.61" height="37.61" fill="#ccd6df"/><rect x="75.22" y="338.5" width="37.61" height="37.61" fill="#fbdbd4"/><rect x="150.44444444444446" y="300.8888888888889" width="75.22222222222223" height="75.22222222222223" fill="#fffafa"/><rect x="150.44" y="300.89" width="37.61" height="37.61" fill="#c3d0da"/><rect x="188.06" y="338.5" width="37.61" height="37.61" fill="#b5c6d2"/><rect x="225.66666666666669" y="300.8888888888889" width="75.22222222222223" height="75.22222222222223" fill="#fffafa"/><rect x="225.67" y="300.89" width="37.61" height="37.61" fill="#bdcbd6"/><rect x="263.28" y="338.5" width="37.61" height="37.61" fill="#fefafa"/><rect x="451.33333333333337" y="300.8888888888889" width="75.22222222222223" height="75.22222222222223" fill="#fffafa"/><rect x="451.33" y="300.89" width="37.61" height="37.61" fill="#b8c8d4"/><rect x="488.94" y="300.89" width="37.61" height="37.61" fill="#f6ac9b"/><rect x="451.33" y="338.5" width="37.61" height="37.61" fill="#fce1db"/><rect x="488.94" y="338.5" width="37.61" height="37.61" fill="#f3927b"/><rect x="601.7777777777778" y="300.8888888888889" width="75.22222222222223" height="75.22222222222223" fill="#fffafa"/><rect x="639.39" y="300.89" width="37.61" height="37.61" fill="#edeef1"/><rect x="752.2222222222223" y="300.8888888888889" width="75.22222222222223" height="75.22222222222223" fill="#fffafa"/><rect x="789.83" y="300.89" width="37.61" height="37.61" fill="#f5a592"/><rect x="752.22" y="338.5" width="37.61" height="37.61" fill="#fde6e1"/><rect x="827.4444444444446" y="300.8888888888889" width="75.22222222222223" height="75.22222222222223" fill="#fffafa"/><rect x="827.44" y="300.89" width="37.61" height="37.61" fill="#facfc5"/><rect x="977.8888888888889" y="300.8888888888889" width="75.22222222222223" height="75.22222222222223" fill="#fffafa"/><rect x="1015.5" y="300.89" width="37.61" height="37.61" fill="#f6ae9e"/><rect x="1128.3333333333335" y="300.8888888888889" width="75.22222222222223" height="75.22222222222223" fill="#fffafa"/><rect x="1128.33" y="300.89" width="37.61" height="37.61" fill="#97b1c2"/><rect x="75.22222222222223" y="376.11111111111114" width="75.22222222222223" height="75.22222222222223" fill="#fffafa"/><rect x="75.22" y="376.11" width="37.61" height="37.61" fill="#f6b09f"/><rect x="75.22" y="413.72" width="37.61" height="37.61" fill="#ededf0"/><rect x="150.44444444444446" y="376.11111111111114" width="75.22222222222223" height="75.22222222222223" fill="#fffafa"/><rect x="150.44" y="376.11" width="37.61" height="37.61" fill="#a7bccb"/><rect x="188.06" y="376.11" width="37.61" height="37.61" fill="#f4a08d"/><rect x="150.44" y="413.72" width="37.61" height="37.61" fill="#f8c0b3"/><rect x="188.06" y="413.72" width="37.61" height="37.61" fill="#ef7355"/><rect x="225.66666666666669" y="376.11111111111114" width="75.22222222222223" height="75.22222222222223" fill="#fffafa"/><rect x="225.67" y="413.72" width="37.61" height="37.61" fill="#f0795d"/><rect x="300.8888888888889" y="376.11111111111114" width="75.22222222222223" height="75.22222222222223" fill="#fffafa"/><rect x="300.89" y="376.11" width="37.61" height="37.61" fill="#ef7052"/><rect x="338.5" y="376.11" width="37.61" height="37.61" fill="#e5e7ec"/><rect x="300.89" y="413.72" width="37.61" height="37.61" fill="#ee6f51"/><rect x="451.33333333333337" y="376.11111111111114" width="75.22222222222223" height="75.22222222222223" fill="#fffafa"/><rect x="488.94" y="376.11" width="37.61" height="37.61" fill="#f1f0f3"/><rect x="451.33" y="413.72" width="37.61" height="37.61" fill="#facec4"/><rect x="488.94" y="413.72" width="37.61" height="37.61" fill="#d6dde4"/><rect x="677" y="376.11111111111114" width="75.22222222222223" height="75.22222222222223" fill="#fffafa"/><rect x="677" y="376.11" width="37.61" height="37.61" fill="#fce2dd"/><rect x="714.61" y="376.11" width="37.61" height="37.61" fill="#fce5e0"/><rect x="714.61" y="413.72" width="37.61" height="37.61" fill="#f5aa99"/><rect x="752.2222222222223" y="376.11111111111114" width="75.22222222222223" height="75.22222222222223" fill="#fffafa"/><rect x="789.83" y="376.11" width="37.61" height="37.61" fill="#fce4df"/><rect x="752.22" y="413.72" width="37.61" height="37.61" fill="#fdf8f9"/><rect x="789.83" y="413.72" width="37.61" height="37.61" fill="#9eb5c6"/><rect x="827.4444444444446" y="376.11111111111114" width="75.22222222222223" height="75.22222222222223" fill="#fffafa"/><rect x="865.06" y="376.11" width="37.61" height="37.61" fill="#f28c75"/><rect x="865.06" y="413.72" width="37.61" height="37.61" fill="#b1c3d0"/><rect x="977.8888888888889" y="376.11111111111114" width="75.22222222222223" height="75.22222222222223" fill="#fffafa"/><rect x="977.89" y="376.11" width="37.61" height="37.61" fill="#fef1ef"/><rect x="1015.5" y="376.11" width="37.61" height="37.61" fill="#f39680"/><rect x="977.89" y="413.72" width="37.61" height="37.61" fill="#fef5f4"/><rect x="1015.5" y="413.72" width="37.61" height="37.61" fill="#ededf0"/><rect x="1053.1111111111113" y="376.11111111111114" width="75.22222222222223" height="75.22222222222223" fill="#fffafa"/><rect x="1053.11" y="376.11" width="37.61" height="37.61" fill="#d3dbe3"/><rect x="1090.72" y="376.11" width="37.61" height="37.61" fill="#f7b5a5"/><rect x="1090.72" y="413.72" width="37.61" height="37.61" fill="#dee3e9"/><rect x="1128.3333333333335" y="376.11111111111114" width="75.22222222222223" height="75.22222222222223" fill="#fffafa"/><rect x="0" y="451.33333333333337" width="75.22222222222223" height="75.22222222222223" fill="#fffafa"/><rect x="0" y="451.33" width="37.61" height="37.61" fill="#f18267"/><rect x="37.61" y="451.33" width="37.61" height="37.61" fill="#dee3e9"/><rect x="0" y="488.94" width="37.61" height="37.61" fill="#ededf0"/><rect x="37.61" y="488.94" width="37.61" height="37.61" fill="#f1846a"/><rect x="75.22222222222223" y="451.33333333333337" width="75.22222222222223" height="75.22222222222223" fill="#fffafa"/><rect x="75.22" y="451.33" width="37.61" height="37.61" fill="#f9f6f7"/><rect x="75.22" y="488.94" width="37.61" height="37.61" fill="#dbe1e7"/><rect x="112.83" y="488.94" width="37.61" height="37.61" fill="#dfe4e9"/><rect x="150.44444444444446" y="451.33333333333337" width="75.22222222222223" height="75.22222222222223" fill="#fffafa"/><rect x="150.44" y="451.33" width="37.61" height="37.61" fill="#ebecef"/><rect x="150.44" y="488.94" width="37.61" height="37.61" fill="#f18268"/><rect x="300.8888888888889" y="451.33333333333337" width="75.22222222222223" height="75.22222222222223" fill="#fffafa"/><rect x="300.89" y="488.94" width="37.61" height="37.61" fill="#dee2e8"/><rect x="338.5" y="488.94" width="37.61" height="37.61" fill="#e8eaee"/><rect x="376.11111111111114" y="451.33333333333337" width="75.22222222222223" height="75.22222222222223" fill="#fffafa"/><rect x="376.11" y="451.33" width="37.61" height="37.61" fill="#f49f8b"/><rect x="376.11" y="488.94" width="37.61" height="37.61" fill="#ee7052"/><rect x="451.33333333333337" y="451.33333333333337" width="75.22222222222223" height="75.22222222222223" fill="#fffafa"/><rect x="488.94" y="451.33" width="37.61" height="37.61" fill="#dee2e8"/><rect x="451.33" y="488.94" width="37.61" height="37.61" fill="#f7f4f6"/><rect x="488.94" y="488.94" width="37.61" height="37.61" fill="#f6b09f"/><rect x="526.5555555555557" y="451.33333333333337" width="75.22222222222223" height="75.22222222222223" fill="#fffafa"/><rect x="526.56" y="451.33" width="37.61" height="37.61" fill="#f39a84"/><rect x="526.56" y="488.94" width="37.61" height="37.61" fill="#ced8e0"/><rect x="564.17" y="488.94" width="37.61" height="37.61" fill="#fef4f2"/><rect x="601.7777777777778" y="451.33333333333337" width="75.22222222222223" height="75.22222222222223" fill="#fffafa"/><rect x="601.78" y="451.33" width="37.61" height="37.61" fill="#ced7e0"/><rect x="639.39" y="451.33" width="37.61" height="37.61" fill="#bdccd7"/><rect x="601.78" y="488.94" width="37.61" height="37.61" fill="#fffafa"/><rect x="639.39" y="488.94" width="37.61" height="37.61" fill="#f9cabf"/><rect x="677" y="451.33333333333337" width="75.22222222222223" height="75.22222222222223" fill="#fffafa"/><rect x="714.61" y="451.33" width="37.61" height="37.61" fill="#9ab3c4"/><rect x="677" y="488.94" width="37.61" height="37.61" fill="#facfc6"/><rect x="827.4444444444446" y="451.33333333333337" width="75.22222222222223" height="75.22222222222223" fill="#fffafa"/><rect x="827.44" y="451.33" width="37.61" height="37.61" fill="#f28c74"/><rect x="865.06" y="451.33" width="37.61" height="37.61" fill="#ef7456"/><rect x="827.44" y="488.94" width="37.61" height="37.61" fill="#a8bdcb"/><rect x="865.06" y="488.94" width="37.61" height="37.61" fill="#a6bccb"/><rect x="902.6666666666667" y="451.33333333333337" width="75.22222222222223" height="75.22222222222223" fill="#fffafa"/><rect x="902.67" y="451.33" width="37.61" height="37.61" fill="#facdc3"/><rect x="940.28" y="451.33" width="37.61" height="37.61" fill="#f1846b"/><rect x="902.67" y="488.94" width="37.61" height="37.61" fill="#f5a896"/><rect x="1053.1111111111113" y="451.33333333333337" width="75.22222222222223" height="75.22222222222223" fill="#fffafa"/><rect x="1090.72" y="451.33" width="37.61" height="37.61" fill="#e8eaee"/><rect x="1053.11" y="488.94" width="37.61" height="37.61" fill="#b1c3d0"/><rect x="1090.72" y="488.94" width="37.61" height="37.61" fill="#dae0e6"/><rect x="1128.3333333333335" y="451.33333333333337" width="75.22222222222223" height="75.22222222222223" fill="#fffafa"/><rect x="1165.94" y="451.33" width="37.61" height="37.61" fill="#f49e8a"/><rect x="1128.33" y="488.94" width="37.61" height="37.61" fill="#f39883"/><rect x="1165.94" y="488.94" width="37.61" height="37.61" fill="#eaebef"/><rect x="0" y="526.5555555555557" width="75.22222222222223" height="75.22222222222223" fill="#fffafa"/><rect x="0" y="526.56" width="37.61" height="37.61" fill="#abbfcd"/><rect x="37.61" y="526.56" width="37.61" height="37.61" fill="#f3937c"/><rect x="0" y="564.17" width="37.61" height="37.61" fill="#fff7f6"/><rect x="37.61" y="564.17" width="37.61" height="37.61" fill="#f8bfb2"/><rect x="75.22222222222223" y="526.5555555555557" width="75.22222222222223" height="75.22222222222223" fill="#fffafa"/><rect x="75.22" y="526.56" width="37.61" height="37.61" fill="#f7b6a7"/><rect x="112.83" y="526.56" width="37.61" height="37.61" fill="#fbd7cf"/><rect x="75.22" y="564.17" width="37.61" height="37.61" fill="#abbfcd"/><rect x="112.83" y="564.17" width="37.61" height="37.61" fill="#f07e63"/><rect x="150.44444444444446" y="526.5555555555557" width="75.22222222222223" height="75.22222222222223" fill="#fffafa"/><rect x="150.44" y="526.56" width="37.61" height="37.61" fill="#fef9f9"/><rect x="188.06" y="526.56" width="37.61" height="37.61" fill="#fef3f1"/><rect x="150.44" y="564.17" width="37.61" height="37.61" fill="#f9cbc1"/><rect x="188.06" y="564.17" width="37.61" height="37.61" fill="#acc0ce"/><rect x="225.66666666666669" y="526.5555555555557" width="75.22222222222223" height="75.22222222222223" fill="#fffafa"/><rect x="225.67" y="526.56" width="37.61" height="37.61" fill="#f8c0b4"/><rect x="263.28" y="526.56" width="37.61" height="37.61" fill="#f9ccc2"/><rect x="225.67" y="564.17" width="37.61" height="37.61" fill="#bac9d5"/><rect x="263.28" y="564.17" width="37.61" height="37.61" fill="#f5a693"/><rect x="300.8888888888889" y="526.5555555555557" width="75.22222222222223" height="75.22222222222223" fill="#fffafa"/><rect x="300.89" y="526.56" width="37.61" height="37.61" fill="#d7dee5"/><rect x="338.5" y="526.56" width="37.61" height="37.61" fill="#f49e8a"/><rect x="300.89" y="564.17" width="37.61" height="37.61" fill="#bdccd7"/><rect x="338.5" y="564.17" width="37.61" height="37.61" fill="#f5a28f"/><rect x="451.33333333333337" y="526.5555555555557" width="75.22222222222223" height="75.22222222222223" fill="#fffafa"/><rect x="451.33" y="526.56" width="37.61" height="37.61" fill="#f6b1a1"/><rect x="488.94" y="526.56" width="37.61" height="37.61" fill="#f7baac"/><rect x="451.33" y="564.17" width="37.61" height="37.61" fill="#fdedea"/><rect x="488.94" y="564.17" width="37.61" height="37.61" fill="#bacad5"/><rect x="526.5555555555557" y="526.5555555555557" width="75.22222222222223" height="75.22222222222223" fill="#fffafa"/><rect x="526.56" y="526.56" width="37.61" height="37.61" fill="#f9cac0"/><rect x="564.17" y="526.56" width="37.61" height="37.61" fill="#99b2c3"/><rect x="526.56" y="564.17" width="37.61" height="37.61" fill="#fbd9d1"/><rect x="564.17" y="564.17" width="37.61" height="37.61" fill="#ee6c4d"/><rect x="601.7777777777778" y="526.5555555555557" width="75.22222222222223" height="75.22222222222223" fill="#fffafa"/><rect x="601.78" y="526.56" width="37.61" height="37.61" fill="#e2e6eb"/><rect x="639.39" y="526.56" width="37.61" height="37.61" fill="#f5a390"/><rect x="601.78" y="564.17" width="37.61" height="37.61" fill="#f6ae9e"/><rect x="639.39" y="564.17" width="37.61" height="37.61" fill="#f49a85"/><rect x="752.2222222222223" y="526.5555555555557" width="75.22222222222223" height="75.22222222222223" fill="#fffafa"/><rect x="752.22" y="526.56" width="37.61" height="37.61" fill="#f5a491"/><rect x="789.83" y="526.56" width="37.61" height="37.61" fill="#facdc3"/><rect x="752.22" y="564.17" width="37.61" height="37.61" fill="#f8bfb2"/><rect x="789.83" y="564.17" width="37.61" height="37.61" fill="#d3dbe3"/><rect x="827.4444444444446" y="526.5555555555557" width="75.22222222222223" height="75.22222222222223" fill="#fffafa"/><rect x="827.44" y="526.56" width="37.61" height="37.61" fill="#f49c88"/><rect x="865.06" y="526.56" width="37.61" height="37.61" fill="#fbdbd4"/><rect x="827.44" y="564.17" width="37.61" height="37.61" fill="#a1b8c8"/><rect x="865.06" y="564.17" width="37.61" height="37.61" fill="#f8c1b5"/><rect x="977.8888888888889" y="526.5555555555557" width="75.22222222222223" height="75.22222222222223" fill="#fffafa"/><rect x="977.89" y="526.56" width="37.61" height="37.61" fill="#fbdbd4"/><rect x="1015.5" y="526.56" width="37.61" height="37.61" fill="#f8beb1"/><rect x="977.89" y="564.17" width="37.61" height="37.61" fill="#e2e5ea"/><rect x="1015.5" y="564.17" width="37.61" height="37.61" fill="#faf6f7"/><rect x="1053.1111111111113" y="526.5555555555557" width="75.22222222222223" height="75.22222222222223" fill="#fffafa"/><rect x="1053.11" y="526.56" width="37.61" height="37.61" fill="#f8c1b5"/><rect x="1090.72" y="526.56" width="37.61" height="37.61" fill="#fad1c8"/><rect x="1053.11" y="564.17" width="37.61" height="37.61" fill="#fef4f2"/><rect x="1090.72" y="564.17" width="37.61" height="37.61" fill="#f8bdb0"/><rect x="1128.3333333333335" y="526.5555555555557" width="75.22222222222223" height="75.22222222222223" fill="#fffafa"/><rect x="1128.33" y="526.56" width="37.61" height="37.61" fill="#f7b9ab"/><rect x="1165.94" y="526.56" width="37.61" height="37.61" fill="#f7b6a7"/><rect x="1128.33" y="564.17" width="37.61" height="37.61" fill="#f8bdaf"/><rect x="1165.94" y="564.17" width="37.61" height="37.61" fill="#f3957f"/><rect x="0" y="601.7777777777778" width="75.22222222222223" height="75.22222222222223" fill="#fffafa"/><rect x="0" y="601.78" width="37.61" height="37.61" fill="#bac9d5"/><rect x="37.61" y="601.78" width="37.61" height="37.61" fill="#ee6c4d"/><rect x="0" y="639.39" width="37.61" height="37.61" fill="#facdc3"/><rect x="37.61" y="639.39" width="37.61" height="37.61" fill="#f5a795"/><rect x="75.22222222222223" y="601.7777777777778" width="75.22222222222223" height="75.22222222222223" fill="#fffafa"/><rect x="75.22" y="601.78" width="37.61" height="37.61" fill="#ee6d4e"/><rect x="112.83" y="601.78" width="37.61" height="37.61" fill="#dae0e6"/><rect x="75.22" y="639.39" width="37.61" height="37.61" fill="#f9c7bc"/><rect x="112.83" y="639.39" width="37.61" height="37.61" fill="#c7d3dc"/><rect x="150.44444444444446" y="601.7777777777778" width="75.22222222222223" height="75.22222222222223" fill="#fffafa"/><rect x="150.44" y="601.78" width="37.61" height="37.61" fill="#ee6c4d"/><rect x="188.06" y="601.78" width="37.61" height="37.61" fill="#9eb6c6"/><rect x="150.44" y="639.39" width="37.61" height="37.61" fill="#fad3cb"/><rect x="188.06" y="639.39" width="37.61" height="37.61" fill="#f7b4a5"/><rect x="225.66666666666669" y="601.7777777777778" width="75.22222222222223" height="75.22222222222223" fill="#fffafa"/><rect x="225.67" y="601.78" width="37.61" height="37.61" fill="#f6f4f5"/><rect x="263.28" y="601.78" width="37.61" height="37.61" fill="#91acbf"/><rect x="225.67" y="639.39" width="37.61" height="37.61" fill="#d5dce3"/><rect x="263.28" y="639.39" width="37.61" height="37.61" fill="#d9dfe6"/><rect x="300.8888888888889" y="601.7777777777778" width="75.22222222222223" height="75.22222222222223" fill="#fffafa"/><rect x="300.89" y="601.78" width="37.61" height="37.61" fill="#dbe1e7"/><rect x="338.5" y="601.78" width="37.61" height="37.61" fill="#f9f6f7"/><rect x="300.89" y="639.39" width="37.61" height="37.61" fill="#b8c8d4"/><rect x="338.5" y="639.39" width="37.61" height="37.61" fill="#f5a896"/><rect x="376.11111111111114" y="601.7777777777778" width="75.22222222222223" height="75.22222222222223" fill="#fffafa"/><rect x="376.11" y="601.78" width="37.61" height="37.61" fill="#f9c5ba"/><rect x="413.72" y="601.78" width="37.61" height="37.61" fill="#f07c60"/><rect x="376.11" y="639.39" width="37.61" height="37.61" fill="#f5a794"/><rect x="413.72" y="639.39" width="37.61" height="37.61" fill="#93aec0"/><rect x="451.33333333333337" y="601.7777777777778" width="75.22222222222223" height="75.22222222222223" fill="#fffafa"/><rect x="451.33" y="601.78" width="37.61" height="37.61" fill="#e4e7eb"/><rect x="488.94" y="601.78" width="37.61" height="37.61" fill="#ee6f51"/><rect x="451.33" y="639.39" width="37.61" height="37.61" fill="#fbd8d0"/><rect x="488.94" y="639.39" width="37.61" height="37.61" fill="#fcddd6"/><rect x="526.5555555555557" y="601.7777777777778" width="75.22222222222223" height="75.22222222222223" fill="#fffafa"/><rect x="526.56" y="601.78" width="37.61" height="37.61" fill="#d2dae2"/><rect x="564.17" y="601.78" width="37.61" height="37.61" fill="#fbd9d2"/><rect x="526.56" y="639.39" width="37.61" height="37.61" fill="#fef6f5"/><rect x="564.17" y="639.39" width="37.61" height="37.61" fill="#b4c5d2"/><rect x="601.7777777777778" y="601.7777777777778" width="75.22222222222223" height="75.22222222222223" fill="#fffafa"/><rect x="601.78" y="601.78" width="37.61" height="37.61" fill="#acc0ce"/><rect x="639.39" y="601.78" width="37.61" height="37.61" fill="#f5a694"/><rect x="601.78" y="639.39" width="37.61" height="37.61" fill="#ececf0"/><rect x="639.39" y="639.39" width="37.61" height="37.61" fill="#ececf0"/><rect x="677" y="601.7777777777778" width="75.22222222222223" height="75.22222222222223" fill="#fffafa"/><rect x="677" y="601.78" width="37.61" height="37.61" fill="#d4dce3"/><rect x="714.61" y="601.78" width="37.61" height="37.61" fill="#facfc6"/><rect x="677" y="639.39" width="37.61" height="37.61" fill="#e8e9ed"/><rect x="714.61" y="639.39" width="37.61" height="37.61" fill="#9ab3c4"/><rect x="752.2222222222223" y="601.7777777777778" width="75.22222222222223" height="75.22222222222223" fill="#fffafa"/><rect x="752.22" y="601.78" width="37.61" height="37.61" fill="#a0b7c7"/><rect x="789.83" y="601.78" width="37.61" height="37.61" fill="#a1b8c8"/><rect x="752.22" y="639.39" width="37.61" height="37.61" fill="#f07f64"/><rect x="789.83" y="639.39" width="37.61" height="37.61" fill="#f6b1a2"/><rect x="827.4444444444446" y="601.7777777777778" width="75.22222222222223" height="75.22222222222223" fill="#fffafa"/><rect x="827.44" y="601.78" width="37.61" height="37.61" fill="#f1f0f2"/><rect x="865.06" y="601.78" width="37.61" height="37.61" fill="#fef3f1"/><rect x="827.44" y="639.39" width="37.61" height="37.61" fill="#a1b8c8"/><rect x="865.06" y="639.39" width="37.61" height="37.61" fill="#ee6d4e"/><rect x="902.6666666666667" y="601.7777777777778" width="75.22222222222223" height="75.22222222222223" fill="#fffafa"/><rect x="902.67" y="601.78" width="37.61" height="37.61" fill="#fff8f8"/><rect x="940.28" y="601.78" width="37.61" height="37.61" fill="#fbdcd5"/><rect x="902.67" y="639.39" width="37.61" height="37.61" fill="#a5baca"/><rect x="940.28" y="639.39" width="37.61" height="37.61" fill="#f28d75"/><rect x="977.8888888888889" y="601.7777777777778" width="75.22222222222223" height="75.22222222222223" fill="#fffafa"/><rect x="977.89" y="601.78" width="37.61" height="37.61" fill="#cad4dd"/><rect x="1015.5" y="601.78" width="37.61" height="37.61" fill="#bccbd6"/><rect x="977.89" y="639.39" width="37.61" height="37.61" fill="#fdeae7"/><rect x="1015.5" y="639.39" width="37.61" height="37.61" fill="#abbecd"/><rect x="1053.1111111111113" y="601.7777777777778" width="75.22222222222223" height="75.22222222222223" fill="#fffafa"/><rect x="1053.11" y="601.78" width="37.61" height="37.61" fill="#e1e5ea"/><rect x="1090.72" y="601.78" width="37.61" height="37.61" fill="#d2dbe2"/><rect x="1053.11" y="639.39" width="37.61" height="37.61" fill="#fbf7f8"/><rect x="1090.72" y="639.39" width="37.61" height="37.61" fill="#f6b09f"/><rect x="1128.3333333333335" y="601.7777777777778" width="75.22222222222223" height="75.22222222222223" fill="#fffafa"/><rect x="1128.33" y="601.78" width="37.61" height="37.61" fill="#fbd7cf"/><rect x="1165.94" y="601.78" width="37.61" height="37.61" fill="#f0eff2"/><rect x="1128.33" y="639.39" width="37.61" height="37.61" fill="#e9ebee"/><rect x="1165.94" y="639.39" width="37.61" height="37.61" fill="#97b1c2"/></g></svg>