<?xml version="1.0" standalone="no"?><svg xmlns:xlink="http://www.w3.org/1999/xlink" xmlns="http://www.w3.org/2000/svg" viewBox="0 0 1920 1080.004985251963" preserveAspectRatio="xMaxYMax slice"><g transform="scale(1.5952806281417473)"><rect x="0" y="0" width="1203.5555555555557" height="677" fill="#ffffff"/><rect x="0" y="0" width="75.22" height="75.22" fill="#f1876e"/><polygon points="75.22,0 75.22,75.22 0,75.22" fill="#f28b73"/><rect x="75.22" y="0" width="75.22" height="75.22" fill="#fef4f2"/><polygon points="150.44,0 150.44,75.22 75.22,75.22" fill="#d1dce4"/><rect x="150.44" y="0" width="75.22" height="75.22" fill="#f8c3b7"/><polygon points="150.44,0 225.66,75.22 150.44,75.22" fill="#fef5f3"/><rect x="225.67" y="0" width="75.22" height="75.22" fill="#f1866d"/><polygon points="300.89,0 300.89,75.22 225.67,75.22" fill="#99b2c4"/><rect x="300.8888888888889" y="0" width="75.22222222222223" height="75.22222222222223" fill="#ffffff"/><rect x="300.89" y="0" width="37.61" height="37.61" fill="#ee6d4e"/><polygon points="300.89,0 338.5,0 300.89,37.61" fill="#fbd9d1"/><rect x="338.5" y="0" width="37.61" height="37.61" fill="#dbe4ea"/><polygon points="376.11,0 376.11,37.61 338.5,37.61" fill="#e4ebef"/><rect x="300.89" y="37.61" width="37.61" height="37.61" fill="#f07d61"/><polygon points="338.5,37.61 338.5,75.22 300.89,75.22" fill="#d2dde5"/><rect x="338.5" y="37.61" width="37.61" height="37.61" fill="#92adc0"/><polygon points="338.5,37.61 376.11,37.61 376.11,75.22" fill="#f49e89"/><rect x="376.11111111111114" y="0" width="75.22222222222223" height="75.22222222222223" fill="#ffffff"/><rect x="376.11" y="0" width="37.61" height="37.61" fill="#f5ab99"/><polygon points="376.11,0 413.72,37.61 376.11,37.61" fill="#fbe0da"/><rect x="413.72" y="0" width="37.61" height="37.61" fill="#eef2f5"/><polygon points="413.72,0 451.33000000000004,0 451.33000000000004,37.61" fill="#fffbfa"/><rect x="376.11" y="37.61" width="37.61" height="37.61" fill="#9eb6c7"/><polygon points="376.11,37.61 413.72,37.61 376.11,75.22" fill="#fdf1ee"/><rect x="413.72" y="37.61" width="37.61" height="37.61" fill="#f6ae9e"/><polygon points="413.72,37.61 451.33000000000004,37.61 451.33000000000004,75.22" fill="#f2927a"/><rect x="451.33" y="0" width="75.22" height="75.22" fill="#f29078"/><polygon points="451.33,0 526.55,0 451.33,75.22" fill="#f7b9aa"/><rect x="526.56" y="0" width="75.22" height="75.22" fill="#fffffe"/><polygon points="526.56,0 601.78,75.22 526.56,75.22" fill="#f7baab"/><rect x="601.78" y="0" width="75.22" height="75.22" fill="#edf2f5"/><polygon points="601.78,0 677,0 601.78,75.22" fill="#fefefe"/><rect x="677" y="0" width="75.22" height="75.22" fill="#f5a795"/><polygon points="677,0 752.22,0 677,75.22" fill="#f28a72"/><rect x="752.22" y="0" width="75.22" height="75.22" fill="#f5ab99"/><polygon points="827.44,0 827.44,75.22 752.22,75.22" fill="#f07b60"/><rect x="827.44" y="0" width="75.22" height="75.22" fill="#eff3f6"/><polygon points="902.6600000000001,0 902.6600000000001,75.22 827.44,75.22" fill="#ef7659"/><rect x="902.67" y="0" width="75.22" height="75.22" fill="#f28e76"/><polygon points="902.67,0 977.89,75.22 902.67,75.22" fill="#aec2d0"/><rect x="977.8888888888889" y="0" width="75.22222222222223" height="75.22222222222223" fill="#ffffff"/><rect x="977.89" y="0" width="37.61" height="37.61" fill="#9fb7c7"/><polygon points="977.89,0 1015.5,0 977.89,37.61" fill="#fce2dc"/><rect x="1015.5" y="0" width="37.61" height="37.61" fill="#f18267"/><polygon points="1015.5,0 1053.11,0 1015.5,37.61" fill="#fad7cf"/><rect x="977.89" y="37.61" width="37.61" height="37.61" fill="#f1856b"/><polygon points="977.89,37.61 1015.5,37.61 1015.5,75.22" fill="#92adc0"/><rect x="1015.5" y="37.61" width="37.61" height="37.61" fill="#c6d4de"/><polygon points="1015.5,37.61 1053.11,37.61 1053.11,75.22" fill="#f28f78"/><rect x="1053.1111111111113" y="0" width="75.22222222222223" height="75.22222222222223" fill="#ffffff"/><rect x="1053.11" y="0" width="37.61" height="37.61" fill="#d8e2e8"/><polygon points="1053.11,0 1090.7199999999998,37.61 1053.11,37.61" fill="#e1e9ee"/><rect x="1090.72" y="0" width="37.61" height="37.61" fill="#c3d2dc"/><polygon points="1090.72,0 1128.33,0 1128.33,37.61" fill="#e5ecf0"/><rect x="1053.11" y="37.61" width="37.61" height="37.61" fill="#ee6f51"/><polygon points="1053.11,37.61 1090.7199999999998,75.22 1053.11,75.22" fill="#fbdfd9"/><rect x="1090.72" y="37.61" width="37.61" height="37.61" fill="#e9eff2"/><polygon points="1090.72,37.61 1128.33,75.22 1090.72,75.22" fill="#fce4de"/><rect x="1128.3333333333335" y="0" width="75.22222222222223" height="75.22222222222223" fill="#ffffff"/><rect x="1128.33" y="0" width="37.61" height="37.61" fill="#fdedea"/><polygon points="1128.33,0 1165.9399999999998,37.61 1128.33,37.61" fill="#f0f4f6"/><rect x="1165.94" y="0" width="37.61" height="37.61" fill="#f8c6ba"/><polygon points="1165.94,0 1203.55,37.61 1165.94,37.61" fill="#e2e9ee"/><rect x="1128.33" y="37.61" width="37.61" height="37.61" fill="#f07a5e"/><polygon points="1128.33,37.61 1165.9399999999998,75.22 1128.33,75.22" fill="#f4a28e"/><rect x="1165.94" y="37.61" width="37.61" height="37.61" fill="#f1846a"/><polygon points="1165.94,37.61 1203.55,75.22 1165.94,75.22" fill="#f1866d"/><rect x="0" y="75.22222222222223" width="75.22222222222223" height="75.22222222222223" fill="#ffffff"/><rect x="0" y="75.22" width="37.61" height="37.61" fill="#e6ecf0"/><polygon points="0,75.22 37.61,112.83 0,112.83" fill="#fffefd"/><rect x="37.61" y="75.22" width="37.61" height="37.61" fill="#dde5eb"/><polygon points="37.61,75.22 75.22,112.83 37.61,112.83" fill="#9eb6c7"/><rect x="0" y="112.83" width="37.61" height="37.61" fill="#f7bdaf"/><polygon points="37.61,112.83 37.61,150.44 0,150.44" fill="#c7d5df"/><rect x="37.61" y="112.83" width="37.61" height="37.61" fill="#eff3f6"/><polygon points="37.61,112.83 75.22,112.83 37.61,150.44" fill="#fdefec"/><rect x="75.22222222222223" y="75.22222222222223" width="75.22222222222223" height="75.22222222222223" fill="#ffffff"/><rect x="75.22" y="75.22" width="37.61" height="37.61" fill="#f4a28f"/><polygon points="75.22,75.22 112.83,75.22 75.22,112.83" fill="#f9cbc0"/><rect x="112.83" y="75.22" width="37.61" height="37.61" fill="#d2dde5"/><polygon points="150.44,75.22 150.44,112.83 112.83,112.83" fill="#fce6e1"/><rect x="75.22" y="112.83" width="37.61" height="37.61" fill="#ef7153"/><polygon points="75.22,112.83 112.83,112.83 112.83,150.44" fill="#f5a693"/><rect x="112.83" y="112.83" width="37.61" height="37.61" fill="#9bb4c5"/><polygon points="112.83,112.83 150.44,112.83 150.44,150.44" fill="#fbd8d0"/><rect x="150.44444444444446" y="75.22222222222223" width="75.22222222222223" height="75.22222222222223" fill="#ffffff"/><rect x="150.44" y="75.22" width="37.61" height="37.61" fill="#fef7f5"/><polygon points="150.44,75.22 188.05,75.22 188.05,112.83" fill="#9bb4c5"/><rect x="188.06" y="75.22" width="37.61" height="37.61" fill="#fce7e2"/><polygon points="188.06,75.22 225.67000000000002,75.22 225.67000000000002,112.83" fill="#f5a491"/><rect x="150.44" y="112.83" width="37.61" height="37.61" fill="#a7bdcc"/><polygon points="150.44,112.83 188.05,150.44 150.44,150.44" fill="#fad7cf"/><rect x="188.06" y="112.83" width="37.61" height="37.61" fill="#f29079"/><polygon points="225.67000000000002,112.83 225.67000000000002,150.44 188.06,150.44" fill="#c3d2dc"/><rect x="225.66666666666669" y="75.22222222222223" width="75.22222222222223" height="75.22222222222223" fill="#ffffff"/><rect x="225.67" y="75.22" width="37.61" height="37.61" fill="#a1b9c9"/><polygon points="225.67,75.22 263.28,75.22 263.28,112.83" fill="#f39983"/><rect x="263.28" y="75.22" width="37.61" height="37.61" fill="#d1dde4"/><polygon points="263.28,75.22 300.89,112.83 263.28,112.83" fill="#fce2dc"/><rect x="225.67" y="112.83" width="37.61" height="37.61" fill="#e8eef2"/><polygon points="263.28,112.83 263.28,150.44 225.67,150.44" fill="#f07a5e"/><rect x="263.28" y="112.83" width="37.61" height="37.61" fill="#fad8d0"/><polygon points="263.28,112.83 300.89,112.83 263.28,150.44" fill="#95b0c2"/><rect x="300.8888888888889" y="75.22222222222223" width="75.22222222222223" height="75.22222222222223" fill="#ffffff"/><rect x="300.89" y="75.22" width="37.61" height="37.61" fill="#f39b86"/><polygon points="338.5,75.22 338.5,112.83 300.89,112.83" fill="#f8c3b7"/><rect x="338.5" y="75.22" width="37.61" height="37.61" fill="#ef7558"/><polygon points="338.5,75.22 376.11,75.22 376.11,112.83" fill="#fdeae6"/><rect x="300.89" y="112.83" width="37.61" height="37.61" fill="#f08065"/><polygon points="300.89,112.83 338.5,150.44 300.89,150.44" fill="#c3d2dc"/><rect x="338.5" y="112.83" width="37.61" height="37.61" fill="#cdd9e2"/><polygon points="376.11,112.83 376.11,150.44 338.5,150.44" fill="#f5f7f9"/><rect x="376.11" y="75.22" width="75.22" height="75.22" fill="#ccd9e2"/><polygon points="376.11,75.22 451.33000000000004,150.44 376.11,150.44" fill="#f9cbc0"/><rect x="451.33" y="75.22" width="75.22" height="75.22" fill="#e7edf1"/><polygon points="526.55,75.22 526.55,150.44 451.33,150.44" fill="#f07c60"/><rect x="526.5555555555557" y="75.22222222222223" width="75.22222222222223" height="75.22222222222223" fill="#ffffff"/><rect x="526.56" y="75.22" width="37.61" height="37.61" fill="#f5ac9b"/><polygon points="526.56,75.22 564.17,75.22 564.17,112.83" fill="#f3947d"/><rect x="564.17" y="75.22" width="37.61" height="37.61" fill="#f18a71"/><polygon points="601.78,75.22 601.78,112.83 564.17,112.83" fill="#fad5cd"/><rect x="526.56" y="112.83" width="37.61" height="37.61" fill="#f07c61"/><polygon points="526.56,112.83 564.17,150.44 526.56,150.44" fill="#f5ab99"/><rect x="564.17" y="112.83" width="37.61" height="37.61" fill="#fce2dc"/><polygon points="564.17,112.83 601.78,150.44 564.17,150.44" fill="#fce4de"/><rect x="601.78" y="75.22" width="75.22" height="75.22" fill="#fce8e3"/><polygon points="601.78,75.22 677,150.44 601.78,150.44" fill="#a4bbca"/><rect x="677" y="75.22" width="75.22" height="75.22" fill="#bacbd7"/><polygon points="677,75.22 752.22,75.22 752.22,150.44" fill="#fad2c9"/><rect x="752.22" y="75.22" width="75.22" height="75.22" fill="#f6b2a1"/><polygon points="752.22,75.22 827.44,150.44 752.22,150.44" fill="#fce4de"/><rect x="827.44" y="75.22" width="75.22" height="75.22" fill="#ebf0f3"/><polygon points="827.44,75.22 902.6600000000001,75.22 827.44,150.44" fill="#9cb5c6"/><rect x="902.6666666666667" y="75.22222222222223" width="75.22222222222223" height="75.22222222222223" fill="#ffffff"/><rect x="902.67" y="75.22" width="37.61" height="37.61" fill="#aec2d0"/><polygon points="902.67,75.22 940.28,112.83 902.67,112.83" fill="#fdece8"/><rect x="940.28" y="75.22" width="37.61" height="37.61" fill="#90abbe"/><polygon points="940.28,75.22 977.89,112.83 940.28,112.83" fill="#fef9f7"/><rect x="902.67" y="112.83" width="37.61" height="37.61" fill="#f9cec4"/><polygon points="902.67,112.83 940.28,112.83 940.28,150.44" fill="#8fabbe"/><rect x="940.28" y="112.83" width="37.61" height="37.61" fill="#f5f7f9"/><polygon points="977.89,112.83 977.89,150.44 940.28,150.44" fill="#f5a693"/><rect x="977.89" y="75.22" width="75.22" height="75.22" fill="#ee6f51"/><polygon points="977.89,75.22 1053.11,150.44 977.89,150.44" fill="#a0b7c8"/><rect x="1053.11" y="75.22" width="75.22" height="75.22" fill="#91adbf"/><polygon points="1053.11,75.22 1128.33,150.44 1053.11,150.44" fill="#dee6ec"/><rect x="1128.3333333333335" y="75.22222222222223" width="75.22222222222223" height="75.22222222222223" fill="#ffffff"/><rect x="1128.33" y="75.22" width="37.61" height="37.61" fill="#fdfdfe"/><polygon points="1128.33,75.22 1165.9399999999998,75.22 1128.33,112.83" fill="#f9cec3"/><rect x="1165.94" y="75.22" width="37.61" height="37.61" fill="#d3dee6"/><polygon points="1165.94,75.22 1203.55,112.83 1165.94,112.83" fill="#fef4f1"/><rect x="1128.33" y="112.83" width="37.61" height="37.61" fill="#fdfefe"/><polygon points="1128.33,112.83 1165.9399999999998,150.44 1128.33,150.44" fill="#edf1f4"/><rect x="1165.94" y="112.83" width="37.61" height="37.61" fill="#c4d2dd"/><polygon points="1203.55,112.83 1203.55,150.44 1165.94,150.44" fill="#f2f5f7"/><rect x="0" y="150.44444444444446" width="75.22222222222223" height="75.22222222222223" fill="#ffffff"/><rect x="0" y="150.44" width="37.61" height="37.61" fill="#ef7659"/><polygon points="37.61,150.44 37.61,188.05 0,188.05" fill="#a9bfcd"/><rect x="37.61" y="150.44" width="37.61" height="37.61" fill="#f9fafb"/><polygon points="75.22,150.44 75.22,188.05 37.61,188.05" fill="#f5a896"/><rect x="0" y="188.06" width="37.61" height="37.61" fill="#a4bbca"/><polygon points="37.61,188.06 37.61,225.67000000000002 0,225.67000000000002" fill="#fef3f1"/><rect x="37.61" y="188.06" width="37.61" height="37.61" fill="#ee6f51"/><polygon points="75.22,188.06 75.22,225.67000000000002 37.61,225.67000000000002" fill="#e4eaef"/><rect x="75.22" y="150.44" width="75.22" height="75.22" fill="#f6b2a1"/><polygon points="75.22,150.44 150.44,150.44 75.22,225.66" fill="#f4a28e"/><rect x="150.44" y="150.44" width="75.22" height="75.22" fill="#f5a997"/><polygon points="225.66,150.44 225.66,225.66 150.44,225.66" fill="#b5c8d4"/><rect x="225.66666666666669" y="150.44444444444446" width="75.22222222222223" height="75.22222222222223" fill="#ffffff"/><rect x="225.67" y="150.44" width="37.61" height="37.61" fill="#f7b9ab"/><polygon points="225.67,150.44 263.28,188.05 225.67,188.05" fill="#f07c61"/><rect x="263.28" y="150.44" width="37.61" height="37.61" fill="#f5f8f9"/><polygon points="300.89,150.44 300.89,188.05 263.28,188.05" fill="#f07a5e"/><rect x="225.67" y="188.06" width="37.61" height="37.61" fill="#a2b9c9"/><polygon points="263.28,188.06 263.28,225.67000000000002 225.67,225.67000000000002" fill="#f18369"/><rect x="263.28" y="188.06" width="37.61" height="37.61" fill="#f28d75"/><polygon points="263.28,188.06 300.89,188.06 263.28,225.67000000000002" fill="#a7bdcc"/><rect x="300.89" y="150.44" width="75.22" height="75.22" fill="#fbdad2"/><polygon points="300.89,150.44 376.11,150.44 376.11,225.66" fill="#f07a5d"/><rect x="376.11111111111114" y="150.44444444444446" width="75.22222222222223" height="75.22222222222223" fill="#ffffff"/><rect x="376.11" y="150.44" width="37.61" height="37.61" fill="#dee6ec"/><polygon points="413.72,150.44 413.72,188.05 376.11,188.05" fill="#96b0c2"/><rect x="413.72" y="150.44" width="37.61" height="37.61" fill="#f6ae9d"/><polygon points="413.72,150.44 451.33000000000004,188.05 413.72,188.05" fill="#f3937c"/><rect x="376.11" y="188.06" width="37.61" height="37.61" fill="#f2927b"/><polygon points="376.11,188.06 413.72,225.67000000000002 376.11,225.67000000000002" fill="#fcfdfd"/><rect x="413.72" y="188.06" width="37.61" height="37.61" fill="#9ab3c4"/><polygon points="413.72,188.06 451.33000000000004,188.06 413.72,225.67000000000002" fill="#d7e1e8"/><rect x="451.33333333333337" y="150.44444444444446" width="75.22222222222223" height="75.22222222222223" fill="#ffffff"/><rect x="451.33" y="150.44" width="37.61" height="37.61" fill="#fce6e1"/><polygon points="451.33,150.44 488.94,188.05 451.33,188.05" fill="#a8becd"/><rect x="488.94" y="150.44" width="37.61" height="37.61" fill="#92adc0"/><polygon points="488.94,150.44 526.55,150.44 488.94,188.05" fill="#ef7153"/><rect x="451.33" y="188.06" width="37.61" height="37.61" fill="#a6bccb"/><polygon points="451.33,188.06 488.94,188.06 488.94,225.67000000000002" fill="#9db5c6"/><rect x="488.94" y="188.06" width="37.61" height="37.61" fill="#e9eff2"/><polygon points="488.94,188.06 526.55,188.06 526.55,225.67000000000002" fill="#fefefe"/><rect x="526.5555555555557" y="150.44444444444446" width="75.22222222222223" height="75.22222222222223" fill="#ffffff"/><rect x="526.56" y="150.44" width="37.61" height="37.61" fill="#fdeae6"/><polygon points="526.56,150.44 564.17,150.44 526.56,188.05" fill="#96b0c2"/><rect x="564.17" y="150.44" width="37.61" height="37.61" fill="#baccd7"/><polygon points="564.17,150.44 601.78,150.44 601.78,188.05" fill="#f08065"/><rect x="526.56" y="188.06" width="37.61" height="37.61" fill="#f7bbac"/><polygon points="564.17,188.06 564.17,225.67000000000002 526.56,225.67000000000002" fill="#fce1db"/><rect x="564.17" y="188.06" width="37.61" height="37.61" fill="#a7bdcc"/><polygon points="564.17,188.06 601.78,225.67000000000002 564.17,225.67000000000002" fill="#fbd9d1"/><rect x="601.78" y="150.44" width="75.22" height="75.22" fill="#e7edf1"/><polygon points="601.78,150.44 677,150.44 677,225.66" fill="#fef8f6"/><rect x="677" y="150.44444444444446" width="75.22222222222223" height="75.22222222222223" fill="#ffffff"/><rect x="677" y="150.44" width="37.61" height="37.61" fill="#f2927b"/><polygon points="677,150.44 714.61,188.05 677,188.05" fill="#f1876e"/><rect x="714.61" y="150.44" width="37.61" height="37.61" fill="#f1876e"/><polygon points="714.61,150.44 752.22,188.05 714.61,188.05" fill="#f7f9fa"/><rect x="677" y="188.06" width="37.61" height="37.61" fill="#f2917a"/><polygon points="677,188.06 714.61,225.67000000000002 677,225.67000000000002" fill="#fdeae6"/><rect x="714.61" y="188.06" width="37.61" height="37.61" fill="#f5aa98"/><polygon points="714.61,188.06 752.22,188.06 714.61,225.67000000000002" fill="#f9c9bd"/><rect x="752.2222222222223" y="150.44444444444446" width="75.22222222222223" height="75.22222222222223" fill="#ffffff"/><rect x="752.22" y="150.44" width="37.61" height="37.61" fill="#fef3f1"/><polygon points="752.22,150.44 789.83,188.05 752.22,188.05" fill="#f6af9e"/><rect x="789.83" y="150.44" width="37.61" height="37.61" fill="#f4a38f"/><polygon points="789.83,150.44 827.44,150.44 827.44,188.05" fill="#f6f8fa"/><rect x="752.22" y="188.06" width="37.61" height="37.61" fill="#f28c74"/><polygon points="752.22,188.06 789.83,225.67000000000002 752.22,225.67000000000002" fill="#f6af9e"/><rect x="789.83" y="188.06" width="37.61" height="37.61" fill="#9fb7c7"/><polygon points="789.83,188.06 827.44,188.06 827.44,225.67000000000002" fill="#fbddd6"/><rect x="827.44" y="150.44" width="75.22" height="75.22" fill="#ee6c4d"/><polygon points="827.44,150.44 902.6600000000001,150.44 902.6600000000001,225.66" fill="#f3947d"/><rect x="902.67" y="150.44" width="75.22" height="75.22" fill="#fef6f4"/><polygon points="902.67,150.44 977.89,150.44 977.89,225.66" fill="#f08065"/><rect x="977.89" y="150.44" width="75.22" height="75.22" fill="#dce4ea"/><polygon points="977.89,150.44 1053.11,150.44 977.89,225.66" fill="#e1e8ed"/><rect x="1053.1111111111113" y="150.44444444444446" width="75.22222222222223" height="75.22222222222223" fill="#ffffff"/><rect x="1053.11" y="150.44" width="37.61" height="37.61" fill="#f49e8a"/><polygon points="1053.11,150.44 1090.7199999999998,150.44 1053.11,188.05" fill="#dbe4ea"/><rect x="1090.72" y="150.44" width="37.61" height="37.61" fill="#ccd8e1"/><polygon points="1090.72,150.44 1128.33,188.05 1090.72,188.05" fill="#fdeeeb"/><rect x="1053.11" y="188.06" width="37.61" height="37.61" fill="#f29179"/><polygon points="1053.11,188.06 1090.7199999999998,188.06 1090.7199999999998,225.67000000000002" fill="#fbdad2"/><rect x="1090.72" y="188.06" width="37.61" height="37.61" fill="#fad7ce"/><polygon points="1128.33,188.06 1128.33,225.67000000000002 1090.72,225.67000000000002" fill="#f3957f"/><rect x="1128.33" y="150.44" width="75.22" height="75.22" fill="#c1d1db"/><polygon points="1128.33,150.44 1203.55,150.44 1128.33,225.66" fill="#d6e0e7"/><rect x="0" y="225.66666666666669" width="75.22222222222223" height="75.22222222222223" fill="#ffffff"/><rect x="0" y="225.67" width="37.61" height="37.61" fill="#fce7e2"/><polygon points="0,225.67 37.61,263.28 0,263.28" fill="#f3937c"/><rect x="37.61" y="225.67" width="37.61" height="37.61" fill="#e1e8ed"/><polygon points="37.61,225.67 75.22,225.67 37.61,263.28" fill="#f8c6ba"/><rect x="0" y="263.28" width="37.61" height="37.61" fill="#a6bccb"/><polygon points="0,263.28 37.61,300.89 0,300.89" fill="#f9cabe"/><rect x="37.61" y="263.28" width="37.61" height="37.61" fill="#fbdcd5"/><polygon points="37.61,263.28 75.22,263.28 37.61,300.89" fill="#beced9"/><rect x="75.22222222222223" y="225.66666666666669" width="75.22222222222223" height="75.22222222222223" fill="#ffffff"/><rect x="75.22" y="225.67" width="37.61" height="37.61" fill="#f5a795"/><polygon points="75.22,225.67 112.83,225.67 112.83,263.28" fill="#fdeeea"/><rect x="112.83" y="225.67" width="37.61" height="37.61" fill="#f3967f"/><polygon points="112.83,225.67 150.44,225.67 150.44,263.28" fill="#e8eef2"/><rect x="75.22" y="263.28" width="37.61" height="37.61" fill="#ef775a"/><polygon points="112.83,263.28 112.83,300.89 75.22,300.89" fill="#f5a592"/><rect x="112.83" y="263.28" width="37.61" height="37.61" fill="#fcfcfd"/><polygon points="112.83,263.28 150.44,300.89 112.83,300.89" fill="#b5c8d4"/><rect x="150.44" y="225.67" width="75.22" height="75.22" fill="#d0dce4"/><polygon points="150.44,225.67 225.66,225.67 150.44,300.89" fill="#ffffff"/><rect x="225.66666666666669" y="225.66666666666669" width="75.22222222222223" height="75.22222222222223" fill="#ffffff"/><rect x="225.67" y="225.67" width="37.61" height="37.61" fill="#a1b8c8"/><polygon points="263.28,225.67 263.28,263.28 225.67,263.28" fill="#bacbd7"/><rect x="263.28" y="225.67" width="37.61" height="37.61" fill="#9eb6c7"/><polygon points="263.28,225.67 300.89,225.67 263.28,263.28" fill="#94aec1"/><rect x="225.67" y="263.28" width="37.61" height="37.61" fill="#cedae3"/><polygon points="225.67,263.28 263.28,263.28 225.67,300.89" fill="#fbded7"/><rect x="263.28" y="263.28" width="37.61" height="37.61" fill="#fad5cc"/><polygon points="263.28,263.28 300.89,300.89 263.28,300.89" fill="#fad7cf"/><rect x="300.8888888888889" y="225.66666666666669" width="75.22222222222223" height="75.22222222222223" fill="#ffffff"/><rect x="300.89" y="225.67" width="37.61" height="37.61" fill="#fad0c7"/><polygon points="300.89,225.67 338.5,263.28 300.89,263.28" fill="#f3f6f8"/><rect x="338.5" y="225.67" width="37.61" height="37.61" fill="#e3eaef"/><polygon points="338.5,225.67 376.11,263.28 338.5,263.28" fill="#9fb7c7"/><rect x="300.89" y="263.28" width="37.61" height="37.61" fill="#c0cfda"/><polygon points="338.5,263.28 338.5,300.89 300.89,300.89" fill="#fef2ef"/><rect x="338.5" y="263.28" width="37.61" height="37.61" fill="#fce8e3"/><polygon points="338.5,263.28 376.11,263.28 376.11,300.89" fill="#a2b9c9"/><rect x="376.11" y="225.67" width="75.22" height="75.22" fill="#f6b4a4"/><polygon points="376.11,225.67 451.33000000000004,225.67 376.11,300.89" fill="#f8c1b4"/><rect x="451.33" y="225.67" width="75.22" height="75.22" fill="#fffefe"/><polygon points="451.33,225.67 526.55,225.67 526.55,300.89" fill="#f9cec4"/><rect x="526.56" y="225.67" width="75.22" height="75.22" fill="#f08166"/><polygon points="526.56,225.67 601.78,225.67 526.56,300.89" fill="#f9ccc1"/><rect x="601.7777777777778" y="225.66666666666669" width="75.22222222222223" height="75.22222222222223" fill="#ffffff"/><rect x="601.78" y="225.67" width="37.61" height="37.61" fill="#fffdfd"/><polygon points="601.78,225.67 639.39,225.67 601.78,263.28" fill="#b5c8d4"/><rect x="639.39" y="225.67" width="37.61" height="37.61" fill="#f3937c"/><polygon points="677,225.67 677,263.28 639.39,263.28" fill="#dee6ec"/><rect x="601.78" y="263.28" width="37.61" height="37.61" fill="#f8c0b3"/><polygon points="639.39,263.28 639.39,300.89 601.78,300.89" fill="#fdede9"/><rect x="639.39" y="263.28" width="37.61" height="37.61" fill="#fbded7"/><polygon points="677,263.28 677,300.89 639.39,300.89" fill="#9fb7c7"/><rect x="677" y="225.66666666666669" width="75.22222222222223" height="75.22222222222223" fill="#ffffff"/><rect x="677" y="225.67" width="37.61" height="37.61" fill="#90acbf"/><polygon points="677,225.67 714.61,225.67 677,263.28" fill="#e3eaef"/><rect x="714.61" y="225.67" width="37.61" height="37.61" fill="#f07a5e"/><polygon points="714.61,225.67 752.22,225.67 714.61,263.28" fill="#f39983"/><rect x="677" y="263.28" width="37.61" height="37.61" fill="#e1e9ee"/><polygon points="714.61,263.28 714.61,300.89 677,300.89" fill="#f8c0b3"/><rect x="714.61" y="263.28" width="37.61" height="37.61" fill="#d6e0e7"/><polygon points="714.61,263.28 752.22,263.28 714.61,300.89" fill="#f5f7f9"/><rect x="752.2222222222223" y="225.66666666666669" width="75.22222222222223" height="75.22222222222223" fill="#ffffff"/><rect x="752.22" y="225.67" width="37.61" height="37.61" fill="#afc3d0"/><polygon points="752.22,225.67 789.83,225.67 752.22,263.28" fill="#93aec1"/><rect x="789.83" y="225.67" width="37.61" height="37.61" fill="#d8e2e8"/><polygon points="789.83,225.67 827.44,225.67 789.83,263.28" fill="#b2c6d3"/><rect x="752.22" y="263.28" width="37.61" height="37.61" fill="#f3947e"/><polygon points="752.22,263.28 789.83,300.89 752.22,300.89" fill="#dae3ea"/><rect x="789.83" y="263.28" width="37.61" height="37.61" fill="#e9eff2"/><polygon points="789.83,263.28 827.44,263.28 827.44,300.89" fill="#f6ad9c"/><rect x="827.4444444444446" y="225.66666666666669" width="75.22222222222223" height="75.22222222222223" fill="#ffffff"/><rect x="827.44" y="225.67" width="37.61" height="37.61" fill="#92adbf"/><polygon points="827.44,225.67 865.0500000000001,225.67 865.0500000000001,263.28" fill="#fbdbd3"/><rect x="865.06" y="225.67" width="37.61" height="37.61" fill="#f9cfc5"/><polygon points="865.06,225.67 902.67,263.28 865.06,263.28" fill="#f28f78"/><rect x="827.44" y="263.28" width="37.61" height="37.61" fill="#94afc1"/><polygon points="865.0500000000001,263.28 865.0500000000001,300.89 827.44,300.89" fill="#ee6e50"/><rect x="865.06" y="263.28" width="37.61" height="37.61" fill="#f07a5e"/><polygon points="865.06,263.28 902.67,263.28 865.06,300.89" fill="#f8c2b5"/><rect x="902.67" y="225.67" width="75.22" height="75.22" fill="#fef5f3"/><polygon points="902.67,225.67 977.89,300.89 902.67,300.89" fill="#fafbfc"/><rect x="977.89" y="225.67" width="75.22" height="75.22" fill="#9cb5c6"/><polygon points="977.89,225.67 1053.11,225.67 1053.11,300.89" fill="#92adc0"/><rect x="1053.1111111111113" y="225.66666666666669" width="75.22222222222223" height="75.22222222222223" fill="#ffffff"/><rect x="1053.11" y="225.67" width="37.61" height="37.61" fill="#ef775a"/><polygon points="1053.11,225.67 1090.7199999999998,225.67 1053.11,263.28" fill="#f1886f"/><rect x="1090.72" y="225.67" width="37.61" height="37.61" fill="#aec2d0"/><polygon points="1090.72,225.67 1128.33,225.67 1128.33,263.28" fill="#93aec0"/><rect x="1053.11" y="263.28" width="37.61" height="37.61" fill="#fbfcfd"/><polygon points="1053.11,263.28 1090.7199999999998,263.28 1053.11,300.89" fill="#d5dfe6"/><rect x="1090.72" y="263.28" width="37.61" height="37.61" fill="#fefefe"/><polygon points="1090.72,263.28 1128.33,263.28 1128.33,300.89" fill="#bccdd8"/><rect x="1128.33" y="225.67" width="75.22" height="75.22" fill="#dbe4ea"/><polygon points="1128.33,225.67 1203.55,300.89 1128.33,300.89" fill="#fef2ef"/><rect x="0" y="300.89" width="75.22" height="75.22" fill="#fad6cd"/><polygon points="0,300.89 75.22,300.89 0,376.11" fill="#cbd8e1"/><rect x="75.22" y="300.89" width="75.22" height="75.22" fill="#f39882"/><polygon points="75.22,300.89 150.44,300.89 75.22,376.11" fill="#f5ab9a"/><rect x="150.44" y="300.89" width="75.22" height="75.22" fill="#99b3c4"/><polygon points="150.44,300.89 225.66,376.11 150.44,376.11" fill="#96b0c2"/><rect x="225.66666666666669" y="300.8888888888889" width="75.22222222222223" height="75.22222222222223" fill="#ffffff"/><rect x="225.67" y="300.89" width="37.61" height="37.61" fill="#f5ab99"/><polygon points="225.67,300.89 263.28,300.89 225.67,338.5" fill="#a0b8c8"/><rect x="263.28" y="300.89" width="37.61" height="37.61" fill="#f0f4f7"/><polygon points="263.28,300.89 300.89,300.89 263.28,338.5" fill="#f1f5f7"/><rect x="225.67" y="338.5" width="37.61" height="37.61" fill="#fdedea"/><polygon points="263.28,338.5 263.28,376.11 225.67,376.11" fill="#fad1c7"/><rect x="263.28" y="338.5" width="37.61" height="37.61" fill="#fad4cb"/><polygon points="263.28,338.5 300.89,338.5 300.89,376.11" fill="#f5f7f9"/><rect x="300.89" y="300.89" width="75.22" height="75.22" fill="#b9cbd7"/><polygon points="300.89,300.89 376.11,300.89 376.11,376.11" fill="#fffcfc"/><rect x="376.11111111111114" y="300.8888888888889" width="75.22222222222223" height="75.22222222222223" fill="#ffffff"/><rect x="376.11" y="300.89" width="37.61" height="37.61" fill="#e3eaef"/><polygon points="376.11,300.89 413.72,300.89 413.72,338.5" fill="#e7edf1"/><rect x="413.72" y="300.89" width="37.61" height="37.61" fill="#f28b72"/><polygon points="413.72,300.89 451.33000000000004,300.89 413.72,338.5" fill="#fdf0ed"/><rect x="376.11" y="338.5" width="37.61" height="37.61" fill="#d7e1e8"/><polygon points="413.72,338.5 413.72,376.11 376.11,376.11" fill="#f07f64"/><rect x="413.72" y="338.5" width="37.61" height="37.61" fill="#dfe7ec"/><polygon points="413.72,338.5 451.33000000000004,338.5 413.72,376.11" fill="#beced9"/><rect x="451.33" y="300.89" width="75.22" height="75.22" fill="#f7b6a6"/><polygon points="526.55,300.89 526.55,376.11 451.33,376.11" fill="#fce5df"/><rect x="526.5555555555557" y="300.8888888888889" width="75.22222222222223" height="75.22222222222223" fill="#ffffff"/><rect x="526.56" y="300.89" width="37.61" height="37.61" fill="#f6af9e"/><polygon points="526.56,300.89 564.17,300.89 526.56,338.5" fill="#90abbe"/><rect x="564.17" y="300.89" width="37.61" height="37.61" fill="#c8d6df"/><polygon points="564.17,300.89 601.78,300.89 564.17,338.5" fill="#ee6f50"/><rect x="526.56" y="338.5" width="37.61" height="37.61" fill="#f8c6ba"/><polygon points="526.56,338.5 564.17,338.5 564.17,376.11" fill="#ef7457"/><rect x="564.17" y="338.5" width="37.61" height="37.61" fill="#a4bbca"/><polygon points="564.17,338.5 601.78,376.11 564.17,376.11" fill="#fafbfc"/><rect x="601.78" y="300.89" width="75.22" height="75.22" fill="#f07f64"/><polygon points="601.78,300.89 677,300.89 677,376.11" fill="#99b3c4"/><rect x="677" y="300.89" width="75.22" height="75.22" fill="#fdece9"/><polygon points="677,300.89 752.22,300.89 677,376.11" fill="#99b2c4"/><rect x="752.22" y="300.89" width="75.22" height="75.22" fill="#a8becd"/><polygon points="752.22,300.89 827.44,300.89 752.22,376.11" fill="#f8c3b6"/><rect x="827.44" y="300.89" width="75.22" height="75.22" fill="#99b2c4"/><polygon points="827.44,300.89 902.6600000000001,300.89 827.44,376.11" fill="#a2b9c9"/><rect x="902.67" y="300.89" width="75.22" height="75.22" fill="#fce3de"/><polygon points="977.89,300.89 977.89,376.11 902.67,376.11" fill="#b0c4d1"/><rect x="977.89" y="300.89" width="75.22" height="75.22" fill="#c6d4de"/><polygon points="977.89,300.89 1053.11,300.89 1053.11,376.11" fill="#becfda"/><rect x="1053.1111111111113" y="300.8888888888889" width="75.22222222222223" height="75.22222222222223" fill="#ffffff"/><rect x="1053.11" y="300.89" width="37.61" height="37.61" fill="#e7edf1"/><polygon points="1053.11,300.89 1090.7199999999998,300.89 1090.7199999999998,338.5" fill="#fffbfb"/><rect x="1090.72" y="300.89" width="37.61" height="37.61" fill="#ee6e50"/><polygon points="1090.72,300.89 1128.33,300.89 1128.33,338.5" fill="#fefbfa"/><rect x="1053.11" y="338.5" width="37.61" height="37.61" fill="#fffcfc"/><polygon points="1053.11,338.5 1090.7199999999998,376.11 1053.11,376.11" fill="#fce3dd"/><rect x="1090.72" y="338.5" width="37.61" height="37.61" fill="#dfe7ec"/><polygon points="1090.72,338.5 1128.33,376.11 1090.72,376.11" fill="#f7f9fa"/><rect x="1128.3333333333335" y="300.8888888888889" width="75.22222222222223" height="75.22222222222223" fill="#ffffff"/><rect x="1128.33" y="300.89" width="37.61" height="37.61" fill="#a9bfcd"/><polygon points="1128.33,300.89 1165.9399999999998,300.89 1128.33,338.5" fill="#cddae2"/><rect x="1165.94" y="300.89" width="37.61" height="37.61" fill="#98b2c3"/><polygon points="1165.94,300.89 1203.55,300.89 1165.94,338.5" fill="#91acbf"/><rect x="1128.33" y="338.5" width="37.61" height="37.61" fill="#92aec0"/><polygon points="1128.33,338.5 1165.9399999999998,376.11 1128.33,376.11" fill="#e1e9ee"/><rect x="1165.94" y="338.5" width="37.61" height="37.61" fill="#a6bccb"/><polygon points="1165.94,338.5 1203.55,376.11 1165.94,376.11" fill="#e7edf1"/><rect x="0" y="376.11111111111114" width="75.22222222222223" height="75.22222222222223" fill="#ffffff"/><rect x="0" y="376.11" width="37.61" height="37.61" fill="#d5e0e7"/><polygon points="37.61,376.11 37.61,413.72 0,413.72" fill="#fdeeeb"/><rect x="37.61" y="376.11" width="37.61" height="37.61" fill="#f39c87"/><polygon points="37.61,376.11 75.22,413.72 37.61,413.72" fill="#f07a5e"/><rect x="0" y="413.72" width="37.61" height="37.61" fill="#f6b4a5"/><polygon points="0,413.72 37.61,413.72 37.61,451.33000000000004" fill="#c3d2dc"/><rect x="37.61" y="413.72" width="37.61" height="37.61" fill="#f7bcad"/><polygon points="37.61,413.72 75.22,451.33000000000004 37.61,451.33000000000004" fill="#d9e2e9"/><rect x="75.22222222222223" y="376.11111111111114" width="75.22222222222223" height="75.22222222222223" fill="#ffffff"/><rect x="75.22" y="376.11" width="37.61" height="37.61" fill="#d5e0e7"/><polygon points="75.22,376.11 112.83,376.11 75.22,413.72" fill="#fefaf9"/><rect x="112.83" y="376.11" width="37.61" height="37.61" fill="#aac0ce"/><polygon points="112.83,376.11 150.44,413.72 112.83,413.72" fill="#aec3d0"/><rect x="75.22" y="413.72" width="37.61" height="37.61" fill="#d8e2e8"/><polygon points="75.22,413.72 112.83,413.72 112.83,451.33000000000004" fill="#f08066"/><rect x="112.83" y="413.72" width="37.61" height="37.61" fill="#a1b8c8"/><polygon points="112.83,413.72 150.44,413.72 150.44,451.33000000000004" fill="#fce7e2"/><rect x="150.44444444444446" y="376.11111111111114" width="75.22222222222223" height="75.22222222222223" fill="#ffffff"/><rect x="150.44" y="376.11" width="37.61" height="37.61" fill="#f1f5f7"/><polygon points="188.05,376.11 188.05,413.72 150.44,413.72" fill="#ffffff"/><rect x="188.06" y="376.11" width="37.61" height="37.61" fill="#e4ebf0"/><polygon points="225.67000000000002,376.11 225.67000000000002,413.72 188.06,413.72" fill="#fef5f2"/><rect x="150.44" y="413.72" width="37.61" height="37.61" fill="#eff3f6"/><polygon points="150.44,413.72 188.05,413.72 188.05,451.33000000000004" fill="#dce5eb"/><rect x="188.06" y="413.72" width="37.61" height="37.61" fill="#e3eaef"/><polygon points="188.06,413.72 225.67000000000002,451.33000000000004 188.06,451.33000000000004" fill="#f7b9aa"/><rect x="225.66666666666669" y="376.11111111111114" width="75.22222222222223" height="75.22222222222223" fill="#ffffff"/><rect x="225.67" y="376.11" width="37.61" height="37.61" fill="#f2f5f7"/><polygon points="225.67,376.11 263.28,376.11 263.28,413.72" fill="#f49c87"/><rect x="263.28" y="376.11" width="37.61" height="37.61" fill="#a1b9c8"/><polygon points="263.28,376.11 300.89,376.11 263.28,413.72" fill="#a6bccb"/><rect x="225.67" y="413.72" width="37.61" height="37.61" fill="#f3947e"/><polygon points="263.28,413.72 263.28,451.33000000000004 225.67,451.33000000000004" fill="#f28e76"/><rect x="263.28" y="413.72" width="37.61" height="37.61" fill="#f07b60"/><polygon points="300.89,413.72 300.89,451.33000000000004 263.28,451.33000000000004" fill="#8fabbe"/><rect x="300.8888888888889" y="376.11111111111114" width="75.22222222222223" height="75.22222222222223" fill="#ffffff"/><rect x="300.89" y="376.11" width="37.61" height="37.61" fill="#f9fafb"/><polygon points="338.5,376.11 338.5,413.72 300.89,413.72" fill="#fce9e4"/><rect x="338.5" y="376.11" width="37.61" height="37.61" fill="#fce2dc"/><polygon points="338.5,376.11 376.11,376.11 338.5,413.72" fill="#f5f7f9"/><rect x="300.89" y="413.72" width="37.61" height="37.61" fill="#f6ae9d"/><polygon points="300.89,413.72 338.5,413.72 300.89,451.33000000000004" fill="#cfdbe3"/><rect x="338.5" y="413.72" width="37.61" height="37.61" fill="#e2eaee"/><polygon points="338.5,413.72 376.11,451.33000000000004 338.5,451.33000000000004" fill="#f6ae9c"/><rect x="376.11111111111114" y="376.11111111111114" width="75.22222222222223" height="75.22222222222223" fill="#ffffff"/><rect x="376.11" y="376.11" width="37.61" height="37.61" fill="#f8beb0"/><polygon points="413.72,376.11 413.72,413.72 376.11,413.72" fill="#fdece8"/><rect x="413.72" y="376.11" width="37.61" height="37.61" fill="#a9bfcd"/><polygon points="451.33000000000004,376.11 451.33000000000004,413.72 413.72,413.72" fill="#f9c8bd"/><rect x="376.11" y="413.72" width="37.61" height="37.61" fill="#fce3dd"/><polygon points="376.11,413.72 413.72,413.72 376.11,451.33000000000004" fill="#b9cad6"/><rect x="413.72" y="413.72" width="37.61" height="37.61" fill="#c6d5de"/><polygon points="413.72,413.72 451.33000000000004,413.72 451.33000000000004,451.33000000000004" fill="#fbd9d1"/><rect x="451.33333333333337" y="376.11111111111114" width="75.22222222222223" height="75.22222222222223" fill="#ffffff"/><rect x="451.33" y="376.11" width="37.61" height="37.61" fill="#fce8e3"/><polygon points="451.33,376.11 488.94,376.11 451.33,413.72" fill="#abc0ce"/><rect x="488.94" y="376.11" width="37.61" height="37.61" fill="#f5a795"/><polygon points="488.94,376.11 526.55,376.11 526.55,413.72" fill="#f5aa98"/><rect x="451.33" y="413.72" width="37.61" height="37.61" fill="#f2927b"/><polygon points="451.33,413.72 488.94,413.72 488.94,451.33000000000004" fill="#fefefe"/><rect x="488.94" y="413.72" width="37.61" height="37.61" fill="#cedae3"/><polygon points="488.94,413.72 526.55,451.33000000000004 488.94,451.33000000000004" fill="#afc3d1"/><rect x="526.56" y="376.11" width="75.22" height="75.22" fill="#f8fafb"/><polygon points="526.56,376.11 601.78,376.11 601.78,451.33000000000004" fill="#a0b7c8"/><rect x="601.7777777777778" y="376.11111111111114" width="75.22222222222223" height="75.22222222222223" fill="#ffffff"/><rect x="601.78" y="376.11" width="37.61" height="37.61" fill="#dbe4ea"/><polygon points="639.39,376.11 639.39,413.72 601.78,413.72" fill="#a3bac9"/><rect x="639.39" y="376.11" width="37.61" height="37.61" fill="#f18970"/><polygon points="677,376.11 677,413.72 639.39,413.72" fill="#a3baca"/><rect x="601.78" y="413.72" width="37.61" height="37.61" fill="#cbd8e1"/><polygon points="601.78,413.72 639.39,451.33000000000004 601.78,451.33000000000004" fill="#fefeff"/><rect x="639.39" y="413.72" width="37.61" height="37.61" fill="#eaeff3"/><polygon points="639.39,413.72 677,413.72 639.39,451.33000000000004" fill="#d5dfe7"/><rect x="677" y="376.11111111111114" width="75.22222222222223" height="75.22222222222223" fill="#ffffff"/><rect x="677" y="376.11" width="37.61" height="37.61" fill="#f6ae9d"/><polygon points="677,376.11 714.61,376.11 714.61,413.72" fill="#acc0cf"/><rect x="714.61" y="376.11" width="37.61" height="37.61" fill="#d8e2e8"/><polygon points="714.61,376.11 752.22,376.11 752.22,413.72" fill="#fce7e2"/><rect x="677" y="413.72" width="37.61" height="37.61" fill="#c5d4dd"/><polygon points="714.61,413.72 714.61,451.33000000000004 677,451.33000000000004" fill="#92adbf"/><rect x="714.61" y="413.72" width="37.61" height="37.61" fill="#a0b8c8"/><polygon points="714.61,413.72 752.22,413.72 714.61,451.33000000000004" fill="#a5bccb"/><rect x="752.2222222222223" y="376.11111111111114" width="75.22222222222223" height="75.22222222222223" fill="#ffffff"/><rect x="752.22" y="376.11" width="37.61" height="37.61" fill="#f6b5a6"/><polygon points="752.22,376.11 789.83,413.72 752.22,413.72" fill="#f2f5f7"/><rect x="789.83" y="376.11" width="37.61" height="37.61" fill="#abc0ce"/><polygon points="789.83,376.11 827.44,376.11 827.44,413.72" fill="#b3c6d3"/><rect x="752.22" y="413.72" width="37.61" height="37.61" fill="#a3baca"/><polygon points="752.22,413.72 789.83,413.72 752.22,451.33000000000004" fill="#e2e9ee"/><rect x="789.83" y="413.72" width="37.61" height="37.61" fill="#f7b7a7"/><polygon points="789.83,413.72 827.44,413.72 789.83,451.33000000000004" fill="#f2f6f8"/><rect x="827.44" y="376.11" width="75.22" height="75.22" fill="#fbfcfd"/><polygon points="827.44,376.11 902.6600000000001,376.11 902.6600000000001,451.33000000000004" fill="#94afc1"/><rect x="902.6666666666667" y="376.11111111111114" width="75.22222222222223" height="75.22222222222223" fill="#ffffff"/><rect x="902.67" y="376.11" width="37.61" height="37.61" fill="#8fabbe"/><polygon points="902.67,376.11 940.28,413.72 902.67,413.72" fill="#a1b9c9"/><rect x="940.28" y="376.11" width="37.61" height="37.61" fill="#98b2c3"/><polygon points="977.89,376.11 977.89,413.72 940.28,413.72" fill="#b8cad6"/><rect x="902.67" y="413.72" width="37.61" height="37.61" fill="#f1846a"/><polygon points="940.28,413.72 940.28,451.33000000000004 902.67,451.33000000000004" fill="#fad6cd"/><rect x="940.28" y="413.72" width="37.61" height="37.61" fill="#f6b3a3"/><polygon points="940.28,413.72 977.89,451.33000000000004 940.28,451.33000000000004" fill="#f49d88"/><rect x="977.8888888888889" y="376.11111111111114" width="75.22222222222223" height="75.22222222222223" fill="#ffffff"/><rect x="977.89" y="376.11" width="37.61" height="37.61" fill="#d1dde4"/><polygon points="977.89,376.11 1015.5,413.72 977.89,413.72" fill="#d5e0e7"/><rect x="1015.5" y="376.11" width="37.61" height="37.61" fill="#c1d1db"/><polygon points="1015.5,376.11 1053.11,376.11 1015.5,413.72" fill="#f7b9ab"/><rect x="977.89" y="413.72" width="37.61" height="37.61" fill="#f2f5f8"/><polygon points="977.89,413.72 1015.5,413.72 977.89,451.33000000000004" fill="#fbe0d9"/><rect x="1015.5" y="413.72" width="37.61" height="37.61" fill="#fce3de"/><polygon points="1015.5,413.72 1053.11,451.33000000000004 1015.5,451.33000000000004" fill="#fad1c7"/><rect x="1053.11" y="376.11" width="75.22" height="75.22" fill="#f28b72"/><polygon points="1053.11,376.11 1128.33,376.11 1053.11,451.33000000000004" fill="#fefaf9"/><rect x="1128.33" y="376.11" width="75.22" height="75.22" fill="#a0b7c8"/><polygon points="1128.33,376.11 1203.55,451.33000000000004 1128.33,451.33000000000004" fill="#f18268"/><rect x="0" y="451.33" width="75.22" height="75.22" fill="#fffefe"/><polygon points="75.22,451.33 75.22,526.55 0,526.55" fill="#fce6e0"/><rect x="75.22" y="451.33" width="75.22" height="75.22" fill="#f3957f"/><polygon points="75.22,451.33 150.44,451.33 75.22,526.55" fill="#c3d2dc"/><rect x="150.44" y="451.33" width="75.22" height="75.22" fill="#fef8f6"/><polygon points="225.66,451.33 225.66,526.55 150.44,526.55" fill="#fffefe"/><rect x="225.67" y="451.33" width="75.22" height="75.22" fill="#ebf0f3"/><polygon points="225.67,451.33 300.89,451.33 300.89,526.55" fill="#bacbd7"/><rect x="300.8888888888889" y="451.33333333333337" width="75.22222222222223" height="75.22222222222223" fill="#ffffff"/><rect x="300.89" y="451.33" width="37.61" height="37.61" fill="#f5a997"/><polygon points="300.89,451.33 338.5,451.33 338.5,488.94" fill="#fcfdfd"/><rect x="338.5" y="451.33" width="37.61" height="37.61" fill="#e9eef2"/><polygon points="376.11,451.33 376.11,488.94 338.5,488.94" fill="#fde9e5"/><rect x="300.89" y="488.94" width="37.61" height="37.61" fill="#f4a18e"/><polygon points="300.89,488.94 338.5,488.94 300.89,526.55" fill="#c7d5df"/><rect x="338.5" y="488.94" width="37.61" height="37.61" fill="#fdefeb"/><polygon points="338.5,488.94 376.11,488.94 338.5,526.55" fill="#f6b5a5"/><rect x="376.11" y="451.33" width="75.22" height="75.22" fill="#ef775a"/><polygon points="376.11,451.33 451.33000000000004,526.55 376.11,526.55" fill="#f4a18d"/><rect x="451.33" y="451.33" width="75.22" height="75.22" fill="#c7d5de"/><polygon points="451.33,451.33 526.55,451.33 526.55,526.55" fill="#cad7e0"/><rect x="526.5555555555557" y="451.33333333333337" width="75.22222222222223" height="75.22222222222223" fill="#ffffff"/><rect x="526.56" y="451.33" width="37.61" height="37.61" fill="#b3c6d3"/><polygon points="526.56,451.33 564.17,451.33 564.17,488.94" fill="#ee6d4e"/><rect x="564.17" y="451.33" width="37.61" height="37.61" fill="#bdced9"/><polygon points="601.78,451.33 601.78,488.94 564.17,488.94" fill="#b7c9d5"/><rect x="526.56" y="488.94" width="37.61" height="37.61" fill="#f49d89"/><polygon points="526.56,488.94 564.17,526.55 526.56,526.55" fill="#f39781"/><rect x="564.17" y="488.94" width="37.61" height="37.61" fill="#fce8e4"/><polygon points="564.17,488.94 601.78,488.94 564.17,526.55" fill="#f3f6f8"/><rect x="601.78" y="451.33" width="75.22" height="75.22" fill="#fdf1ef"/><polygon points="601.78,451.33 677,451.33 601.78,526.55" fill="#ef795d"/><rect x="677" y="451.33333333333337" width="75.22222222222223" height="75.22222222222223" fill="#ffffff"/><rect x="677" y="451.33" width="37.61" height="37.61" fill="#f39a85"/><polygon points="714.61,451.33 714.61,488.94 677,488.94" fill="#a2bac9"/><rect x="714.61" y="451.33" width="37.61" height="37.61" fill="#f5a896"/><polygon points="714.61,451.33 752.22,451.33 752.22,488.94" fill="#afc3d0"/><rect x="677" y="488.94" width="37.61" height="37.61" fill="#fef5f3"/><polygon points="677,488.94 714.61,488.94 714.61,526.55" fill="#f9c8bc"/><rect x="714.61" y="488.94" width="37.61" height="37.61" fill="#a2b9c9"/><polygon points="714.61,488.94 752.22,488.94 752.22,526.55" fill="#99b2c4"/><rect x="752.2222222222223" y="451.33333333333337" width="75.22222222222223" height="75.22222222222223" fill="#ffffff"/><rect x="752.22" y="451.33" width="37.61" height="37.61" fill="#fce9e4"/><polygon points="789.83,451.33 789.83,488.94 752.22,488.94" fill="#fbddd6"/><rect x="789.83" y="451.33" width="37.61" height="37.61" fill="#f3f6f8"/><polygon points="789.83,451.33 827.44,451.33 827.44,488.94" fill="#f1846a"/><rect x="752.22" y="488.94" width="37.61" height="37.61" fill="#a4baca"/><polygon points="752.22,488.94 789.83,526.55 752.22,526.55" fill="#f39a85"/><rect x="789.83" y="488.94" width="37.61" height="37.61" fill="#f7bbac"/><polygon points="827.44,488.94 827.44,526.55 789.83,526.55" fill="#f0795d"/><rect x="827.4444444444446" y="451.33333333333337" width="75.22222222222223" height="75.22222222222223" fill="#ffffff"/><rect x="827.44" y="451.33" width="37.61" height="37.61" fill="#cad7e0"/><polygon points="827.44,451.33 865.0500000000001,451.33 827.44,488.94" fill="#f07f64"/><rect x="865.06" y="451.33" width="37.61" height="37.61" fill="#f9cfc5"/><polygon points="865.06,451.33 902.67,451.33 902.67,488.94" fill="#f3937d"/><rect x="827.44" y="488.94" width="37.61" height="37.61" fill="#fdeae6"/><polygon points="827.44,488.94 865.0500000000001,526.55 827.44,526.55" fill="#b6c8d5"/><rect x="865.06" y="488.94" width="37.61" height="37.61" fill="#e8eef2"/><polygon points="902.67,488.94 902.67,526.55 865.06,526.55" fill="#f0f4f6"/><rect x="902.67" y="451.33" width="75.22" height="75.22" fill="#a8bdcc"/><polygon points="977.89,451.33 977.89,526.55 902.67,526.55" fill="#bdcdd9"/><rect x="977.8888888888889" y="451.33333333333337" width="75.22222222222223" height="75.22222222222223" fill="#ffffff"/><rect x="977.89" y="451.33" width="37.61" height="37.61" fill="#f1876e"/><polygon points="1015.5,451.33 1015.5,488.94 977.89,488.94" fill="#c8d6df"/><rect x="1015.5" y="451.33" width="37.61" height="37.61" fill="#fce1db"/><polygon points="1015.5,451.33 1053.11,451.33 1015.5,488.94" fill="#fdebe7"/><rect x="977.89" y="488.94" width="37.61" height="37.61" fill="#fbe0d9"/><polygon points="1015.5,488.94 1015.5,526.55 977.89,526.55" fill="#fad7cf"/><rect x="1015.5" y="488.94" width="37.61" height="37.61" fill="#f2927b"/><polygon points="1015.5,488.94 1053.11,488.94 1053.11,526.55" fill="#91adbf"/><rect x="1053.1111111111113" y="451.33333333333337" width="75.22222222222223" height="75.22222222222223" fill="#ffffff"/><rect x="1053.11" y="451.33" width="37.61" height="37.61" fill="#dbe4ea"/><polygon points="1053.11,451.33 1090.7199999999998,488.94 1053.11,488.94" fill="#e0e8ed"/><rect x="1090.72" y="451.33" width="37.61" height="37.61" fill="#f9ccc1"/><polygon points="1090.72,451.33 1128.33,451.33 1128.33,488.94" fill="#fcfdfd"/><rect x="1053.11" y="488.94" width="37.61" height="37.61" fill="#f6f8fa"/><polygon points="1090.7199999999998,488.94 1090.7199999999998,526.55 1053.11,526.55" fill="#96b0c2"/><rect x="1090.72" y="488.94" width="37.61" height="37.61" fill="#f4a38f"/><polygon points="1090.72,488.94 1128.33,526.55 1090.72,526.55" fill="#eff3f6"/><rect x="1128.3333333333335" y="451.33333333333337" width="75.22222222222223" height="75.22222222222223" fill="#ffffff"/><rect x="1128.33" y="451.33" width="37.61" height="37.61" fill="#fad1c8"/><polygon points="1128.33,451.33 1165.9399999999998,451.33 1128.33,488.94" fill="#a4baca"/><rect x="1165.94" y="451.33" width="37.61" height="37.61" fill="#ef7153"/><polygon points="1165.94,451.33 1203.55,451.33 1165.94,488.94" fill="#f7b6a7"/><rect x="1128.33" y="488.94" width="37.61" height="37.61" fill="#f8c3b6"/><polygon points="1128.33,488.94 1165.9399999999998,488.94 1128.33,526.55" fill="#d2dde5"/><rect x="1165.94" y="488.94" width="37.61" height="37.61" fill="#afc3d1"/><polygon points="1203.55,488.94 1203.55,526.55 1165.94,526.55" fill="#a1b8c8"/><rect x="0" y="526.5555555555557" width="75.22222222222223" height="75.22222222222223" fill="#ffffff"/><rect x="0" y="526.56" width="37.61" height="37.61" fill="#f2917a"/><polygon points="0,526.56 37.61,526.56 0,564.17" fill="#fbdfd9"/><rect x="37.61" y="526.56" width="37.61" height="37.61" fill="#fbdfd8"/><polygon points="37.61,526.56 75.22,526.56 37.61,564.17" fill="#d3dee5"/><rect x="0" y="564.17" width="37.61" height="37.61" fill="#fad2c8"/><polygon points="0,564.17 37.61,564.17 0,601.78" fill="#f39883"/><rect x="37.61" y="564.17" width="37.61" height="37.61" fill="#e2e9ee"/><polygon points="37.61,564.17 75.22,564.17 75.22,601.78" fill="#f07e63"/><rect x="75.22222222222223" y="526.5555555555557" width="75.22222222222223" height="75.22222222222223" fill="#ffffff"/><rect x="75.22" y="526.56" width="37.61" height="37.61" fill="#edf2f5"/><polygon points="112.83,526.56 112.83,564.17 75.22,564.17" fill="#98b2c3"/><rect x="112.83" y="526.56" width="37.61" height="37.61" fill="#aac0ce"/><polygon points="150.44,526.56 150.44,564.17 112.83,564.17" fill="#aabfcd"/><rect x="75.22" y="564.17" width="37.61" height="37.61" fill="#fbd9d0"/><polygon points="75.22,564.17 112.83,564.17 75.22,601.78" fill="#eef2f5"/><rect x="112.83" y="564.17" width="37.61" height="37.61" fill="#ccd9e1"/><polygon points="112.83,564.17 150.44,564.17 150.44,601.78" fill="#ef7457"/><rect x="150.44444444444446" y="526.5555555555557" width="75.22222222222223" height="75.22222222222223" fill="#ffffff"/><rect x="150.44" y="526.56" width="37.61" height="37.61" fill="#ef7356"/><polygon points="150.44,526.56 188.05,526.56 188.05,564.17" fill="#f7f9fb"/><rect x="188.06" y="526.56" width="37.61" height="37.61" fill="#f6ae9d"/><polygon points="225.67000000000002,526.56 225.67000000000002,564.17 188.06,564.17" fill="#fdeae5"/><rect x="150.44" y="564.17" width="37.61" height="37.61" fill="#dce4ea"/><polygon points="150.44,564.17 188.05,564.17 150.44,601.78" fill="#fdfefe"/><rect x="188.06" y="564.17" width="37.61" height="37.61" fill="#d5dfe7"/><polygon points="225.67000000000002,564.17 225.67000000000002,601.78 188.06,601.78" fill="#93aec0"/><rect x="225.66666666666669" y="526.5555555555557" width="75.22222222222223" height="75.22222222222223" fill="#ffffff"/><rect x="225.67" y="526.56" width="37.61" height="37.61" fill="#b2c5d2"/><polygon points="225.67,526.56 263.28,526.56 263.28,564.17" fill="#fce5e0"/><rect x="263.28" y="526.56" width="37.61" height="37.61" fill="#fcfdfd"/><polygon points="263.28,526.56 300.89,564.17 263.28,564.17" fill="#f2917a"/><rect x="225.67" y="564.17" width="37.61" height="37.61" fill="#d3dee5"/><polygon points="225.67,564.17 263.28,601.78 225.67,601.78" fill="#ccd8e1"/><rect x="263.28" y="564.17" width="37.61" height="37.61" fill="#bacbd7"/><polygon points="300.89,564.17 300.89,601.78 263.28,601.78" fill="#f5a592"/><rect x="300.8888888888889" y="526.5555555555557" width="75.22222222222223" height="75.22222222222223" fill="#ffffff"/><rect x="300.89" y="526.56" width="37.61" height="37.61" fill="#f5a896"/><polygon points="300.89,526.56 338.5,564.17 300.89,564.17" fill="#97b1c2"/><rect x="338.5" y="526.56" width="37.61" height="37.61" fill="#fbe1da"/><polygon points="338.5,526.56 376.11,526.56 338.5,564.17" fill="#fdefeb"/><rect x="300.89" y="564.17" width="37.61" height="37.61" fill="#b1c5d2"/><polygon points="300.89,564.17 338.5,564.17 300.89,601.78" fill="#b2c6d3"/><rect x="338.5" y="564.17" width="37.61" height="37.61" fill="#ebf0f3"/><polygon points="338.5,564.17 376.11,564.17 338.5,601.78" fill="#fce8e3"/><rect x="376.11111111111114" y="526.5555555555557" width="75.22222222222223" height="75.22222222222223" fill="#ffffff"/><rect x="376.11" y="526.56" width="37.61" height="37.61" fill="#96b1c2"/><polygon points="376.11,526.56 413.72,564.17 376.11,564.17" fill="#f5a794"/><rect x="413.72" y="526.56" width="37.61" height="37.61" fill="#ffffff"/><polygon points="413.72,526.56 451.33000000000004,526.56 451.33000000000004,564.17" fill="#f18a71"/><rect x="376.11" y="564.17" width="37.61" height="37.61" fill="#fdeae6"/><polygon points="376.11,564.17 413.72,601.78 376.11,601.78" fill="#d2dde5"/><rect x="413.72" y="564.17" width="37.61" height="37.61" fill="#9fb7c7"/><polygon points="451.33000000000004,564.17 451.33000000000004,601.78 413.72,601.78" fill="#f5a997"/><rect x="451.33333333333337" y="526.5555555555557" width="75.22222222222223" height="75.22222222222223" fill="#ffffff"/><rect x="451.33" y="526.56" width="37.61" height="37.61" fill="#ee6e4f"/><polygon points="451.33,526.56 488.94,526.56 488.94,564.17" fill="#f39a84"/><rect x="488.94" y="526.56" width="37.61" height="37.61" fill="#d2dde5"/><polygon points="488.94,526.56 526.55,526.56 526.55,564.17" fill="#fad5cc"/><rect x="451.33" y="564.17" width="37.61" height="37.61" fill="#f18a71"/><polygon points="451.33,564.17 488.94,564.17 451.33,601.78" fill="#a7bdcc"/><rect x="488.94" y="564.17" width="37.61" height="37.61" fill="#f39781"/><polygon points="526.55,564.17 526.55,601.78 488.94,601.78" fill="#afc3d0"/><rect x="526.56" y="526.56" width="75.22" height="75.22" fill="#e4ebef"/><polygon points="526.56,526.56 601.78,526.56 526.56,601.78" fill="#c8d6df"/><rect x="601.7777777777778" y="526.5555555555557" width="75.22222222222223" height="75.22222222222223" fill="#ffffff"/><rect x="601.78" y="526.56" width="37.61" height="37.61" fill="#f7baab"/><polygon points="601.78,526.56 639.39,564.17 601.78,564.17" fill="#fdece8"/><rect x="639.39" y="526.56" width="37.61" height="37.61" fill="#cad7e0"/><polygon points="677,526.56 677,564.17 639.39,564.17" fill="#94afc1"/><rect x="601.78" y="564.17" width="37.61" height="37.61" fill="#f1876e"/><polygon points="601.78,564.17 639.39,564.17 601.78,601.78" fill="#fefefe"/><rect x="639.39" y="564.17" width="37.61" height="37.61" fill="#f39782"/><polygon points="639.39,564.17 677,601.78 639.39,601.78" fill="#f6f8fa"/><rect x="677" y="526.56" width="75.22" height="75.22" fill="#b8cad6"/><polygon points="677,526.56 752.22,526.56 677,601.78" fill="#f8fafb"/><rect x="752.22" y="526.56" width="75.22" height="75.22" fill="#f49d88"/><polygon points="752.22,526.56 827.44,601.78 752.22,601.78" fill="#f6b09f"/><rect x="827.44" y="526.56" width="75.22" height="75.22" fill="#fdede9"/><polygon points="827.44,526.56 902.6600000000001,601.78 827.44,601.78" fill="#f49f8b"/><rect x="902.67" y="526.56" width="75.22" height="75.22" fill="#dce5eb"/><polygon points="977.89,526.56 977.89,601.78 902.67,601.78" fill="#cbd8e1"/><rect x="977.8888888888889" y="526.5555555555557" width="75.22222222222223" height="75.22222222222223" fill="#ffffff"/><rect x="977.89" y="526.56" width="37.61" height="37.61" fill="#c1d1db"/><polygon points="977.89,526.56 1015.5,564.17 977.89,564.17" fill="#f18970"/><rect x="1015.5" y="526.56" width="37.61" height="37.61" fill="#f1866d"/><polygon points="1053.11,526.56 1053.11,564.17 1015.5,564.17" fill="#f7f9fb"/><rect x="977.89" y="564.17" width="37.61" height="37.61" fill="#cad7e0"/><polygon points="977.89,564.17 1015.5,601.78 977.89,601.78" fill="#a9becd"/><rect x="1015.5" y="564.17" width="37.61" height="37.61" fill="#f49c87"/><polygon points="1015.5,564.17 1053.11,564.17 1015.5,601.78" fill="#a8bdcc"/><rect x="1053.1111111111113" y="526.5555555555557" width="75.22222222222223" height="75.22222222222223" fill="#ffffff"/><rect x="1053.11" y="526.56" width="37.61" height="37.61" fill="#f6ae9c"/><polygon points="1053.11,526.56 1090.7199999999998,526.56 1090.7199999999998,564.17" fill="#f28f77"/><rect x="1090.72" y="526.56" width="37.61" height="37.61" fill="#ee6f50"/><polygon points="1090.72,526.56 1128.33,526.56 1090.72,564.17" fill="#f28e76"/><rect x="1053.11" y="564.17" width="37.61" height="37.61" fill="#c8d6df"/><polygon points="1053.11,564.17 1090.7199999999998,564.17 1090.7199999999998,601.78" fill="#f07f64"/><rect x="1090.72" y="564.17" width="37.61" height="37.61" fill="#fdf1ef"/><polygon points="1090.72,564.17 1128.33,601.78 1090.72,601.78" fill="#f7bdaf"/><rect x="1128.3333333333335" y="526.5555555555557" width="75.22222222222223" height="75.22222222222223" fill="#ffffff"/><rect x="1128.33" y="526.56" width="37.61" height="37.61" fill="#c1d1db"/><polygon points="1128.33,526.56 1165.9399999999998,564.17 1128.33,564.17" fill="#fffdfc"/><rect x="1165.94" y="526.56" width="37.61" height="37.61" fill="#f6b3a3"/><polygon points="1203.55,526.56 1203.55,564.17 1165.94,564.17" fill="#eef2f5"/><rect x="1128.33" y="564.17" width="37.61" height="37.61" fill="#f28d75"/><polygon points="1128.33,564.17 1165.9399999999998,564.17 1165.9399999999998,601.78" fill="#f9cabf"/><rect x="1165.94" y="564.17" width="37.61" height="37.61" fill="#f7baac"/><polygon points="1165.94,564.17 1203.55,564.17 1203.55,601.78" fill="#f9cdc3"/><rect x="0" y="601.7777777777778" width="75.22222222222223" height="75.22222222222223" fill="#ffffff"/><rect x="0" y="601.78" width="37.61" height="37.61" fill="#e9eff2"/><polygon points="37.61,601.78 37.61,639.39 0,639.39" fill="#f5a591"/><rect x="37.61" y="601.78" width="37.61" height="37.61" fill="#cfdbe3"/><polygon points="37.61,601.78 75.22,601.78 37.61,639.39" fill="#c5d4dd"/><rect x="0" y="639.39" width="37.61" height="37.61" fill="#f49d89"/><polygon points="0,639.39 37.61,639.39 0,677" fill="#c5d3dd"/><rect x="37.61" y="639.39" width="37.61" height="37.61" fill="#a3baca"/><polygon points="37.61,639.39 75.22,639.39 37.61,677" fill="#a8becc"/><rect x="75.22" y="601.78" width="75.22" height="75.22" fill="#e7edf1"/><polygon points="75.22,601.78 150.44,601.78 75.22,677" fill="#cfdbe3"/><rect x="150.44" y="601.78" width="75.22" height="75.22" fill="#e9eef2"/><polygon points="225.66,601.78 225.66,677 150.44,677" fill="#98b2c3"/><rect x="225.66666666666669" y="601.7777777777778" width="75.22222222222223" height="75.22222222222223" fill="#ffffff"/><rect x="225.67" y="601.78" width="37.61" height="37.61" fill="#d4dfe6"/><polygon points="225.67,601.78 263.28,601.78 225.67,639.39" fill="#dce5eb"/><rect x="263.28" y="601.78" width="37.61" height="37.61" fill="#96b1c2"/><polygon points="263.28,601.78 300.89,639.39 263.28,639.39" fill="#b8c9d6"/><rect x="225.67" y="639.39" width="37.61" height="37.61" fill="#f5a592"/><polygon points="225.67,639.39 263.28,639.39 225.67,677" fill="#b9cad6"/><rect x="263.28" y="639.39" width="37.61" height="37.61" fill="#f4f7f9"/><polygon points="263.28,639.39 300.89,677 263.28,677" fill="#ef785b"/><rect x="300.8888888888889" y="601.7777777777778" width="75.22222222222223" height="75.22222222222223" fill="#ffffff"/><rect x="300.89" y="601.78" width="37.61" height="37.61" fill="#8fabbe"/><polygon points="300.89,601.78 338.5,601.78 338.5,639.39" fill="#fefaf9"/><rect x="338.5" y="601.78" width="37.61" height="37.61" fill="#f7b9ab"/><polygon points="376.11,601.78 376.11,639.39 338.5,639.39" fill="#fdf0ed"/><rect x="300.89" y="639.39" width="37.61" height="37.61" fill="#f18369"/><polygon points="300.89,639.39 338.5,639.39 338.5,677" fill="#f2927b"/><rect x="338.5" y="639.39" width="37.61" height="37.61" fill="#f6b3a3"/><polygon points="338.5,639.39 376.11,639.39 376.11,677" fill="#f7b9aa"/><rect x="376.11111111111114" y="601.7777777777778" width="75.22222222222223" height="75.22222222222223" fill="#ffffff"/><rect x="376.11" y="601.78" width="37.61" height="37.61" fill="#ef7254"/><polygon points="376.11,601.78 413.72,601.78 376.11,639.39" fill="#cfdbe3"/><rect x="413.72" y="601.78" width="37.61" height="37.61" fill="#fbd8d0"/><polygon points="413.72,601.78 451.33000000000004,601.78 451.33000000000004,639.39" fill="#9bb4c5"/><rect x="376.11" y="639.39" width="37.61" height="37.61" fill="#f8c6ba"/><polygon points="376.11,639.39 413.72,677 376.11,677" fill="#fbfcfd"/><rect x="413.72" y="639.39" width="37.61" height="37.61" fill="#f7bcae"/><polygon points="451.33000000000004,639.39 451.33000000000004,677 413.72,677" fill="#eff3f6"/><rect x="451.33333333333337" y="601.7777777777778" width="75.22222222222223" height="75.22222222222223" fill="#ffffff"/><rect x="451.33" y="601.78" width="37.61" height="37.61" fill="#ef7254"/><polygon points="488.94,601.78 488.94,639.39 451.33,639.39" fill="#fefeff"/><rect x="488.94" y="601.78" width="37.61" height="37.61" fill="#fad5cc"/><polygon points="488.94,601.78 526.55,601.78 488.94,639.39" fill="#f5a997"/><rect x="451.33" y="639.39" width="37.61" height="37.61" fill="#f8c4b7"/><polygon points="451.33,639.39 488.94,639.39 451.33,677" fill="#fce2db"/><rect x="488.94" y="639.39" width="37.61" height="37.61" fill="#c4d3dd"/><polygon points="488.94,639.39 526.55,677 488.94,677" fill="#b5c8d4"/><rect x="526.5555555555557" y="601.7777777777778" width="75.22222222222223" height="75.22222222222223" fill="#ffffff"/><rect x="526.56" y="601.78" width="37.61" height="37.61" fill="#f8c3b7"/><polygon points="564.17,601.78 564.17,639.39 526.56,639.39" fill="#99b3c4"/><rect x="564.17" y="601.78" width="37.61" height="37.61" fill="#c4d3dd"/><polygon points="601.78,601.78 601.78,639.39 564.17,639.39" fill="#cad7e0"/><rect x="526.56" y="639.39" width="37.61" height="37.61" fill="#becfd9"/><polygon points="564.17,639.39 564.17,677 526.56,677" fill="#f5a694"/><rect x="564.17" y="639.39" width="37.61" height="37.61" fill="#dee6ec"/><polygon points="564.17,639.39 601.78,639.39 564.17,677" fill="#fad0c7"/><rect x="601.7777777777778" y="601.7777777777778" width="75.22222222222223" height="75.22222222222223" fill="#ffffff"/><rect x="601.78" y="601.78" width="37.61" height="37.61" fill="#d4dfe6"/><polygon points="601.78,601.78 639.39,601.78 639.39,639.39" fill="#a9becd"/><rect x="639.39" y="601.78" width="37.61" height="37.61" fill="#f7b7a7"/><polygon points="639.39,601.78 677,601.78 639.39,639.39" fill="#f4a390"/><rect x="601.78" y="639.39" width="37.61" height="37.61" fill="#fffdfc"/><polygon points="601.78,639.39 639.39,639.39 639.39,677" fill="#fffefe"/><rect x="639.39" y="639.39" width="37.61" height="37.61" fill="#f39781"/><polygon points="639.39,639.39 677,639.39 677,677" fill="#ee6f50"/><rect x="677" y="601.7777777777778" width="75.22222222222223" height="75.22222222222223" fill="#ffffff"/><rect x="677" y="601.78" width="37.61" height="37.61" fill="#ef765a"/><polygon points="677,601.78 714.61,601.78 714.61,639.39" fill="#f9ccc1"/><rect x="714.61" y="601.78" width="37.61" height="37.61" fill="#fdf1ee"/><polygon points="752.22,601.78 752.22,639.39 714.61,639.39" fill="#f7b9aa"/><rect x="677" y="639.39" width="37.61" height="37.61" fill="#fce3de"/><polygon points="714.61,639.39 714.61,677 677,677" fill="#f9cfc4"/><rect x="714.61" y="639.39" width="37.61" height="37.61" fill="#bdced9"/><polygon points="714.61,639.39 752.22,639.39 714.61,677" fill="#f28b72"/><rect x="752.22" y="601.78" width="75.22" height="75.22" fill="#b7c9d5"/><polygon points="752.22,601.78 827.44,601.78 827.44,677" fill="#ecf1f4"/><rect x="827.4444444444446" y="601.7777777777778" width="75.22222222222223" height="75.22222222222223" fill="#ffffff"/><rect x="827.44" y="601.78" width="37.61" height="37.61" fill="#fdeae5"/><polygon points="827.44,601.78 865.0500000000001,601.78 865.0500000000001,639.39" fill="#9bb4c5"/><rect x="865.06" y="601.78" width="37.61" height="37.61" fill="#a2b9c9"/><polygon points="865.06,601.78 902.67,601.78 902.67,639.39" fill="#e3eaef"/><rect x="827.44" y="639.39" width="37.61" height="37.61" fill="#fef9f8"/><polygon points="827.44,639.39 865.0500000000001,639.39 827.44,677" fill="#f7bcae"/><rect x="865.06" y="639.39" width="37.61" height="37.61" fill="#fef7f5"/><polygon points="902.67,639.39 902.67,677 865.06,677" fill="#f5a693"/><rect x="902.67" y="601.78" width="75.22" height="75.22" fill="#f1866d"/><polygon points="902.67,601.78 977.89,677 902.67,677" fill="#c2d1dc"/><rect x="977.8888888888889" y="601.7777777777778" width="75.22222222222223" height="75.22222222222223" fill="#ffffff"/><rect x="977.89" y="601.78" width="37.61" height="37.61" fill="#cdd9e2"/><polygon points="977.89,601.78 1015.5,601.78 1015.5,639.39" fill="#acc1cf"/><rect x="1015.5" y="601.78" width="37.61" height="37.61" fill="#f3937d"/><polygon points="1015.5,601.78 1053.11,601.78 1053.11,639.39" fill="#baccd7"/><rect x="977.89" y="639.39" width="37.61" height="37.61" fill="#beced9"/><polygon points="977.89,639.39 1015.5,639.39 1015.5,677" fill="#9cb4c5"/><rect x="1015.5" y="639.39" width="37.61" height="37.61" fill="#aabfce"/><polygon points="1015.5,639.39 1053.11,677 1015.5,677" fill="#f3957e"/><rect x="1053.1111111111113" y="601.7777777777778" width="75.22222222222223" height="75.22222222222223" fill="#ffffff"/><rect x="1053.11" y="601.78" width="37.61" height="37.61" fill="#dfe7ec"/><polygon points="1090.7199999999998,601.78 1090.7199999999998,639.39 1053.11,639.39" fill="#e4ebef"/><rect x="1090.72" y="601.78" width="37.61" height="37.61" fill="#d6e0e7"/><polygon points="1128.33,601.78 1128.33,639.39 1090.72,639.39" fill="#cddae2"/><rect x="1053.11" y="639.39" width="37.61" height="37.61" fill="#f07a5e"/><polygon points="1053.11,639.39 1090.7199999999998,677 1053.11,677" fill="#adc1cf"/><rect x="1090.72" y="639.39" width="37.61" height="37.61" fill="#b3c6d3"/><polygon points="1128.33,639.39 1128.33,677 1090.72,677" fill="#fdfefe"/><rect x="1128.33" y="601.78" width="75.22" height="75.22" fill="#a9becd"/><polygon points="1128.33,601.78 1203.55,601.78 1128.33,677" fill="#f7b6a7"/></g></svg>