<?xml version="1.0" standalone="no"?><svg xmlns:xlink="http://www.w3.org/1999/xlink" xmlns="http://www.w3.org/2000/svg" viewBox="0 0 1000 562.5025964853974" preserveAspectRatio="xMaxYMax slice"><g transform="scale(0.8308753271571601)"><rect x="0" y="0" width="1203.5555555555557" height="677" fill="#fffafa"/><rect x="150.44444444444446" y="75.22222222222223" width="75.22222222222223" height="75.22222222222223" fill="#fffafa"/><rect x="188.06" y="112.83" width="37.61" height="37.61" fill="#e2e6eb"/><rect x="225.66666666666669" y="75.22222222222223" width="75.22222222222223" height="75.22222222222223" fill="#fffafa"/><rect x="977.8888888888889" y="75.22222222222223" width="75.22222222222223" height="75.22222222222223" fill="#fffafa"/><rect x="300.8888888888889" y="150.44444444444446" width="75.22222222222223" height="75.22222222222223" fill="#fffafa"/><rect x="677" y="150.44444444444446" width="75.22222222222223" height="75.22222222222223" fill="#fffafa"/><rect x="714.61" y="188.06" width="37.61" height="37.61" fill="#bdccd7"/><rect x="752.2222222222223" y="150.44444444444446" width="75.22222222222223" height="75.22222222222223" fill="#fffafa"/><rect x="827.4444444444446" y="150.44444444444446" width="75.22222222222223" height="75.22222222222223" fill="#fffafa"/><rect x="865.06" y="150.44" width="37.61" height="37.61" fill="#84878f"/><rect x="1053.1111111111113" y="150.44444444444446" width="75.22222222222223" height="75.22222222222223" fill="#fffafa"/><rect x="75.22222222222223" y="225.66666666666669" width="75.22222222222223" height="75.22222222222223" fill="#fffafa"/><rect x="75.22" y="263.28" width="37.61" height="37.61" fill="#a6bbca"/><rect x="451.33333333333337" y="225.66666666666669" width="75.22222222222223" height="75.22222222222223" fill="#fffafa"/><rect x="488.94" y="225.67" width="37.61" height="37.61" fill="#b7b7bc"/><rect x="451.33" y="263.28" width="37.61" height="37.61" fill="#e9eaee"/><rect x="488.94" y="263.28" width="37.61" height="37.61" fill="#3b4351"/><rect x="526.5555555555557" y="225.66666666666669" width="75.22222222222223" height="75.22222222222223" fill="#fffafa"/><rect x="526.56" y="263.28" width="37.61" height="37.61" fill="#565c68"/><rect x="564.17" y="263.28" width="37.61" height="37.61" fill="#d1dae1"/><rect x="0" y="300.8888888888889" width="75.22222222222223" height="75.22222222222223" fill="#fffafa"/><rect x="37.61" y="300.89" width="37.61" height="37.61" fill="#b0c2d0"/><rect x="0" y="338.5" width="37.61" height="37.61" fill="#83868f"/><rect x="376.11111111111114" y="300.8888888888889" width="75.22222222222223" height="75.22222222222223" fill="#fffafa"/><rect x="376.11" y="300.89" width="37.61" height="37.61" fill="#fbf7f8"/><rect x="413.72" y="300.89" width="37.61" height="37.61" fill="#d3d0d4"/><rect x="376.11" y="338.5" width="37.61" height="37.61" fill="#d5dde4"/><rect x="413.72" y="338.5" width="37.61" height="37.61" fill="#b8c8d4"/><rect x="601.7777777777778" y="300.8888888888889" width="75.22222222222223" height="75.22222222222223" fill="#fffafa"/><rect x="601.78" y="300.89" width="37.61" height="37.61" fill="#fef9f9"/><rect x="639.39" y="300.89" width="37.61" height="37.61" fill="#535965"/><rect x="601.78" y="338.5" width="37.61" height="37.61" fill="#cbd5de"/><rect x="639.39" y="338.5" width="37.61" height="37.61" fill="#4c5360"/><rect x="827.4444444444446" y="300.8888888888889" width="75.22222222222223" height="75.22222222222223" fill="#fffafa"/><rect x="865.06" y="300.89" width="37.61" height="37.61" fill="#c2cfd9"/><rect x="827.44" y="338.5" width="37.61" height="37.61" fill="#595f6b"/><rect x="865.06" y="338.5" width="37.61" height="37.61" fill="#f3eff0"/><rect x="902.6666666666667" y="300.8888888888889" width="75.22222222222223" height="75.22222222222223" fill="#fffafa"/><rect x="902.67" y="300.89" width="37.61" height="37.61" fill="#beccd7"/><rect x="940.28" y="300.89" width="37.61" height="37.61" fill="#b5b5ba"/><rect x="977.8888888888889" y="300.8888888888889" width="75.22222222222223" height="75.22222222222223" fill="#fffafa"/><rect x="977.89" y="300.89" width="37.61" height="37.61" fill="#a9aab0"/><rect x="1015.5" y="300.89" width="37.61" height="37.61" fill="#98b1c3"/><rect x="977.89" y="338.5" width="37.61" height="37.61" fill="#efebec"/><rect x="1015.5" y="338.5" width="37.61" height="37.61" fill="#b8c8d4"/><rect x="1128.3333333333335" y="300.8888888888889" width="75.22222222222223" height="75.22222222222223" fill="#fffafa"/><rect x="1165.94" y="300.89" width="37.61" height="37.61" fill="#b3c5d1"/><rect x="1128.33" y="338.5" width="37.61" height="37.61" fill="#d1dae2"/><rect x="1165.94" y="338.5" width="37.61" height="37.61" fill="#343c4b"/><rect x="0" y="376.11111111111114" width="75.22222222222223" height="75.22222222222223" fill="#fffafa"/><rect x="0" y="376.11" width="37.61" height="37.61" fill="#cad5de"/><rect x="0" y="413.72" width="37.61" height="37.61" fill="#8e9199"/><rect x="75.22222222222223" y="376.11111111111114" width="75.22222222222223" height="75.22222222222223" fill="#fffafa"/><rect x="112.83" y="376.11" width="37.61" height="37.61" fill="#c3c2c6"/><rect x="75.22" y="413.72" width="37.61" height="37.61" fill="#a0a1a8"/><rect x="112.83" y="413.72" width="37.61" height="37.61" fill="#cad4dd"/><rect x="225.66666666666669" y="376.11111111111114" width="75.22222222222223" height="75.22222222222223" fill="#fffafa"/><rect x="225.67" y="376.11" width="37.61" height="37.61" fill="#999ba2"/><rect x="263.28" y="376.11" width="37.61" height="37.61" fill="#e5e8ec"/><rect x="225.67" y="413.72" width="37.61" height="37.61" fill="#676c76"/><rect x="376.11111111111114" y="376.11111111111114" width="75.22222222222223" height="75.22222222222223" fill="#fffafa"/><rect x="376.11" y="376.11" width="37.61" height="37.61" fill="#a2b8c8"/><rect x="601.7777777777778" y="376.11111111111114" width="75.22222222222223" height="75.22222222222223" fill="#fffafa"/><rect x="639.39" y="376.11" width="37.61" height="37.61" fill="#dbe0e7"/><rect x="677" y="376.11111111111114" width="75.22222222222223" height="75.22222222222223" fill="#fffafa"/><rect x="677" y="413.72" width="37.61" height="37.61" fill="#ececf0"/><rect x="752.2222222222223" y="376.11111111111114" width="75.22222222222223" height="75.22222222222223" fill="#fffafa"/><rect x="752.22" y="376.11" width="37.61" height="37.61" fill="#e8e4e6"/><rect x="752.22" y="413.72" width="37.61" height="37.61" fill="#f7f2f3"/><rect x="789.83" y="413.72" width="37.61" height="37.61" fill="#eeeef1"/><rect x="827.4444444444446" y="376.11111111111114" width="75.22222222222223" height="75.22222222222223" fill="#fffafa"/><rect x="827.44" y="376.11" width="37.61" height="37.61" fill="#484f5b"/><rect x="865.06" y="376.11" width="37.61" height="37.61" fill="#98b1c3"/><rect x="827.44" y="413.72" width="37.61" height="37.61" fill="#c3d0da"/><rect x="865.06" y="413.72" width="37.61" height="37.61" fill="#d6dde4"/><rect x="902.6666666666667" y="376.11111111111114" width="75.22222222222223" height="75.22222222222223" fill="#fffafa"/><rect x="902.67" y="413.72" width="37.61" height="37.61" fill="#f8f5f6"/><rect x="940.28" y="413.72" width="37.61" height="37.61" fill="#92adc0"/><rect x="977.8888888888889" y="376.11111111111114" width="75.22222222222223" height="75.22222222222223" fill="#fffafa"/><rect x="977.89" y="376.11" width="37.61" height="37.61" fill="#767a84"/><rect x="1015.5" y="376.11" width="37.61" height="37.61" fill="#848790"/><rect x="977.89" y="413.72" width="37.61" height="37.61" fill="#e8eaee"/><rect x="1015.5" y="413.72" width="37.61" height="37.61" fill="#ededf0"/><rect x="1053.1111111111113" y="376.11111111111114" width="75.22222222222223" height="75.22222222222223" fill="#fffafa"/><rect x="1053.11" y="376.11" width="37.61" height="37.61" fill="#dbd8db"/><rect x="1090.72" y="376.11" width="37.61" height="37.61" fill="#484f5c"/><rect x="1053.11" y="413.72" width="37.61" height="37.61" fill="#90939a"/><rect x="1090.72" y="413.72" width="37.61" height="37.61" fill="#3f4754"/><rect x="1128.3333333333335" y="376.11111111111114" width="75.22222222222223" height="75.22222222222223" fill="#fffafa"/><rect x="1128.33" y="376.11" width="37.61" height="37.61" fill="#b4c5d2"/><rect x="1128.33" y="413.72" width="37.61" height="37.61" fill="#e6e3e5"/><rect x="1165.94" y="413.72" width="37.61" height="37.61" fill="#c3d0da"/><rect x="0" y="451.33333333333337" width="75.22222222222223" height="75.22222222222223" fill="#fffafa"/><rect x="0" y="451.33" width="37.61" height="37.61" fill="#7c8089"/><rect x="0" y="488.94" width="37.61" height="37.61" fill="#6b6f7a"/><rect x="75.22222222222223" y="451.33333333333337" width="75.22222222222223" height="75.22222222222223" fill="#fffafa"/><rect x="75.22" y="451.33" width="37.61" height="37.61" fill="#868991"/><rect x="112.83" y="451.33" width="37.61" height="37.61" fill="#bcbbc0"/><rect x="112.83" y="488.94" width="37.61" height="37.61" fill="#dfe4e9"/><rect x="150.44444444444446" y="451.33333333333337" width="75.22222222222223" height="75.22222222222223" fill="#fffafa"/><rect x="150.44" y="451.33" width="37.61" height="37.61" fill="#bccbd6"/><rect x="188.06" y="451.33" width="37.61" height="37.61" fill="#e4e7ec"/><rect x="150.44" y="488.94" width="37.61" height="37.61" fill="#c4d0da"/><rect x="188.06" y="488.94" width="37.61" height="37.61" fill="#b6b5bb"/><rect x="225.66666666666669" y="451.33333333333337" width="75.22222222222223" height="75.22222222222223" fill="#fffafa"/><rect x="225.67" y="451.33" width="37.61" height="37.61" fill="#3f4654"/><rect x="225.67" y="488.94" width="37.61" height="37.61" fill="#adc0ce"/><rect x="376.11111111111114" y="451.33333333333337" width="75.22222222222223" height="75.22222222222223" fill="#fffafa"/><rect x="376.11" y="451.33" width="37.61" height="37.61" fill="#faf5f6"/><rect x="413.72" y="451.33" width="37.61" height="37.61" fill="#49505d"/><rect x="376.11" y="488.94" width="37.61" height="37.61" fill="#dbe1e7"/><rect x="413.72" y="488.94" width="37.61" height="37.61" fill="#f7f4f5"/><rect x="451.33333333333337" y="451.33333333333337" width="75.22222222222223" height="75.22222222222223" fill="#fffafa"/><rect x="451.33" y="451.33" width="37.61" height="37.61" fill="#c9c7cb"/><rect x="488.94" y="451.33" width="37.61" height="37.61" fill="#aeaeb4"/><rect x="451.33" y="488.94" width="37.61" height="37.61" fill="#cdcbcf"/><rect x="488.94" y="488.94" width="37.61" height="37.61" fill="#6f747e"/><rect x="526.5555555555557" y="451.33333333333337" width="75.22222222222223" height="75.22222222222223" fill="#fffafa"/><rect x="526.56" y="451.33" width="37.61" height="37.61" fill="#c7c6ca"/><rect x="564.17" y="488.94" width="37.61" height="37.61" fill="#cad4dd"/><rect x="601.7777777777778" y="451.33333333333337" width="75.22222222222223" height="75.22222222222223" fill="#fffafa"/><rect x="601.78" y="451.33" width="37.61" height="37.61" fill="#373f4d"/><rect x="639.39" y="451.33" width="37.61" height="37.61" fill="#9ab3c4"/><rect x="601.78" y="488.94" width="37.61" height="37.61" fill="#797d86"/><rect x="752.2222222222223" y="451.33333333333337" width="75.22222222222223" height="75.22222222222223" fill="#fffafa"/><rect x="789.83" y="451.33" width="37.61" height="37.61" fill="#b2b2b8"/><rect x="752.22" y="488.94" width="37.61" height="37.61" fill="#f8f5f6"/><rect x="789.83" y="488.94" width="37.61" height="37.61" fill="#c4d0da"/><rect x="827.4444444444446" y="451.33333333333337" width="75.22222222222223" height="75.22222222222223" fill="#fffafa"/><rect x="827.44" y="451.33" width="37.61" height="37.61" fill="#82858e"/><rect x="827.44" y="488.94" width="37.61" height="37.61" fill="#a2b8c8"/><rect x="902.6666666666667" y="451.33333333333337" width="75.22222222222223" height="75.22222222222223" fill="#fffafa"/><rect x="902.67" y="488.94" width="37.61" height="37.61" fill="#bebec2"/><rect x="940.28" y="488.94" width="37.61" height="37.61" fill="#abbfcd"/><rect x="1128.3333333333335" y="451.33333333333337" width="75.22222222222223" height="75.22222222222223" fill="#fffafa"/><rect x="1128.33" y="451.33" width="37.61" height="37.61" fill="#faf5f5"/><rect x="1165.94" y="451.33" width="37.61" height="37.61" fill="#8a8c95"/><rect x="1128.33" y="488.94" width="37.61" height="37.61" fill="#414956"/><rect x="1165.94" y="488.94" width="37.61" height="37.61" fill="#757983"/><rect x="0" y="526.5555555555557" width="75.22222222222223" height="75.22222222222223" fill="#fffafa"/><rect x="0" y="526.56" width="37.61" height="37.61" fill="#ced8e0"/><rect x="37.61" y="526.56" width="37.61" height="37.61" fill="#767a83"/><rect x="0" y="564.17" width="37.61" height="37.61" fill="#dee3e8"/><rect x="37.61" y="564.17" width="37.61" height="37.61" fill="#e1dee0"/><rect x="150.44444444444446" y="526.5555555555557" width="75.22222222222223" height="75.22222222222223" fill="#fffafa"/><rect x="150.44" y="526.56" width="37.61" height="37.61" fill="#adc0ce"/><rect x="188.06" y="526.56" width="37.61" height="37.61" fill="#80848d"/><rect x="150.44" y="564.17" width="37.61" height="37.61" fill="#eeeaeb"/><rect x="225.66666666666669" y="526.5555555555557" width="75.22222222222223" height="75.22222222222223" fill="#fffafa"/><rect x="225.67" y="526.56" width="37.61" height="37.61" fill="#d5dce3"/><rect x="263.28" y="526.56" width="37.61" height="37.61" fill="#d6dde4"/><rect x="225.67" y="564.17" width="37.61" height="37.61" fill="#c1c0c4"/><rect x="263.28" y="564.17" width="37.61" height="37.61" fill="#a4bac9"/><rect x="300.8888888888889" y="526.5555555555557" width="75.22222222222223" height="75.22222222222223" fill="#fffafa"/><rect x="300.89" y="526.56" width="37.61" height="37.61" fill="#c7d3dc"/><rect x="300.89" y="564.17" width="37.61" height="37.61" fill="#444b58"/><rect x="376.11111111111114" y="526.5555555555557" width="75.22222222222223" height="75.22222222222223" fill="#fffafa"/><rect x="376.11" y="526.56" width="37.61" height="37.61" fill="#606671"/><rect x="413.72" y="526.56" width="37.61" height="37.61" fill="#eeeef1"/><rect x="376.11" y="564.17" width="37.61" height="37.61" fill="#9db5c5"/><rect x="413.72" y="564.17" width="37.61" height="37.61" fill="#f9f6f7"/><rect x="451.33333333333337" y="526.5555555555557" width="75.22222222222223" height="75.22222222222223" fill="#fffafa"/><rect x="451.33" y="526.56" width="37.61" height="37.61" fill="#b5b5ba"/><rect x="488.94" y="526.56" width="37.61" height="37.61" fill="#656a75"/><rect x="451.33" y="564.17" width="37.61" height="37.61" fill="#dcdadc"/><rect x="488.94" y="564.17" width="37.61" height="37.61" fill="#d9dfe5"/><rect x="526.5555555555557" y="526.5555555555557" width="75.22222222222223" height="75.22222222222223" fill="#fffafa"/><rect x="526.56" y="526.56" width="37.61" height="37.61" fill="#b4c5d2"/><rect x="564.17" y="526.56" width="37.61" height="37.61" fill="#c5d1db"/><rect x="526.56" y="564.17" width="37.61" height="37.61" fill="#767a84"/><rect x="564.17" y="564.17" width="37.61" height="37.61" fill="#49505c"/><rect x="601.7777777777778" y="526.5555555555557" width="75.22222222222223" height="75.22222222222223" fill="#fffafa"/><rect x="601.78" y="526.56" width="37.61" height="37.61" fill="#f5f0f1"/><rect x="639.39" y="526.56" width="37.61" height="37.61" fill="#8e9098"/><rect x="601.78" y="564.17" width="37.61" height="37.61" fill="#f4f2f4"/><rect x="639.39" y="564.17" width="37.61" height="37.61" fill="#7f838c"/><rect x="827.4444444444446" y="526.5555555555557" width="75.22222222222223" height="75.22222222222223" fill="#fffafa"/><rect x="865.06" y="526.56" width="37.61" height="37.61" fill="#353d4b"/><rect x="827.44" y="564.17" width="37.61" height="37.61" fill="#dee3e8"/><rect x="865.06" y="564.17" width="37.61" height="37.61" fill="#2e3746"/><rect x="902.6666666666667" y="526.5555555555557" width="75.22222222222223" height="75.22222222222223" fill="#fffafa"/><rect x="902.67" y="526.56" width="37.61" height="37.61" fill="#9eb6c6"/><rect x="940.28" y="526.56" width="37.61" height="37.61" fill="#898c94"/><rect x="902.67" y="564.17" width="37.61" height="37.61" fill="#e3e6eb"/><rect x="940.28" y="564.17" width="37.61" height="37.61" fill="#e0e4ea"/><rect x="977.8888888888889" y="526.5555555555557" width="75.22222222222223" height="75.22222222222223" fill="#fffafa"/><rect x="977.89" y="526.56" width="37.61" height="37.61" fill="#a4bac9"/><rect x="1015.5" y="526.56" width="37.61" height="37.61" fill="#b4c5d2"/><rect x="977.89" y="564.17" width="37.61" height="37.61" fill="#d3d1d4"/><rect x="1015.5" y="564.17" width="37.61" height="37.61" fill="#f8f5f7"/><rect x="1053.1111111111113" y="526.5555555555557" width="75.22222222222223" height="75.22222222222223" fill="#fffafa"/><rect x="1053.11" y="526.56" width="37.61" height="37.61" fill="#b5b5ba"/><rect x="1090.72" y="526.56" width="37.61" height="37.61" fill="#f4f3f4"/><rect x="1053.11" y="564.17" width="37.61" height="37.61" fill="#dedbdd"/><rect x="1090.72" y="564.17" width="37.61" height="37.61" fill="#d4dce3"/><rect x="1128.3333333333335" y="526.5555555555557" width="75.22222222222223" height="75.22222222222223" fill="#fffafa"/><rect x="1128.33" y="526.56" width="37.61" height="37.61" fill="#8a8d95"/><rect x="1165.94" y="526.56" width="37.61" height="37.61" fill="#fdf8f8"/><rect x="1128.33" y="564.17" width="37.61" height="37.61" fill="#d0d9e1"/><rect x="0" y="601.7777777777778" width="75.22222222222223" height="75.22222222222223" fill="#fffafa"/><rect x="0" y="601.78" width="37.61" height="37.61" fill="#aabecc"/><rect x="37.61" y="601.78" width="37.61" height="37.61" fill="#c0ced8"/><rect x="0" y="639.39" width="37.61" height="37.61" fill="#d9d7d9"/><rect x="37.61" y="639.39" width="37.61" height="37.61" fill="#3f4754"/><rect x="75.22222222222223" y="601.7777777777778" width="75.22222222222223" height="75.22222222222223" fill="#fffafa"/><rect x="75.22" y="601.78" width="37.61" height="37.61" fill="#92959c"/><rect x="112.83" y="601.78" width="37.61" height="37.61" fill="#6d727c"/><rect x="75.22" y="639.39" width="37.61" height="37.61" fill="#4b525e"/><rect x="112.83" y="639.39" width="37.61" height="37.61" fill="#c2cfd9"/><rect x="150.44444444444446" y="601.7777777777778" width="75.22222222222223" height="75.22222222222223" fill="#fffafa"/><rect x="150.44" y="601.78" width="37.61" height="37.61" fill="#747882"/><rect x="188.06" y="601.78" width="37.61" height="37.61" fill="#3c4452"/><rect x="150.44" y="639.39" width="37.61" height="37.61" fill="#5c616d"/><rect x="188.06" y="639.39" width="37.61" height="37.61" fill="#333b4a"/><rect x="225.66666666666669" y="601.7777777777778" width="75.22222222222223" height="75.22222222222223" fill="#fffafa"/><rect x="225.67" y="601.78" width="37.61" height="37.61" fill="#e9ebee"/><rect x="263.28" y="601.78" width="37.61" height="37.61" fill="#efebec"/><rect x="225.67" y="639.39" width="37.61" height="37.61" fill="#bccbd6"/><rect x="263.28" y="639.39" width="37.61" height="37.61" fill="#95979f"/><rect x="300.8888888888889" y="601.7777777777778" width="75.22222222222223" height="75.22222222222223" fill="#fffafa"/><rect x="300.89" y="601.78" width="37.61" height="37.61" fill="#a8bccb"/><rect x="338.5" y="601.78" width="37.61" height="37.61" fill="#edeef1"/><rect x="300.89" y="639.39" width="37.61" height="37.61" fill="#fffafa"/><rect x="338.5" y="639.39" width="37.61" height="37.61" fill="#e2e5ea"/><rect x="376.11111111111114" y="601.7777777777778" width="75.22222222222223" height="75.22222222222223" fill="#fffafa"/><rect x="376.11" y="601.78" width="37.61" height="37.61" fill="#f1f0f2"/><rect x="413.72" y="601.78" width="37.61" height="37.61" fill="#535965"/><rect x="376.11" y="639.39" width="37.61" height="37.61" fill="#858890"/><rect x="413.72" y="639.39" width="37.61" height="37.61" fill="#9ab3c4"/><rect x="451.33333333333337" y="601.7777777777778" width="75.22222222222223" height="75.22222222222223" fill="#fffafa"/><rect x="451.33" y="601.78" width="37.61" height="37.61" fill="#7b7e87"/><rect x="488.94" y="601.78" width="37.61" height="37.61" fill="#616671"/><rect x="451.33" y="639.39" width="37.61" height="37.61" fill="#c4d0da"/><rect x="488.94" y="639.39" width="37.61" height="37.61" fill="#d3dbe2"/><rect x="526.5555555555557" y="601.7777777777778" width="75.22222222222223" height="75.22222222222223" fill="#fffafa"/><rect x="526.56" y="601.78" width="37.61" height="37.61" fill="#39414f"/><rect x="564.17" y="601.78" width="37.61" height="37.61" fill="#d5d3d6"/><rect x="526.56" y="639.39" width="37.61" height="37.61" fill="#bac9d5"/><rect x="564.17" y="639.39" width="37.61" height="37.61" fill="#c8d3dd"/><rect x="601.7777777777778" y="601.7777777777778" width="75.22222222222223" height="75.22222222222223" fill="#fffafa"/><rect x="601.78" y="601.78" width="37.61" height="37.61" fill="#95afc1"/><rect x="639.39" y="601.78" width="37.61" height="37.61" fill="#e1dee0"/><rect x="601.78" y="639.39" width="37.61" height="37.61" fill="#a6bbca"/><rect x="639.39" y="639.39" width="37.61" height="37.61" fill="#ebecef"/><rect x="677" y="601.7777777777778" width="75.22222222222223" height="75.22222222222223" fill="#fffafa"/><rect x="677" y="601.78" width="37.61" height="37.61" fill="#efebec"/><rect x="714.61" y="601.78" width="37.61" height="37.61" fill="#e2dfe1"/><rect x="677" y="639.39" width="37.61" height="37.61" fill="#7f828b"/><rect x="714.61" y="639.39" width="37.61" height="37.61" fill="#7a7e87"/><rect x="752.2222222222223" y="601.7777777777778" width="75.22222222222223" height="75.22222222222223" fill="#fffafa"/><rect x="752.22" y="601.78" width="37.61" height="37.61" fill="#97b0c2"/><rect x="789.83" y="601.78" width="37.61" height="37.61" fill="#aec1cf"/><rect x="752.22" y="639.39" width="37.61" height="37.61" fill="#d1cfd2"/><rect x="789.83" y="639.39" width="37.61" height="37.61" fill="#858891"/><rect x="827.4444444444446" y="601.7777777777778" width="75.22222222222223" height="75.22222222222223" fill="#fffafa"/><rect x="827.44" y="601.78" width="37.61" height="37.61" fill="#f7f5f6"/><rect x="865.06" y="601.78" width="37.61" height="37.61" fill="#cfd8e0"/><rect x="827.44" y="639.39" width="37.61" height="37.61" fill="#d4d2d5"/><rect x="865.06" y="639.39" width="37.61" height="37.61" fill="#9ab2c4"/><rect x="902.6666666666667" y="601.7777777777778" width="75.22222222222223" height="75.22222222222223" fill="#fffafa"/><rect x="902.67" y="601.78" width="37.61" height="37.61" fill="#8b8e96"/><rect x="940.28" y="601.78" width="37.61" height="37.61" fill="#c0ced8"/><rect x="902.67" y="639.39" width="37.61" height="37.61" fill="#6e727d"/><rect x="940.28" y="639.39" width="37.61" height="37.61" fill="#bacad5"/><rect x="977.8888888888889" y="601.7777777777778" width="75.22222222222223" height="75.22222222222223" fill="#fffafa"/><rect x="977.89" y="601.78" width="37.61" height="37.61" fill="#c0cdd8"/><rect x="1015.5" y="601.78" width="37.61" height="37.61" fill="#c7d2dc"/><rect x="977.89" y="639.39" width="37.61" height="37.61" fill="#bccbd6"/><rect x="1015.5" y="639.39" width="37.61" height="37.61" fill="#dae0e6"/><rect x="1053.1111111111113" y="601.7777777777778" width="75.22222222222223" height="75.22222222222223" fill="#fffafa"/><rect x="1053.11" y="601.78" width="37.61" height="37.61" fill="#7f828b"/><rect x="1090.72" y="601.78" width="37.61" height="37.61" fill="#39414f"/><rect x="1053.11" y="639.39" width="37.61" height="37.61" fill="#f0eff2"/><rect x="1090.72" y="639.39" width="37.61" height="37.61" fill="#d9d7d9"/><rect x="1128.3333333333335" y="601.7777777777778" width="75.22222222222223" height="75.22222222222223" fill="#fffafa"/><rect x="1128.33" y="601.78" width="37.61" height="37.61" fill="#d8dfe5"/><rect x="1165.94" y="601.78" width="37.61" height="37.61" fill="#e4e7eb"/><rect x="1128.33" y="639.39" width="37.61" height="37.61" fill="#9eb5c6"/><rect x="1165.94" y="639.39" width="37.61" height="37.61" fill="#b3c5d1"/></g></svg>